<svg width="1564" height="417" viewBox="0 0 1564 417" fill="none" xmlns="http://www.w3.org/2000/svg">
<g clip-path="url(#clip0_3_53)">
<path d="M578.34 277.7C576.407 274.22 573.647 272.477 570.06 272.47C568.102 272.51 566.155 272.782 564.26 273.28C559.733 274.433 555.363 275.463 551.15 276.37C540.202 278.846 529.085 280.501 517.89 281.32C515.677 260.653 508.083 243.363 495.11 229.45C482.443 215.243 465.607 208.14 444.6 208.14C427.997 207.987 411.719 212.742 397.81 221.81C383.73 230.657 372.687 243.12 364.68 259.2C356.68 275.02 352.68 293.117 352.68 313.49C352.558 327.935 355.671 342.224 361.79 355.31C367.602 367.885 376.772 378.613 388.29 386.31C400.163 394.083 414.38 397.97 430.94 397.97C450.54 397.97 468.07 391.27 483.53 377.87C498.99 364.19 509.34 346.093 514.58 323.58C527.677 323.113 540.7 321.395 553.47 318.45C558.883 317.17 564.14 315.663 569.24 313.93C577.24 311.523 581.24 303.883 581.24 291.01C581.24 285.623 580.273 281.187 578.34 277.7ZM457 344.85C450.653 351.817 443.063 355.303 434.23 355.31C426.23 355.31 419.19 351.423 413.11 343.65C407.31 335.87 404.41 324.61 404.41 309.87C404.41 291.103 408 276.627 415.18 266.44C422.633 255.993 431.88 250.767 442.92 250.76H445C444.177 255.001 443.761 259.31 443.76 263.63C443.727 273.659 445.992 283.562 450.38 292.58C454.958 301.563 461.813 309.186 470.26 314.69C468.087 327.83 463.667 337.883 457 344.85Z" fill="url(#paint0_linear_3_53)"/>
<path d="M872.3 277.3C870.1 274.633 866.927 273.3 862.78 273.3C861.388 273.239 859.995 273.374 858.64 273.7L847.46 275.7L842.85 276.6C827.59 279.54 815.187 281.25 805.64 281.73C812.26 266.177 815.573 252.373 815.58 240.32C815.58 229.86 813.093 221.95 808.12 216.59C803.147 210.957 796.66 208.143 788.66 208.15C779.856 208.04 771.264 210.854 764.23 216.15C756.946 221.632 751.11 228.81 747.23 237.06C743.153 245.325 741.022 254.414 741 263.63C741 274.35 743.07 283.597 747.21 291.37C738.957 305.577 726.553 324.62 710 348.5C706.127 299.167 704.193 259.09 704.2 228.27C704.2 220.77 702.683 215.543 699.65 212.59C696.89 209.643 691.783 208.17 684.33 208.17C678.758 208.024 673.272 209.565 668.59 212.59C664.45 215.257 660.863 220.617 657.83 228.67C642.083 270.21 624.827 310.153 606.06 348.5C602.193 299.167 600.26 259.09 600.26 228.27C600.26 221.03 598.467 215.937 594.88 212.99C591.547 209.777 586.3 208.17 579.14 208.17C569.76 208.17 562.723 209.91 558.03 213.39C553.337 216.87 550.85 223.037 550.57 231.89V245.97C550.57 255.57 550.763 265.713 551.15 276.4C551.623 289.58 552.393 303.58 553.46 318.4C554.06 326.807 554.753 335.473 555.54 344.4C557.2 362.9 561.2 376.437 567.54 385.01C574.16 393.59 583.13 397.88 594.45 397.88C603.557 397.88 611.427 395.6 618.06 391.04C624.96 386.493 631.723 378.32 638.35 366.52C645.25 354.72 652.977 337.563 661.53 315.05L663.61 344.5C664.99 363.533 668.44 377.2 673.96 385.5C679.76 393.807 688.18 397.96 699.22 397.96C708.735 398.097 718.037 395.134 725.72 389.52C733.72 383.893 743.243 373.437 754.29 358.15C763.963 344.75 772.797 331.75 780.79 319.15C791.952 322.417 803.53 324.041 815.16 323.97C824.154 323.999 833.13 323.152 841.96 321.44C846.617 320.539 851.218 319.37 855.74 317.94C862.367 315.8 867.337 312.45 870.65 307.89C873.983 303.057 875.65 296.49 875.65 288.19C875.63 283.61 874.513 279.98 872.3 277.3ZM779.47 259.83C777.676 259.832 775.921 259.302 774.428 258.306C772.935 257.311 771.771 255.895 771.083 254.238C770.395 252.581 770.214 250.757 770.563 248.997C770.912 247.237 771.775 245.62 773.043 244.35C774.311 243.081 775.927 242.216 777.687 241.865C779.447 241.514 781.271 241.693 782.929 242.379C784.587 243.066 786.004 244.228 787.001 245.72C787.998 247.212 788.53 248.966 788.53 250.76C788.53 253.164 787.576 255.469 785.877 257.17C784.178 258.871 781.874 259.827 779.47 259.83Z" fill="url(#paint1_linear_3_53)"/>
<path d="M1077.36 311.08C1076.56 309.587 1075.37 308.345 1073.9 307.492C1072.44 306.64 1070.77 306.21 1069.08 306.25C1064.94 306.25 1061.21 308.127 1057.9 311.88C1052.12 318.547 1046.86 324.42 1042.12 329.5C1036.43 335.553 1031.48 340.403 1027.26 344.05C1019.8 350.483 1013.31 353.7 1007.8 353.7C999.8 353.7 995.8 348.337 995.8 337.61C995.8 330.11 998.42 314.697 1003.66 291.37C1009.74 264.037 1012.78 245.14 1012.77 234.68C1012.77 217.247 1003.8 208.533 985.86 208.54C976.747 208.54 966.67 211.623 955.63 217.79C944.87 223.95 933.83 234.283 922.51 248.79C911.463 262.997 901.387 281.493 892.28 304.28C892.28 289.54 892.693 275.207 893.52 261.28C930.233 222.367 956.727 188.44 973 159.5C989.287 130.28 997.43 102.133 997.43 75.06C997.43 58.1667 993.43 44.5 985.43 34.06C977.697 23.3333 967.48 17.97 954.78 17.97C931.04 17.97 910.613 33.25 893.5 63.81C876.667 94.0767 863.833 131.597 855 176.37C848.584 209.447 844.524 242.938 842.85 276.59C842.397 286.303 842.17 295.923 842.17 305.45L841.96 321.45L841.75 337.65C841.483 342.75 841.347 349.587 841.34 358.16C841.34 373.167 842.583 383.623 845.07 389.53C847.83 395.157 853.35 397.97 861.63 397.97C882.33 397.97 895.303 387.247 900.55 365.8C904.562 349.812 909.966 334.206 916.7 319.16C923.32 304.413 929.947 292.617 936.58 283.77C943.2 274.657 948.307 270.1 951.9 270.1C954.927 270.1 956.443 272.247 956.45 276.54C956.45 282.967 954.657 294.633 951.07 311.54C947.203 330.84 945.27 344.243 945.27 351.75C945.27 366.757 948.86 378.283 956.04 386.33C963.213 394.103 973.84 397.99 987.92 397.99C1005.03 397.99 1020.22 393.433 1033.47 384.32C1041.49 378.87 1049.1 372.823 1056.21 366.23C1061.82 361.07 1067.35 355.44 1072.8 349.34C1078.05 343.44 1080.68 335.13 1080.67 324.41C1080.67 318.743 1079.57 314.3 1077.36 311.08ZM911.73 134.55C917.53 110.957 923.467 92.3267 929.54 78.66C935.613 64.72 941.133 57.75 946.1 57.75C949.693 57.75 952.453 60.03 954.38 64.59C956.307 69.15 957.273 75.7167 957.28 84.29C957.28 103.05 951.613 123.96 940.28 147.02C929.183 170.155 914.974 191.664 898.05 210.95C901.298 185.266 905.864 159.766 911.73 134.55Z" fill="url(#paint2_linear_3_53)"/>
<path d="M1266.57 277.7C1264.64 274.22 1261.88 272.477 1258.29 272.47C1256.33 272.51 1254.38 272.782 1252.49 273.28C1247.96 274.433 1243.59 275.467 1239.37 276.38C1228.42 278.849 1217.3 280.501 1206.11 281.32C1203.91 260.653 1196.32 243.363 1183.34 229.45C1170.67 215.243 1153.83 208.14 1132.82 208.14C1116.21 207.982 1099.92 212.738 1086 221.81C1071.93 230.657 1060.89 243.12 1052.88 259.2C1044.88 275.02 1040.88 293.117 1040.88 313.49C1040.87 318.847 1041.28 324.196 1042.1 329.49C1043.47 338.428 1046.13 347.121 1049.99 355.3C1051.77 359.078 1053.84 362.71 1056.19 366.16C1061.59 374.108 1068.49 380.934 1076.49 386.26C1088.36 394.033 1102.58 397.92 1119.14 397.92C1138.74 397.92 1156.27 391.22 1171.73 377.82C1187.19 364.14 1197.52 346.043 1202.73 323.53C1215.82 323.062 1228.84 321.345 1241.61 318.4C1247.03 317.12 1252.29 315.613 1257.39 313.88C1265.39 311.473 1269.39 303.833 1269.39 290.96C1269.44 285.607 1268.5 281.187 1266.57 277.7ZM1145.25 344.85C1138.9 351.817 1131.31 355.303 1122.47 355.31C1114.47 355.31 1107.43 351.423 1101.36 343.65C1095.56 335.87 1092.66 324.61 1092.66 309.87C1092.66 291.103 1096.25 276.627 1103.43 266.44C1110.88 255.993 1120.12 250.767 1131.17 250.76H1133.24C1132.42 255.001 1132 259.31 1132 263.63C1131.96 273.659 1134.23 283.564 1138.62 292.58C1143.19 301.565 1150.05 309.189 1158.5 314.69C1156.29 327.83 1151.88 337.883 1145.25 344.85Z" fill="url(#paint3_linear_3_53)"/>
<path d="M1560.53 277.3C1558.32 274.633 1555.14 273.3 1551.01 273.3C1549.62 273.238 1548.22 273.372 1546.87 273.7L1535.69 275.7C1518.3 279.193 1504.36 281.193 1493.87 281.7C1500.49 266.147 1503.8 252.343 1503.8 240.29C1503.8 229.83 1501.32 221.92 1496.35 216.56C1491.38 210.927 1484.9 208.113 1476.89 208.12C1468.09 208.01 1459.49 210.824 1452.46 216.12C1445.17 221.599 1439.34 228.778 1435.46 237.03C1431.39 245.288 1429.27 254.366 1429.25 263.57C1429.25 274.29 1431.32 283.537 1435.46 291.31C1427.18 305.517 1414.76 324.55 1398.2 348.41C1394.33 299.077 1392.39 259 1392.4 228.18C1392.4 220.68 1390.88 215.453 1387.84 212.5C1385.08 209.553 1379.97 208.08 1372.52 208.08C1366.95 207.936 1361.47 209.476 1356.79 212.5C1352.65 215.167 1349.06 220.527 1346.02 228.58C1330.29 270.14 1313.03 310.083 1294.26 348.41C1290.4 299.077 1288.47 259 1288.47 228.18C1288.47 220.94 1286.68 215.847 1283.09 212.9C1279.76 209.687 1274.51 208.08 1267.35 208.08C1257.97 208.08 1250.93 209.82 1246.23 213.3C1241.53 216.78 1239.05 222.947 1238.78 231.8V245.88C1238.78 255.48 1238.97 265.627 1239.35 276.32C1239.84 289.5 1240.61 303.5 1241.66 318.32C1242.26 326.727 1242.96 335.393 1243.75 344.32C1245.4 362.82 1249.4 376.357 1255.75 384.93C1262.37 393.51 1271.34 397.8 1282.66 397.8C1291.77 397.8 1299.63 395.52 1306.26 390.96C1313.16 386.413 1319.92 378.24 1326.55 366.44C1333.45 354.64 1341.18 337.483 1349.74 314.97L1351.81 344.32C1353.19 363.353 1356.64 377.02 1362.16 385.32C1367.96 393.627 1376.38 397.78 1387.42 397.78C1396.94 397.98 1406.27 395.074 1414 389.5C1422 383.873 1431.52 373.417 1442.57 358.13C1452.23 344.73 1461.06 331.73 1469.07 319.13C1480.23 322.398 1491.81 324.021 1503.44 323.95C1517.19 324.049 1530.88 322.025 1544.02 317.95C1550.64 315.81 1555.61 312.46 1558.92 307.9C1562.25 303.067 1563.92 296.5 1563.92 288.2C1563.87 283.613 1562.74 279.98 1560.53 277.3ZM1468.84 263.96C1467.05 263.96 1465.29 263.428 1463.8 262.431C1462.31 261.435 1461.15 260.018 1460.46 258.361C1459.77 256.704 1459.59 254.88 1459.94 253.121C1460.29 251.361 1461.16 249.745 1462.43 248.477C1463.7 247.208 1465.31 246.344 1467.07 245.994C1468.83 245.644 1470.65 245.824 1472.31 246.51C1473.97 247.197 1475.38 248.359 1476.38 249.851C1477.38 251.343 1477.91 253.096 1477.91 254.89C1477.91 257.296 1476.95 259.603 1475.25 261.303C1473.55 263.004 1471.25 263.96 1468.84 263.96Z" fill="url(#paint4_linear_3_53)"/>
<path d="M211.77 0.5C218 0.5 224.31 0.5 230.58 0.56C234.92 0.63 238.69 2.04 240.58 6.41C242.58 11.03 240.03 14.31 237.16 17.47C212.62 44.47 188.04 71.47 165.76 100.47C138.42 136.07 114.25 173.61 97.82 215.74C91.6 231.74 85.59 247.83 82.9 264.96C81.9 271.18 82.22 277.32 84.67 282.96C88.88 292.73 100.81 295.8 112.05 290.57C120.05 286.83 126.47 281.1 132.28 274.57C150.28 254.23 167.69 233.35 186.33 213.57C204.97 193.79 226.02 176.57 250.54 164.44C265.85 156.86 281.89 154.35 298.03 161.26C318.32 169.95 326.3 188.03 321.51 212.88C317.42 234.13 310.07 254.37 302.89 274.67C294.34 298.84 284.36 322.51 277.39 347.24C274.21 358.52 278.26 362.79 289.63 360.24C303.48 357.18 315.31 349.24 327.77 342.9C338.89 337.23 349.62 330.67 361.85 327.5C371.77 324.94 376.21 328.96 374.47 339.28C372.73 349.6 367.09 357.8 361.1 365.76C346.1 385.76 328.05 402.26 304.51 411.09C285.98 418.09 266.94 418.56 248.41 410.34C233.61 403.78 226.27 391.24 223.67 375.85C220.22 355.45 223.28 335.34 227.92 315.45C232.27 296.79 236.98 278.21 241.1 259.5C242.16 254.67 241.62 249.5 241.71 244.5C241.71 242.14 240.95 240.06 238.39 239.55C236 239.07 235.11 240.97 234.06 242.71C221.94 262.79 209.91 282.94 197.56 302.88C184.17 324.52 170.12 345.62 151.89 363.64C130.52 384.81 105 390.13 76.6 385.5C50.25 381.18 28.45 369.5 14.68 345.32C5.55002 329.26 1.44002 311.71 0.390023 293.5C-1.87998 254.11 5.93002 216.21 17.72 178.94C34.1691 126.848 58.4213 77.551 89.65 32.73C98.43 20.1 111.47 14.73 125.19 10.67C153.44 2.22 182.65 1.5 211.77 0.5Z" fill="url(#paint5_linear_3_53)"/>
</g>
<defs>
<linearGradient id="paint0_linear_3_53" x1="352.67" y1="303.04" x2="581.24" y2="303.04" gradientUnits="userSpaceOnUse">
<stop stop-color="#1890FF"/>
<stop offset="1" stop-color="#0065E7"/>
</linearGradient>
<linearGradient id="paint1_linear_3_53" x1="550.57" y1="303.04" x2="875.62" y2="303.04" gradientUnits="userSpaceOnUse">
<stop stop-color="#1890FF"/>
<stop offset="1" stop-color="#0065E7"/>
</linearGradient>
<linearGradient id="paint2_linear_3_53" x1="841.34" y1="207.94" x2="1080.67" y2="207.94" gradientUnits="userSpaceOnUse">
<stop stop-color="#1890FF"/>
<stop offset="1" stop-color="#0065E7"/>
</linearGradient>
<linearGradient id="paint3_linear_3_53" x1="1040.9" y1="303.04" x2="1269.47" y2="303.04" gradientUnits="userSpaceOnUse">
<stop stop-color="#1890FF"/>
<stop offset="1" stop-color="#0065E7"/>
</linearGradient>
<linearGradient id="paint4_linear_3_53" x1="1238.8" y1="303.04" x2="1563.84" y2="303.04" gradientUnits="userSpaceOnUse">
<stop stop-color="#1890FF"/>
<stop offset="1" stop-color="#0065E7"/>
</linearGradient>
<linearGradient id="paint5_linear_3_53" x1="2.31818e-05" y1="208.49" x2="374.84" y2="208.49" gradientUnits="userSpaceOnUse">
<stop stop-color="#1890FF"/>
<stop offset="1" stop-color="#0065E7"/>
</linearGradient>
<clipPath id="clip0_3_53">
<rect width="1563.84" height="415.98" fill="white" transform="translate(0 0.5)"/>
</clipPath>
</defs>
</svg>
