<svg width="20" height="21" viewBox="0 0 20 21" fill="none" xmlns="http://www.w3.org/2000/svg">
<g id="Group">
<g id="Group_2">
<path id="Vector" fill-rule="evenodd" clip-rule="evenodd" d="M10 0.732422C7.28417 0.732422 6.94363 0.743932 5.87702 0.792599C4.81264 0.841145 4.08569 1.01021 3.44962 1.25743C2.79203 1.51294 2.23436 1.85488 1.67839 2.41081C1.12246 2.96678 0.780521 3.52445 0.525004 4.18204C0.277783 4.81811 0.10873 5.54505 0.0601832 6.60943C0.011517 7.67604 0 8.01658 0 10.7324C0 13.4483 0.011517 13.7888 0.0601832 14.8554C0.10873 15.9198 0.277783 16.6467 0.525004 17.2828C0.780521 17.9404 1.12246 18.4981 1.67839 19.054C2.23436 19.61 2.79203 19.9519 3.44962 20.2075C4.08569 20.4546 4.81264 20.6237 5.87702 20.6722C6.94363 20.7209 7.28417 20.7324 10 20.7324C12.7158 20.7324 13.0564 20.7209 14.123 20.6722C15.1874 20.6237 15.9143 20.4546 16.5504 20.2075C17.208 19.9519 17.7656 19.61 18.3216 19.054C18.8775 18.4981 19.2195 17.9404 19.475 17.2828C19.7222 16.6467 19.8913 15.9198 19.9398 14.8554C19.9885 13.7888 20 13.4483 20 10.7324C20 8.01658 19.9885 7.67604 19.9398 6.60943C19.8913 5.54505 19.7222 4.81811 19.475 4.18204C19.2195 3.52445 18.8775 2.96678 18.3216 2.41081C17.7656 1.85488 17.208 1.51294 16.5504 1.25743C15.9143 1.01021 15.1874 0.841145 14.123 0.792599C13.0564 0.743932 12.7158 0.732422 10 0.732422ZM10 2.53422C12.6701 2.53422 12.9864 2.54442 14.0409 2.59253C15.0158 2.63699 15.5454 2.7999 15.8977 2.93685C16.3645 3.11825 16.6976 3.33495 17.0475 3.6849C17.3975 4.03481 17.6142 4.36793 17.7956 4.83471C17.9325 5.18708 18.0954 5.71657 18.1399 6.69156C18.188 7.74602 18.1982 8.06231 18.1982 10.7324C18.1982 13.4025 18.188 13.7188 18.1399 14.7733C18.0954 15.7483 17.9325 16.2778 17.7956 16.6301C17.6142 17.0969 17.3975 17.43 17.0475 17.7799C16.6976 18.1299 16.3645 18.3466 15.8977 18.528C15.5454 18.6649 15.0158 18.8279 14.0409 18.8723C12.9866 18.9204 12.6703 18.9306 10 18.9306C7.3297 18.9306 7.01348 18.9204 5.95914 18.8723C4.98415 18.8279 4.45466 18.6649 4.10229 18.528C3.63551 18.3466 3.30239 18.1299 2.95247 17.7799C2.60256 17.43 2.38583 17.0969 2.20442 16.6301C2.06748 16.2778 1.90457 15.7483 1.86011 14.7733C1.812 13.7188 1.8018 13.4025 1.8018 10.7324C1.8018 8.06231 1.812 7.74602 1.86011 6.69156C1.90457 5.71657 2.06748 5.18708 2.20442 4.83471C2.38583 4.36793 2.60252 4.03481 2.95247 3.6849C3.30239 3.33495 3.63551 3.11825 4.10229 2.93685C4.45466 2.7999 4.98415 2.63699 5.95914 2.59253C7.0136 2.54442 7.3299 2.53422 10 2.53422ZM10 5.59729C7.16393 5.59729 4.86487 7.89635 4.86487 10.7324C4.86487 13.5685 7.16393 15.8676 10 15.8676C12.8361 15.8676 15.1351 13.5685 15.1351 10.7324C15.1351 7.89635 12.8361 5.59729 10 5.59729ZM10 14.0658C8.15905 14.0658 6.66667 12.5734 6.66667 10.7324C6.66667 8.89146 8.15905 7.39909 10 7.39909C11.841 7.39909 13.3333 8.89146 13.3333 10.7324C13.3333 12.5734 11.841 14.0658 10 14.0658ZM16.538 5.39441C16.538 6.05716 16.0008 6.59439 15.338 6.59439C14.6753 6.59439 14.138 6.05716 14.138 5.39441C14.138 4.73166 14.6753 4.19439 15.338 4.19439C16.0008 4.19439 16.538 4.73166 16.538 5.39441Z" fill="#F7FAFC"/>
</g>
</g>
</svg>
