<svg width="19" height="18" viewBox="0 0 19 18" fill="none" xmlns="http://www.w3.org/2000/svg">
<g id="linkedin-black 1" clip-path="url(#clip0_270_385)">
<g id="Group">
<g id="Group_2">
<path id="Vector" fill-rule="evenodd" clip-rule="evenodd" d="M18.7 17.7324H14.567V11.7562C14.567 10.192 13.9206 9.12411 12.4989 9.12411C11.4115 9.12411 10.8068 9.84474 10.5253 10.5392C10.4198 10.7885 10.4363 11.1358 10.4363 11.483V17.7324H6.34182C6.34182 17.7324 6.3946 7.14621 6.34182 6.18392H10.4363V7.99637C10.6782 7.2039 11.9865 6.07289 14.0745 6.07289C16.6648 6.07289 18.7 7.73403 18.7 11.311V17.7324ZM2.20116 4.7394H2.17478C0.8554 4.7394 0 3.85658 0 2.73754C0 1.59673 0.880684 0.732422 2.22645 0.732422C3.57112 0.732422 4.39793 1.59457 4.42432 2.73429C4.42432 3.85332 3.57111 4.7394 2.20116 4.7394ZM0.471666 6.18392H4.11646V17.7324H0.471666V6.18392Z" fill="#F7FAFC"/>
</g>
</g>
</g>
<defs>
<clipPath id="clip0_270_385">
<rect width="18.7" height="17" fill="white" transform="translate(0 0.732422)"/>
</clipPath>
</defs>
</svg>
