<svg width="164" height="38" viewBox="0 0 164 38" fill="none" xmlns="http://www.w3.org/2000/svg">
<g clip-path="url(#clip0_48_2060)">
<path d="M41.1218 28.3123V3.15417H55.9914V6.30832H44.2009V14.0435H54.7898V17.1976H44.2009V25.083H56.8174V28.2372H41.1218V28.3123Z" fill="#E43225"/>
<path d="M72.438 28.3122L67.3313 21.6284L62.2246 28.3122H58.6198L65.604 19.3755L58.2444 10.1383H62.2997L67.3313 17.0474L72.438 10.1383H76.4183L69.4341 19.3755L76.0428 28.3122H72.438Z" fill="#E43225"/>
<path d="M80.9993 25.6087V38H77.9202V19.4506C77.9202 14.7194 81.5249 9.68774 87.1573 9.68774C92.8648 9.68774 97.1455 13.2925 97.1455 19.2253C97.1455 25.0079 92.7898 28.9881 87.8332 28.9881C85.4301 28.9881 82.2008 27.9368 80.9993 25.6087ZM93.9162 19.2253C93.9162 15.17 91.2878 12.7668 86.6317 12.9921C84.3787 13.0672 80.9241 14.7194 81.2245 20.502C81.2996 22.3794 83.2522 25.9091 87.5328 25.9091C91.2127 25.9091 93.9162 23.8063 93.9162 19.2253Z" fill="#E43225"/>
<path d="M99.7739 28.3122V10.1383H102.853V12.0909C104.355 10.3636 106.683 9.76282 109.161 9.76282V13.0672C108.786 12.9921 105.106 12.5415 102.853 17.3478V28.3873H99.7739V28.3122Z" fill="#E43225"/>
<path d="M109.987 19.2253C109.987 13.9684 113.742 9.68774 118.924 9.68774C125.383 9.68774 127.786 13.9684 127.786 19.4506V20.9526H113.367C113.592 24.4071 116.671 26.2095 119.525 26.1344C121.628 26.0593 123.055 25.4585 124.557 23.9565L126.584 26.0593C124.707 27.8616 122.304 29.0632 119.375 29.0632C113.893 28.9881 109.987 24.9328 109.987 19.2253ZM118.699 12.7668C115.77 12.7668 113.517 15.3202 113.367 18.0988H124.557C124.557 15.3953 122.604 12.7668 118.699 12.7668Z" fill="#E43225"/>
<path d="M129.363 25.7588L131.616 23.7312C131.541 23.7312 132.742 24.9328 132.892 25.0079C133.418 25.4584 133.944 25.7589 134.62 25.9091C136.572 26.4347 140.102 26.2845 140.402 23.581C140.553 22.079 139.426 21.2529 138.149 20.7272C136.497 20.1264 134.695 19.9011 133.043 19.1502C131.165 18.3241 129.964 16.8972 129.964 14.7944C129.964 9.31221 137.774 8.41102 141.304 10.9644C141.454 11.1146 143.181 12.6917 143.106 12.6917L140.853 14.494C139.726 13.1422 138.675 12.4664 136.272 12.4664C135.07 12.4664 133.418 12.9921 133.118 14.2687C132.667 16.0711 134.695 16.747 136.047 17.1225C137.849 17.5731 139.802 17.8735 141.379 18.8498C143.557 20.2015 144.082 23.1304 143.256 25.3834C142.355 27.8616 139.651 28.8379 137.248 28.913C134.394 29.0632 131.916 28.162 129.889 26.1343C129.738 26.1343 129.363 25.7588 129.363 25.7588Z" fill="#E43225"/>
<path d="M145.209 25.7588L147.462 23.7312C147.387 23.7312 148.588 24.9328 148.738 25.0079C149.264 25.4584 149.79 25.7589 150.466 25.9091C152.418 26.4347 155.948 26.2845 156.248 23.581C156.398 22.079 155.272 21.2529 153.995 20.7272C152.343 20.1264 150.541 19.9011 148.889 19.1502C147.011 18.3241 145.809 16.8972 145.809 14.7944C145.809 9.31221 153.62 8.41102 157.149 10.9644C157.3 11.1146 159.027 12.6917 158.952 12.6917L156.699 14.494C155.572 13.1422 154.521 12.4664 152.118 12.4664C150.916 12.4664 149.264 12.9921 148.964 14.2687C148.513 16.0711 150.541 16.747 151.892 17.1225C153.695 17.5731 155.647 17.8735 157.225 18.8498C159.402 20.2015 159.928 23.1304 159.102 25.3834C158.201 27.8616 155.497 28.8379 153.094 28.913C150.24 29.0632 147.762 28.162 145.734 26.1343C145.584 26.1343 145.209 25.7588 145.209 25.7588Z" fill="#E43225"/>
<path d="M159.853 10.1384V8.1858H159.177V7.8103H160.979V8.1858H160.304V10.1384H159.853Z" fill="#E43225"/>
<path d="M163.232 10.1384V8.33599L162.557 10.1384H162.406L161.73 8.33599V10.1384H161.355V7.8103H161.956L162.557 9.38738L163.157 7.8103H163.758V10.1384H163.232Z" fill="#E43225"/>
<path d="M20.244 28.3123L17.991 22.3044H5.82499L3.57202 28.3123H0.342773L10.1056 3.15417H13.6353L23.323 28.3123H20.244ZM11.7578 6.75892L7.17677 19.2253H16.7143L11.7578 6.75892Z" fill="#F7971D"/>
<path d="M25.3507 28.3123V3.15417H28.5049V28.3123H25.3507Z" fill="#F7971D"/>
<path d="M33.236 28.3122V10.5138H36.3902V28.3122H33.236Z" fill="#F7971D"/>
<path d="M39.3942 4.73122C39.3942 4.65612 39.3942 4.65612 39.3942 4.58102C39.3942 4.50592 39.3942 4.50592 39.3942 4.43083C36.991 4.35573 35.0384 2.40316 34.9633 0C34.8882 0 34.8131 0 34.738 0C34.6629 0 34.5878 0 34.5127 0C34.4377 2.40316 32.4851 4.35573 30.0819 4.43083C30.0819 4.50592 30.0819 4.50592 30.0819 4.58102C30.0819 4.65612 30.0819 4.65612 30.0819 4.73122C32.4851 4.80631 34.4377 6.75889 34.5127 9.16205C34.5878 9.16205 34.6629 9.16205 34.738 9.16205C34.8131 9.16205 34.8882 9.16205 34.9633 9.16205C35.0384 6.75889 36.991 4.80631 39.3942 4.73122Z" fill="#F7971D"/>
</g>
<defs>
<clipPath id="clip0_48_2060">
<rect width="163.415" height="38" fill="white" transform="translate(0.342773)"/>
</clipPath>
</defs>
</svg>
