<svg width="165" height="42" viewBox="0 0 165 42" fill="none" xmlns="http://www.w3.org/2000/svg">
<g clip-path="url(#clip0_370_3574)">
<path d="M86.9869 33.9986L86.9439 26.1254L84.1915 26.0827L81.4248 26.0542V24.9153V23.7763H92.1477C102.584 23.7763 102.871 23.7905 103.329 24.061C103.587 24.2176 103.917 24.5451 104.075 24.8014C104.347 25.257 104.361 25.5417 104.361 32.7885V40.2915H101.208H98.0538V39.1525V38.0136H100.061H102.068V32.2759C102.068 26.88 102.053 26.5098 101.81 26.2963C101.566 26.0827 100.921 26.0542 95.4305 26.0542H89.3093V33.9559V41.8576H88.1624H87.0156L86.9869 33.9986Z" fill="#325AB4"/>
<path d="M59.4917 40.4339V39.2949H62.4305H65.3692V35.6644V32.0339H58.7033H52.0374V30.8949V29.7559H58.5743H65.1112L67.6056 27.4495C69.1538 26.0258 70.0999 25.0719 70.0712 24.9295C70.0282 24.7302 69.2685 24.7017 62.8175 24.659L55.6212 24.6305V23.4915V22.3525H63.7923C72.8093 22.3525 72.7089 22.3383 73.2537 23.2353C73.5977 23.7905 73.6264 24.4881 73.3254 25.0434C73.225 25.257 72.1355 26.3532 70.9314 27.478C69.7272 28.5885 68.7237 29.5566 68.695 29.6278C68.6664 29.699 70.487 29.7559 72.881 29.7559H77.1242V30.8949V32.0339H72.3936H67.6629V36.8034V41.5729H63.5773H59.4917V40.4339Z" fill="#325AB4"/>
<path d="M108.519 40.0637V38.8678L109.164 38.7112L109.809 38.5546V33.1586V27.7627H110.956H112.103V32.8312V37.8997L112.619 37.8C112.905 37.7573 113.292 37.6576 113.479 37.5864L113.823 37.4441V31.7492V26.0542H111.601H109.379V20.6441V15.2339H113.436C117.106 15.2339 117.536 15.2624 118.08 15.5186C118.439 15.6753 118.811 15.9885 118.983 16.259C119.256 16.7003 119.27 16.9708 119.27 21.3986V26.0542H117.693H116.116V27.6203V29.1864H117.693H119.27V30.3254V31.4644H117.693H116.116V34.1695C116.116 35.6644 116.159 36.8746 116.231 36.8746C116.331 36.8746 118.754 36.2481 119.313 36.0773C119.528 36.0061 119.557 36.12 119.557 37.202V38.398L116.446 39.1953C114.726 39.6366 112.246 40.2915 110.927 40.6332L108.519 41.2597V40.0637ZM116.977 20.8719C116.977 18.0244 116.977 17.9532 116.661 17.7397C116.403 17.5546 115.887 17.5119 114.009 17.5119H111.672V20.5444C111.672 22.2244 111.715 23.6339 111.773 23.6766C111.816 23.7336 113.02 23.7763 114.425 23.7763H116.977V20.8719Z" fill="#325AB4"/>
<path d="M121.134 40.0068V38.8678H122.051C123.169 38.8678 123.671 38.697 123.858 38.2698C123.958 38.0136 124.732 17.8678 124.718 15.6325V15.0915H125.864H127.011V15.8603C127.011 17.0563 126.309 37.9851 126.237 38.8963C126.108 40.5763 125.248 41.1315 122.754 41.1458H121.134V40.0068Z" fill="#325AB4"/>
<path d="M128.731 28.1186V15.0915H129.878H131.025L131.054 26.9512L131.097 38.7966L133.003 38.8393L134.896 38.882V40.0068V41.1458H131.814H128.731V28.1186Z" fill="#325AB4"/>
<path d="M158.549 39.8644V38.7254H160.556H162.563V29.3573C162.563 20.4447 162.549 19.9607 162.305 19.7471C162.076 19.5336 161.66 19.5051 159.51 19.5051C158.119 19.5051 156.972 19.5478 156.972 19.5905C156.972 19.7186 154.277 39.5512 154.162 40.1919L154.076 40.7186H152.872H151.654L151.74 40.2631C151.783 40.0068 152.428 35.4081 153.173 30.0407C153.919 24.6732 154.564 20.1173 154.607 19.9037L154.679 19.5051H153.317H151.955V18.3661V17.2271H153.46H154.951L155.037 16.7715C155.08 16.5153 155.166 16.017 155.223 15.661L155.338 15.0203L156.528 14.9776C157.488 14.9492 157.703 14.9776 157.646 15.1342C157.603 15.2339 157.531 15.7607 157.474 16.2732L157.374 17.2271H160.327C163.581 17.2271 163.796 17.2698 164.484 18.0814L164.857 18.537V29.7702V41.0034H161.703H158.549V39.8644Z" fill="#325AB4"/>
<path d="M138.48 40.4766C138.48 40.2061 140.587 25.9973 140.701 25.5275C140.773 25.2 140.759 25.2 139.196 25.2H137.619V24.061V22.922H144.214H150.808V24.061V25.2H146.952H143.095L143.009 25.6698C142.866 26.4244 141.203 38.0278 141.203 38.2414C141.203 38.4122 141.734 38.4407 144.199 38.4407C147.009 38.4407 147.21 38.4264 147.568 38.1417L147.941 37.8569V35.3654V32.8881H149.088H150.235V36.1058C150.235 39.0956 150.206 39.3661 149.948 39.7932C149.389 40.7044 149.245 40.7186 143.583 40.7186C138.938 40.7186 138.48 40.7044 138.48 40.4766Z" fill="#325AB4"/>
<path d="M0.143311 23.4773C0.143311 15.1058 0.186317 8.25763 0.257993 8.25763C0.315335 8.25763 1.82055 8.6278 3.61247 9.06915L6.88093 9.89492V23.4631C6.88093 30.9092 6.85226 37.017 6.82359 37.017C6.78058 37.017 5.26103 37.4014 3.45478 37.857L0.143311 38.697V23.4773Z" fill="#325AB4"/>
<path d="M120.417 34.8529C120.417 34.5966 120.575 32.6888 120.775 30.6102C120.976 28.5315 121.134 26.6949 121.134 26.5241C121.134 26.2108 121.191 26.1966 122.281 26.1966C123.098 26.1966 123.427 26.2536 123.427 26.3817C123.427 26.4671 123.255 28.5173 123.04 30.9376L122.639 35.3085H121.535H120.417V34.8529Z" fill="#325AB4"/>
<path d="M132.745 35.2231C132.745 35.0664 132.029 27.5207 131.957 26.88L131.871 26.1966H133.018H134.165L134.236 26.6664C134.308 27.1078 135.039 34.8386 135.039 35.1519C135.039 35.2515 134.638 35.3085 133.892 35.3085C133.262 35.3085 132.745 35.2658 132.745 35.2231Z" fill="#325AB4"/>
<path d="M121.363 23.1783C121.248 22.5376 120.704 17.7539 120.704 17.4549C120.704 17.2698 120.89 17.2271 121.851 17.2271C122.668 17.2271 122.997 17.2841 122.997 17.4122C122.997 17.6115 123.513 22.0963 123.642 23.0359L123.728 23.6339H122.582H121.435L121.363 23.1783Z" fill="#325AB4"/>
<path d="M131.957 23.1071C132.1 22.1247 132.602 17.7254 132.602 17.4834C132.602 17.2556 132.76 17.2271 133.749 17.2271C134.709 17.2271 134.896 17.2698 134.896 17.4549C134.896 17.7539 134.351 22.5376 134.236 23.1783L134.165 23.6339H133.018H131.885L131.957 23.1071Z" fill="#325AB4"/>
<path d="M84.8366 20.6156L84.7936 19.0068L82.5429 18.9641L80.278 18.9214V17.7966V16.6576H82.5716H84.8653V15.8746V15.0915H86.0121H87.1589V15.8746V16.6576H92.8931H98.6272V15.8746V15.0915H99.774H100.921V15.8746V16.6576H103.573H106.225V17.7966V18.9356H103.573H100.921V20.5729V22.2102H99.774H98.6416L98.5985 20.6156L98.5555 19.0068L92.8644 18.9641L87.1589 18.9356V20.5729V22.2102H86.0121H84.8796L84.8366 20.6156Z" fill="#325AB4"/>
<path d="M52.0374 19.078V16.6576H57.7715H63.5056V15.8746V15.0915H64.6525H65.7993V15.8746V16.6434L70.9314 16.6861C75.748 16.7288 76.0778 16.7431 76.5365 17.0136C77.3536 17.4976 77.5543 18.0529 77.5543 19.8895V21.4983H76.4075H75.2606V20.4447C75.2606 19.5051 75.2176 19.3485 74.9453 19.1634C74.6586 18.9641 73.4257 18.9356 64.4804 18.9356H54.331V20.2169V21.4983H53.1842H52.0374V19.078Z" fill="#325AB4"/>
<path d="M138.91 16.8V15.661H144.214H149.518V16.8V17.939H144.214H138.91V16.8Z" fill="#325AB4"/>
<path d="M62.3445 11.5749C62.5022 11.1905 62.7602 10.5783 62.9179 10.2081L63.2189 9.51051L61.9144 6.43525C61.1977 4.72678 60.5812 3.26034 60.5382 3.17492C60.4809 3.03254 60.6816 2.98983 61.2407 2.98983H62.0148L63.0182 5.49559C63.9357 7.80203 64.0217 7.97288 64.1507 7.60271C64.2368 7.38915 64.6812 6.27864 65.1542 5.13966L66.0143 3.06102L67.3475 3.01831L68.6664 2.97559V2.20678V1.42373H69.3832H70.0999V2.20678V2.98983H70.6017C71.0891 2.98983 71.1034 3.00407 71.1034 3.55932C71.1034 4.11458 71.0891 4.12881 70.6017 4.12881H70.0999V6.25017C70.0999 8.49966 70.1143 8.54237 70.831 8.54237C71.0604 8.54237 71.1034 8.64203 71.1034 9.19729V9.86644L70.3006 9.76678C69.8562 9.72407 69.3832 9.61017 69.2255 9.53898C68.8097 9.31119 68.6664 8.48542 68.6664 6.23593V4.12881H67.8349H67.0035L65.2116 8.18644L63.434 12.2441H62.7602H62.0721L62.3445 11.5749Z" fill="#325AB4"/>
<path d="M74.7589 9.72407C73.483 9.42508 72.7233 8.88407 72.2072 7.91593C71.7771 7.10441 71.7915 5.43864 72.2215 4.59864C72.9813 3.14644 74.6729 2.50576 76.4791 3.00407C77.6546 3.31729 78.7011 4.82644 78.7011 6.17898V6.69153H75.9774C72.9813 6.69153 72.9813 6.69153 73.4974 7.54576C74.1998 8.72746 76.0491 8.85559 77.2246 7.80203C77.5543 7.50305 77.884 7.57424 78.271 8.04407C78.4287 8.22915 78.4001 8.32881 78.056 8.68475C77.3249 9.43932 75.705 9.95186 74.7589 9.72407ZM77.1959 5.3817C76.9235 4.49898 75.834 3.88678 74.8162 4.05763C74.1568 4.17153 73.2537 4.95458 73.2537 5.41017C73.2537 5.68068 73.354 5.69492 75.275 5.69492H77.2819L77.1959 5.3817Z" fill="#325AB4"/>
<path d="M105.652 9.69559C104.591 9.48203 103.702 8.75593 103.301 7.80203C103.157 7.48881 103.071 6.84814 103.071 6.2217C103.071 5.29627 103.129 5.09695 103.544 4.41356C104.562 2.71932 106.884 2.32068 108.648 3.53085C108.82 3.65898 108.777 3.75864 108.433 4.15729L108.003 4.64136L107.372 4.29966C106.225 3.7017 105.135 4.07187 104.619 5.22509C104.29 5.95119 104.333 6.80542 104.72 7.56C105.236 8.52814 106.598 8.84136 107.558 8.20068L108.06 7.85898L108.433 8.24339C108.633 8.45695 108.805 8.68475 108.805 8.77017C108.805 9.1261 106.841 9.92339 106.239 9.80949C106.196 9.79526 105.924 9.75254 105.652 9.69559Z" fill="#325AB4"/>
<path d="M112.246 9.69559C110.597 9.36814 109.522 8.01559 109.522 6.25017C109.522 4.3139 110.941 2.8617 112.805 2.84746C114.826 2.84746 116.159 4.00068 116.36 5.92271L116.446 6.69153H113.694H110.956V7.0617C110.956 7.30373 111.128 7.60271 111.457 7.91593C112.317 8.72746 113.55 8.7417 114.654 7.97288L115.271 7.54576L115.701 7.83051C115.93 8.00136 116.116 8.18644 116.116 8.24339C116.116 8.30034 115.944 8.5139 115.729 8.72746C114.941 9.4678 113.35 9.90915 112.246 9.69559ZM114.812 5.2678C114.482 4.32814 113.292 3.80136 112.246 4.11458C111.644 4.28542 110.956 4.98305 110.956 5.42441C110.956 5.68068 111.085 5.69492 112.948 5.69492H114.955L114.812 5.2678Z" fill="#325AB4"/>
<path d="M90.5134 9.3539C89.1515 8.69898 88.4778 7.46034 88.6355 5.83729C88.7358 4.74102 89.2519 3.82983 90.069 3.36C91.1872 2.70509 92.7067 2.70509 93.6815 3.36C94.3123 3.78712 94.3266 3.78712 94.3266 3.34576C94.3266 3.03254 94.3839 2.98983 94.9 2.98983H95.4734V6.26441V9.53898H94.8283C94.2836 9.53898 94.1833 9.49627 94.1833 9.25424C94.1833 8.89831 94.1116 8.89831 93.5095 9.26848C92.7354 9.75254 91.4309 9.78102 90.5134 9.3539ZM93.3088 8.15797C94.599 7.18983 94.5416 5.13966 93.1798 4.35661C92.592 4.01492 91.4739 4.00068 90.9578 4.32814C90.0117 4.95458 89.6963 6.59187 90.3557 7.56C91.0008 8.52814 92.4057 8.81288 93.3088 8.15797Z" fill="#325AB4"/>
<path d="M53.4708 4.75526V-0.0427113L55.5064 0.0427125C57.2554 0.113899 57.6281 0.170848 58.1872 0.469831C59.592 1.1817 59.9504 3.01831 58.9039 4.11458C58.7032 4.32814 58.6316 4.48475 58.7319 4.51322C59.463 4.75526 60.1941 5.92271 60.2084 6.8339C60.2084 7.58848 59.6637 8.54237 58.9469 9.04068L58.3162 9.4678L55.8935 9.51051L53.4708 9.55322V4.75526ZM58.3592 7.71661C58.6172 7.43187 58.7749 7.10441 58.7749 6.8339C58.7749 6.56339 58.6172 6.23593 58.3592 5.95119C57.9435 5.48136 57.9291 5.48136 56.4239 5.43865L54.9044 5.3817V6.8339V8.2861L56.4239 8.22915C57.9291 8.18644 57.9435 8.18644 58.3592 7.71661ZM57.241 3.94373C57.8861 3.67322 58.1011 3.36 58.1011 2.69085C58.1011 2.24949 58.0008 2.0217 57.7284 1.73695C57.3987 1.42373 57.2124 1.36678 56.1372 1.30983L54.9044 1.23864V2.69085V4.12881H55.8362C56.3522 4.12881 56.983 4.04339 57.241 3.94373Z" fill="#325AB4"/>
<path d="M80.4214 4.76949V0H81.3962C86.0552 0 88.0191 1.5661 87.8471 5.13966C87.7038 8.18644 85.9405 9.53898 82.1273 9.53898H80.4214V4.76949ZM84.808 7.85898C85.9548 7.27525 86.4422 6.36407 86.4422 4.84068C86.4422 3.64475 86.1985 2.98983 85.5248 2.34915C84.851 1.69424 84.2633 1.48068 82.7581 1.33831L81.7116 1.23864V4.76949V8.2861L82.9731 8.22915C83.8762 8.18644 84.3779 8.08678 84.808 7.85898Z" fill="#325AB4"/>
<path d="M96.7637 6.26441V2.98983H97.4088C97.8962 2.98983 98.0539 3.04678 98.0539 3.21763C98.0539 3.34576 98.0969 3.41695 98.1685 3.38848C99.7741 2.56271 100.95 2.71932 101.824 3.85831C102.24 4.41356 102.354 5.16814 102.354 7.4461V9.53898H101.709H101.064V7.65966C101.05 4.69831 100.792 4.05763 99.5447 4.05763C98.9857 4.05763 98.828 4.12881 98.4696 4.52746L98.0539 4.98305V7.26102V9.53898H97.4088H96.7637V6.26441Z" fill="#325AB4"/>
<path d="M25.1298 34.3546L22.0764 33.5573V26.282V19.0068L25.3449 18.181C27.1368 17.7254 28.642 17.3553 28.7137 17.3695C28.771 17.3695 28.814 21.3702 28.814 26.2678V35.1661L28.4987 35.1519C28.3123 35.1519 26.7927 34.7817 25.1298 34.3546Z" fill="#00C8D2"/>
<path d="M10.8949 30.6956C10.8949 25.798 10.9379 21.7831 11.0096 21.7831C11.0669 21.7688 12.5721 22.139 14.3784 22.5946L17.6325 23.4203L17.6038 30.6671L17.5608 37.9139L14.6364 38.6685C13.0309 39.0814 11.5257 39.4658 11.3106 39.5085L10.8949 39.6081V30.6956Z" fill="#3C8CFF"/>
<path d="M32.828 23.4203C32.828 7.26102 32.8423 6.39254 33.086 6.46373C33.2151 6.50644 34.4909 6.8339 35.9101 7.18983C37.3293 7.56 38.7342 7.91593 39.0352 7.98712L39.5656 8.12949L39.537 23.4488L39.4939 38.7824L36.5839 39.5227C34.9926 39.9356 33.4874 40.3058 33.2581 40.3627L32.828 40.4624V23.4203Z" fill="#78E6DC"/>
</g>
<defs>
<clipPath id="clip0_370_3574">
<rect width="165" height="42" fill="white"/>
</clipPath>
</defs>
</svg>
