<svg width="34" height="38" viewBox="0 0 34 38" fill="none" xmlns="http://www.w3.org/2000/svg">
<g id="Logos" clip-path="url(#clip0_48_1310)">
<g id="g10">
<g id="g14">
<g id="Clip path group">
<mask id="mask0_48_1310" style="mask-type:luminance" maskUnits="userSpaceOnUse" x="-14" y="-8" width="62" height="54">
<g id="clipPath20">
<path id="path18" d="M-13.2776 -7.68792H47.4432V45.6715H-13.2776V-7.68792Z" fill="white"/>
</g>
</mask>
<g mask="url(#mask0_48_1310)">
<g id="g16">
<g id="g22">
<path id="path24" fill-rule="evenodd" clip-rule="evenodd" d="M30.5652 -1.90735e-05H3.76577C1.59358 -1.90735e-05 0.791931 0.801632 0.791931 2.97483V29.1979C0.791931 29.4438 0.801849 29.6723 0.823573 29.8839C0.873027 30.3583 0.882338 30.8179 1.32351 31.3413C1.36662 31.3925 1.81703 31.7277 1.81703 31.7277C2.05931 31.8465 2.22474 31.934 2.49798 32.044L15.6944 37.5729C16.3795 37.8869 16.6659 38.0093 17.1635 37.9995V37.9995C17.1642 37.9995 17.1648 37.9995 17.1655 37.9995C17.1661 37.9995 17.1667 37.9995 17.1674 37.9995V37.9995C17.665 38.0093 17.9515 37.8869 18.6366 37.5729L31.8329 32.044C32.1062 31.934 32.2716 31.8465 32.5139 31.7277C32.5139 31.7277 32.9644 31.3925 33.0074 31.3413C33.4486 30.8179 33.4579 30.3583 33.5073 29.8839C33.5291 29.6723 33.539 29.4438 33.539 29.1979V2.97483C33.539 0.801632 32.7373 -1.90735e-05 30.5652 -1.90735e-05Z" fill="#2F2D2E"/>
</g>
<g id="g26">
<path id="path28" d="M28.7702 26.3638L28.7641 26.4243L28.7581 26.4908L28.746 26.5513L28.7279 26.6118L28.7161 26.6662L28.6979 26.7267L28.6738 26.7812L28.6495 26.8296L28.6257 26.884L28.5955 26.9324L28.5653 26.9808L28.5293 27.0292L28.499 27.0775L28.4631 27.1198L28.4208 27.1622L28.3848 27.1985L28.3365 27.2409L28.2945 27.2772L28.2461 27.3135L28.1981 27.3433L28.15 27.3796L28.0956 27.4098L28.0415 27.434L27.9874 27.4643L27.9269 27.4885L27.8668 27.5127L27.8067 27.5308L27.7466 27.549L27.6921 27.5671L27.632 27.5792L27.5779 27.5913L27.5239 27.6034L27.4633 27.6155L27.4032 27.6215L27.3491 27.6276L27.2886 27.6337L27.2225 27.6398L27.1623 27.6458H27.1022H27.036H26.9695H26.9094L26.8492 27.6398H26.7831L26.7229 27.6337L26.6624 27.6276L26.5962 27.6215L26.5361 27.6095L26.476 27.6034L26.4155 27.5913L26.3553 27.5792L26.2952 27.5671L26.2351 27.555L26.1746 27.5369L26.1205 27.5248L26.0604 27.5066L26.0002 27.4885L25.9459 27.4643L25.8857 27.4461L25.8316 27.428L25.7714 27.4038L25.7171 27.3796L25.663 27.3554L25.6089 27.3256L25.5545 27.3013L25.5004 27.271L25.4523 27.2409L25.3979 27.2106L25.3498 27.1804L25.3015 27.1501L25.2534 27.1138L25.2054 27.0775L25.157 27.0412L25.1089 27.005L25.0666 26.9687L25.0186 26.9264L25.0549 26.878L25.0968 26.8356L25.1331 26.7872L25.1752 26.7388L25.2115 26.6965L25.2474 26.6481L25.2897 26.5997L25.3256 26.5574L25.368 26.509L25.4039 26.4666L25.4463 26.4183L25.4822 26.3698L25.5185 26.3275L25.5605 26.2791L25.5968 26.2307L25.6387 26.1884L25.675 26.14L25.7231 26.1763L25.7772 26.2126L25.8256 26.2489L25.8797 26.2852L25.928 26.3154L25.9821 26.3517L26.0301 26.382L26.0846 26.4061L26.1326 26.4364L26.1867 26.4606L26.2412 26.4848L26.2952 26.509L26.3494 26.5271L26.4038 26.5513L26.4639 26.5694L26.524 26.5876L26.5781 26.6057L26.6386 26.6179L26.6987 26.63L26.7588 26.642L26.825 26.6481L26.8855 26.6602H26.9457L27.0118 26.6662H27.072H27.1441L27.2103 26.6602L27.2708 26.6481L27.3249 26.636L27.379 26.6239L27.4274 26.6057L27.4694 26.5816L27.5178 26.5453L27.5537 26.5029L27.5779 26.4545L27.5961 26.4001L27.602 26.3396V26.3275L27.5961 26.2549L27.5719 26.1944L27.5416 26.1521L27.4996 26.1158L27.4512 26.0795L27.4032 26.0553L27.3491 26.0311L27.2886 26.0069L27.2164 25.9767L27.1744 25.9646L27.1264 25.9525L27.072 25.9343L27.0178 25.9222L26.9577 25.9041L26.8972 25.892L26.8311 25.8739L26.7709 25.8618L26.7047 25.8436L26.6446 25.8316L26.5841 25.8134L26.524 25.8013L26.4639 25.7831L26.4094 25.765L26.3494 25.7529L26.2952 25.7347L26.2412 25.7166L26.1867 25.6984L26.1205 25.6742L26.0604 25.65L26.0002 25.6258L25.9398 25.6016L25.8857 25.5714L25.8256 25.5412L25.7772 25.5109L25.7231 25.4807L25.675 25.4444L25.6267 25.4142L25.5847 25.3778L25.5424 25.3355L25.5004 25.2932L25.4641 25.2508L25.4282 25.2085L25.3979 25.1662L25.368 25.1177L25.3378 25.0634L25.3135 25.0214L25.2954 24.973L25.2777 24.9185L25.2595 24.8701L25.2474 24.8096L25.2353 24.7552L25.2292 24.6947L25.2232 24.6342L25.2171 24.5678V24.5012V24.4891V24.4286L25.2232 24.3681L25.2292 24.3137L25.2353 24.2531L25.2474 24.1988L25.2595 24.1443L25.2777 24.0898L25.2897 24.0354L25.3135 23.981L25.3378 23.9265L25.3619 23.8722L25.3919 23.8176L25.422 23.7633L25.458 23.7148L25.4944 23.6664L25.5363 23.6181L25.5786 23.5758L25.6207 23.5273L25.669 23.485L25.711 23.4547L25.7594 23.4184L25.8075 23.3821L25.8554 23.3519L25.9099 23.3217L25.964 23.2975L26.018 23.2672L26.0725 23.2431L26.1326 23.2249L26.1927 23.2007L26.2472 23.1826L26.2952 23.1704L26.3494 23.1584L26.4038 23.1463L26.4639 23.1342L26.518 23.1221L26.5781 23.116L26.6386 23.11L26.6987 23.1039L26.7588 23.0979H26.819H26.8855H26.9517H27.0178L27.084 23.1039L27.1502 23.11H27.2103L27.2769 23.116L27.337 23.1281L27.4032 23.1342L27.4633 23.1463L27.5178 23.1584L27.5779 23.1704L27.638 23.1826L27.6921 23.1946L27.7526 23.2128L27.8067 23.2309L27.8608 23.2431L27.9212 23.2672L27.9753 23.2854L28.0294 23.3095L28.0835 23.3338L28.1439 23.358L28.1981 23.3882L28.2461 23.4124L28.3005 23.4427L28.3546 23.4729L28.4027 23.5032L28.4571 23.5395L28.5052 23.5696L28.5535 23.606L28.6016 23.6423L28.6495 23.6785L28.6137 23.727L28.5834 23.7753L28.5475 23.8237L28.5112 23.8722L28.4753 23.9265L28.445 23.9749L28.4087 24.0234L28.3727 24.0717L28.3426 24.1201L28.3065 24.1685L28.2703 24.2169L28.24 24.2653L28.2041 24.3197L28.1678 24.3681L28.1319 24.4165L28.1016 24.4649L28.0657 24.5132L28.0173 24.477L27.9633 24.4467L27.9152 24.4165L27.8668 24.3802L27.8127 24.356L27.7643 24.3257L27.7103 24.3015L27.6622 24.2774L27.6078 24.2531L27.5597 24.229L27.5057 24.2108L27.4573 24.1866L27.3911 24.1685L27.331 24.1503L27.2708 24.1322L27.2103 24.1201L27.1502 24.108L27.0901 24.0959L27.03 24.0898L26.9695 24.0838L26.9154 24.0777H26.8552H26.7831L26.7169 24.0898L26.6564 24.102L26.6023 24.114L26.5543 24.1383L26.5119 24.1624L26.4578 24.2108L26.4215 24.2653L26.3977 24.3197L26.3916 24.3802V24.3923L26.3977 24.4709L26.4276 24.5375L26.4518 24.5738L26.4938 24.6161L26.5482 24.6463L26.5962 24.6766L26.6564 24.7008L26.7229 24.725L26.7951 24.7492L26.8432 24.7612L26.8912 24.7794L26.9457 24.7915L26.9997 24.8096L27.0598 24.8218L27.1264 24.8399L27.1926 24.858L27.2588 24.8762L27.3249 24.8883L27.385 24.9064L27.4512 24.9246L27.5117 24.9367L27.5719 24.9548L27.632 24.973L27.686 24.9911L27.7466 25.0093L27.8007 25.0274L27.8547 25.0456L27.9212 25.0694L27.9814 25.0997L28.0415 25.1238L28.1016 25.154L28.1561 25.1843L28.2102 25.2146L28.2582 25.2448L28.3065 25.2811L28.3546 25.3113L28.4027 25.3537L28.4511 25.396L28.493 25.4444L28.5353 25.4867L28.5713 25.5352L28.6076 25.5895L28.6375 25.6379L28.6678 25.6924L28.6919 25.7408L28.7101 25.7952L28.7279 25.8496L28.74 25.9041L28.752 25.9646L28.7641 26.0251L28.7702 26.0856L28.7763 26.1521V26.2186V26.2307V26.2973L28.7702 26.3638ZM24.5471 27.5732H24.4867H24.4265H24.3664H24.3063H24.2458H24.1856H24.1256H24.0654H23.9989H23.9388H23.8786H23.8185H23.7579H23.6979H23.6377H23.5776H23.5171H23.457H23.3969H23.3367H23.2766H23.2161H23.156H23.0959H23.0357H22.9752H22.9151H22.855H22.7888H22.7283H22.6681H22.608H22.5479H22.4875H22.4273H22.3672H22.307H22.2465H22.1864H22.1263H22.0661H22.0056H21.9456H21.8854H21.8253H21.7648H21.7046H21.6384H21.5783H21.5182H21.4577H21.3976H21.3374H21.2774H21.2169H21.1567H21.0966V27.5127V27.4522V27.3917V27.3316V27.271V27.2106V27.1501V27.0897V27.0292V26.9687V26.9082V26.8477V26.7872V26.7267V26.6662V26.6057V26.5453V26.4848V26.4303V26.3698V26.3094V26.2489V26.1884V26.1279V26.0674V26.0069V25.9464V25.8859V25.8255V25.765V25.7045V25.644V25.5835V25.523V25.4625V25.4021V25.3415V25.2811V25.2206V25.1601V25.0997V25.0395V24.979V24.9185V24.858V24.7975V24.7371V24.6766V24.6161V24.5556V24.4951V24.4346V24.3741V24.3137V24.2592V24.1988V24.1383V24.0777V24.0173V23.9568V23.8963V23.8358V23.7753V23.7148V23.6544V23.5939V23.5333V23.4729V23.4124V23.3519V23.2915V23.2309V23.1704H21.1567H21.2169H21.2774H21.3374H21.3976H21.4577H21.5182H21.5783H21.6384H21.6986H21.7591H21.8193H21.8793H21.9395H21.9939H22.054H22.1142H22.1743H22.2348H22.2949H22.355H22.4152H22.4757H22.5358H22.5959H22.6561H22.7166H22.7767H22.8368H22.8969H22.9574H23.0176H23.0777H23.1378H23.198H23.2585H23.3186H23.3787H23.4388H23.4993H23.5595H23.6196H23.6797H23.7342H23.7943H23.8544H23.9146H23.9751H24.0352H24.0953H24.1554H24.2159H24.276H24.3361H24.3963H24.4568H24.517H24.5771V23.2309V23.2854V23.3458V23.4064V23.4668V23.5213V23.5818V23.6423V23.6967V23.7572V23.8176V23.8722V23.9326V23.9931V24.0536V24.108V24.1685H24.517H24.4568H24.3963H24.3361H24.276H24.2159H24.1615H24.1014H24.0412H23.9811H23.9206H23.8605H23.8003H23.7402H23.6797H23.6196H23.5595H23.4993H23.4388H23.3848H23.3246H23.2645H23.204H23.1439H23.0837H23.0236H22.9631H22.903H22.8429H22.7828H22.7222H22.6621H22.608H22.5479H22.4875H22.4273H22.3672H22.307H22.2465V24.229V24.2894V24.3499V24.4104V24.4709V24.5254V24.5858V24.6463V24.7068V24.7673V24.8278V24.8883H22.307H22.3672H22.4273H22.4875H22.5479H22.608H22.6681H22.7283H22.7828H22.8429H22.903H22.9631H23.0236H23.0837H23.1439H23.204H23.2645H23.3246H23.3848H23.4449H23.5053H23.5655H23.6256H23.6858H23.7463H23.8064H23.8605H23.9206H23.9811H24.0412H24.1014H24.1615H24.2219H24.2821H24.3422V24.9487V25.0032V25.0634V25.1238V25.1783V25.2387V25.2992V25.3537V25.4142V25.4747V25.5352V25.5895V25.65V25.7105V25.765V25.8255H24.2821H24.2219H24.1615H24.1014H24.0412H23.9811H23.9206H23.8605H23.8064H23.7463H23.6858H23.6256H23.5655H23.5053H23.4449H23.3848H23.3246H23.2645H23.204H23.1439H23.0837H23.0236H22.9631H22.903H22.8429H22.7828H22.7283H22.6681H22.608H22.5479H22.4875H22.4273H22.3672H22.307H22.2465V25.8859V25.9525V26.013V26.0735V26.14V26.2005V26.261V26.3275V26.388V26.4485V26.515V26.5755H22.307H22.3672H22.4273H22.4875H22.5479H22.608H22.6681H22.7283H22.7888H22.855H22.9151H22.9752H23.0357H23.0959H23.156H23.2161H23.2766H23.3367H23.3969H23.457H23.5171H23.5776H23.6377H23.6979H23.7579H23.8185H23.8786H23.9388H23.9989H24.0654H24.1256H24.1856H24.2458H24.3063H24.3664H24.4265H24.4867H24.5471H24.6073V26.636V26.6904V26.7509V26.8114V26.8719V26.9264V26.9868V27.0473V27.1018V27.1622V27.2227V27.2772V27.3373V27.3977V27.4582V27.5127V27.5732H24.5471ZM20.1473 27.5732H20.0872H20.027H19.9605H19.9004H19.8402H19.7801H19.7196H19.6595H19.5933H19.5332H19.473H19.4126H19.3524H19.2923H19.2261H19.1656H19.1055H19.0453V27.5127V27.4522V27.3917V27.3312V27.2704V27.2099V27.1494V27.0889V27.0284V26.968V26.9075V26.8467V26.7862V26.7256V26.6652V26.6047V26.5438V26.4833V26.4228V26.3624V26.3019V26.2414V26.1806V26.1201V26.0596V25.9991V25.9386V25.8781V25.8173V25.7567V25.6963V25.6358V25.5754V25.5149V25.454V25.3936V25.333V25.2726V25.2121V25.1512V25.0908V25.0302V24.9697L19.0152 25.0181L18.9792 25.0729L18.9489 25.1213L18.913 25.1698L18.8828 25.2241L18.8464 25.2726L18.8166 25.321L18.7863 25.3757L18.7504 25.4241L18.7201 25.4725L18.6839 25.5209L18.654 25.5757L18.6177 25.6241L18.5878 25.6725L18.5575 25.7269L18.5212 25.7756L18.4913 25.8241L18.4551 25.8784L18.4252 25.9269L18.3889 25.9753L18.359 26.03L18.3288 26.0785L18.2925 26.1269L18.2626 26.1813L18.2263 26.23L18.1964 26.2784L18.1602 26.3268L18.1299 26.3812L18.1 26.4299L18.0637 26.4784L18.0339 26.5328L17.9976 26.5812L17.9673 26.6296L17.9314 26.6844L17.9011 26.7328H17.8773L17.841 26.6783L17.8107 26.6296L17.7748 26.5751L17.7445 26.5267L17.7086 26.4724L17.6784 26.4236L17.6425 26.3691L17.6122 26.3207L17.5759 26.2663L17.546 26.2179L17.5097 26.1631L17.4799 26.1147L17.4436 26.0603L17.4133 26.0119L17.3774 25.9571L17.3471 25.9087L17.3112 25.8543L17.2749 25.8059L17.2447 25.7511L17.2087 25.7028L17.1785 25.6483L17.1425 25.5999L17.1123 25.5451L17.0764 25.4967L17.0461 25.4423L17.0098 25.3939L16.9799 25.3394L16.9436 25.2907L16.9138 25.2363L16.8775 25.1878L16.8472 25.1334L16.8113 25.0851L16.781 25.0302L16.7451 24.9819V25.0423V25.1028V25.1634V25.2241V25.2847V25.3451V25.4056V25.4661V25.5269V25.5875V25.6419V25.7024V25.7629V25.8233V25.8842V25.9447V26.0051V26.0656V26.1261V26.1866V26.2474V26.3079V26.3685V26.4289V26.4894V26.5499V26.6107V26.6712V26.7317V26.7922V26.8527V26.9135V26.968V27.0284V27.0889V27.1494V27.2099V27.2704V27.3312V27.3917V27.4522V27.5127V27.5732H16.685H16.6245H16.5643H16.5042H16.4441H16.3837H16.3235H16.2634H16.2032H16.1427H16.0826H16.0224H15.9623H15.9019H15.8418H15.7816H15.7214H15.6609H15.6008V27.5127V27.4522V27.3917V27.3316V27.271V27.2106V27.1501V27.0897V27.0292V26.9687V26.9082V26.8477V26.7872V26.7267V26.6662V26.6057V26.5453V26.4848V26.4303V26.3698V26.3094V26.2489V26.1884V26.1279V26.0674V26.0069V25.9464V25.8859V25.8255V25.765V25.7045V25.644V25.5835V25.523V25.4625V25.4021V25.3415V25.2811V25.2206V25.1601V25.0997V25.0395V24.979V24.9185V24.858V24.7975V24.7371V24.6766V24.6161V24.5556V24.4951V24.4346V24.3741V24.3137V24.2592V24.1988V24.1383V24.0777V24.0173V23.9568V23.8963V23.8358V23.7753V23.7148V23.6544V23.5939V23.5333V23.4729V23.4124V23.3519V23.2915V23.2309V23.1704H15.6609H15.7214H15.7756H15.8356H15.8958H15.9563H16.0104H16.0705H16.131H16.1911H16.2452H16.3053H16.3658H16.426H16.48H16.5401H16.6006H16.6608H16.7149H16.775H16.8355L16.8654 23.2189L16.8956 23.2732L16.9315 23.3213L16.9618 23.3757L16.992 23.4241L17.0219 23.4786L17.0521 23.5266L17.0882 23.5811L17.1183 23.6295L17.1486 23.6779L17.1785 23.7319L17.2087 23.7803L17.2447 23.8347L17.2749 23.8832L17.3051 23.9372L17.335 23.9856L17.3713 24.0339L17.4016 24.0881L17.4314 24.1364L17.4617 24.1909L17.4916 24.2393L17.5279 24.2934L17.5581 24.3418L17.588 24.3962L17.6182 24.4442L17.6481 24.4926L17.6844 24.547L17.7147 24.5955L17.7445 24.6499L17.7748 24.698L17.8047 24.7524L17.841 24.8008L17.8713 24.8548L17.9011 24.9033L17.9314 24.8548L17.9616 24.8008L17.9976 24.7524L18.0277 24.698L18.0577 24.6499L18.0879 24.5955L18.1239 24.547L18.1541 24.4926L18.1844 24.4442L18.2142 24.3962L18.2505 24.3418L18.2804 24.2934L18.3107 24.2393L18.3408 24.1909L18.3768 24.1364L18.407 24.0881L18.4373 24.0339L18.4671 23.9856L18.4975 23.9372L18.5334 23.8832L18.5636 23.8347L18.5938 23.7803L18.6238 23.7319L18.66 23.6779L18.69 23.6295L18.7201 23.5811L18.7504 23.5266L18.7863 23.4786L18.8166 23.4241L18.8464 23.3757L18.8767 23.3213L18.913 23.2732L18.9429 23.2189L18.9731 23.1704H19.0332H19.0934H19.1478H19.208H19.2681H19.3282H19.3827H19.4428H19.5029H19.5631H19.6175H19.6776H19.7377H19.7979H19.8523H19.9125H19.9726H20.0327H20.0872H20.1473H20.2074V23.2309V23.2915V23.3519V23.4124V23.4729V23.5333V23.5939V23.6544V23.7148V23.7753V23.8358V23.8963V23.9568V24.0173V24.0777V24.1383V24.1988V24.2592V24.3137V24.3741V24.4346V24.4951V24.5556V24.6161V24.6766V24.7371V24.7975V24.858V24.9185V24.979V25.0395V25.0997V25.1601V25.2206V25.2811V25.3415V25.4021V25.4625V25.523V25.5835V25.644V25.7045V25.765V25.8255V25.8859V25.9464V26.0069V26.0674V26.1279V26.1884V26.2489V26.3094V26.3698V26.4303V26.4848V26.5453V26.6057V26.6662V26.7267V26.7872V26.8477V26.9082V26.9687V27.0292V27.0897V27.1501V27.2106V27.271V27.3316V27.3917V27.4522V27.5127V27.5732H20.1473ZM13.1604 25.759L13.1422 25.7042L13.1184 25.6437L13.0942 25.5892L13.0761 25.5344L13.0522 25.48L13.0281 25.4195L13.0099 25.3647L12.9857 25.3102L12.9619 25.2559L12.9437 25.2011L12.9195 25.1406L12.9017 25.0861L12.8775 25.0313L12.8533 24.9769L12.8352 24.9224L12.8113 24.8616L12.7872 24.8071L12.769 24.7527L12.7448 24.698L12.721 24.6374L12.7028 24.5827L12.6786 24.5282L12.6548 24.5827L12.6367 24.6374L12.6125 24.698L12.5883 24.7527L12.5705 24.8071L12.5463 24.8616L12.5221 24.9224L12.4983 24.9769L12.48 25.0313L12.4559 25.0861L12.4317 25.1406L12.4139 25.2011L12.3897 25.2559L12.3655 25.3102L12.3474 25.3647L12.3235 25.4195L12.2993 25.48L12.2751 25.5344L12.2574 25.5892L12.2332 25.6437L12.209 25.7042L12.1908 25.759L12.167 25.8134H12.2271H12.2872H12.3474H12.4079H12.468H12.5281H12.5883H12.6488H12.7028H12.7629H12.8235H12.8836H12.9437H13.0039H13.064H13.1244H13.1845L13.1604 25.759ZM15.0515 27.5732H14.9911H14.9369H14.8768H14.8163H14.7562H14.696H14.642H14.5815H14.5213H14.4612H14.4011H14.3406H14.2865H14.2264H14.1662H14.1057H14.0456H13.9915H13.9314H13.871L13.8471 27.5187L13.8289 27.4643L13.8048 27.4098L13.7806 27.3494L13.7627 27.2953L13.7386 27.2409L13.7144 27.1864L13.6966 27.132L13.6724 27.0775L13.6482 27.0231L13.6301 26.9687L13.6062 26.9082L13.582 26.8538L13.5638 26.7993L13.5396 26.7449H13.4795H13.4194H13.3593H13.2992H13.2447H13.1845H13.1244H13.064H13.0039H12.9437H12.8836H12.8235H12.7629H12.7028H12.6488H12.5883H12.5281H12.468H12.4079H12.3474H12.2872H12.2271H12.167H12.1069H12.0524H11.9923H11.9321H11.8716H11.8115L11.7877 26.7993L11.7695 26.8538L11.7453 26.9082L11.7212 26.9687L11.7034 27.0231L11.6792 27.0775L11.655 27.132L11.6368 27.1864L11.613 27.2409L11.5888 27.2953L11.5707 27.3494L11.5468 27.4098L11.5226 27.4643L11.5045 27.5187L11.4802 27.5732H11.4201H11.36H11.2999H11.2394H11.1793H11.1131H11.053H10.9928H10.9323H10.8722H10.8121H10.7519H10.6914H10.6314H10.5713H10.5051H10.4445H10.3844H10.3243H10.2641L10.288 27.5187L10.3122 27.4643L10.3363 27.4098L10.3602 27.3494L10.3784 27.2953L10.4026 27.2409L10.4267 27.1864L10.4506 27.132L10.4748 27.0775L10.499 27.017L10.5228 26.9626L10.547 26.9082L10.5651 26.8538L10.5893 26.7993L10.6132 26.7449L10.6374 26.6844L10.6615 26.63L10.6854 26.5755L10.7096 26.5211L10.7338 26.4666L10.7519 26.4122L10.7757 26.3517L10.8 26.2973L10.8242 26.2428L10.848 26.1884L10.8722 26.1339L10.8964 26.0795L10.9203 26.019L10.9384 25.9646L10.9626 25.9102L10.9868 25.8557L11.0107 25.8013L11.0348 25.7468L11.059 25.6864L11.0829 25.6319L11.107 25.5775L11.1252 25.523L11.1494 25.4686L11.1732 25.4142L11.1974 25.3537L11.2216 25.2992L11.2455 25.2448L11.2696 25.1903L11.2938 25.136L11.312 25.0814L11.3359 25.0274L11.36 24.9669L11.3842 24.9125L11.4081 24.858L11.4322 24.8035L11.4564 24.7492L11.4802 24.6947L11.4984 24.6342L11.5226 24.5798L11.5468 24.5254L11.5707 24.4709L11.5949 24.4165L11.619 24.362L11.6429 24.3015L11.6671 24.2471L11.6852 24.1927L11.7094 24.1383L11.7332 24.0838L11.7574 24.0294L11.7816 23.9689L11.8054 23.9145L11.8297 23.86L11.8539 23.8056L11.8716 23.7512L11.8958 23.6967L11.9201 23.6362L11.9443 23.5818L11.9681 23.5273L11.9923 23.4729L12.0165 23.4184L12.0403 23.3641L12.0585 23.3035L12.0827 23.2491L12.1069 23.1946L12.1307 23.1402H12.1908H12.2453H12.3054H12.3655H12.426H12.48H12.5402H12.6003H12.6609H12.715H12.775H12.8352H12.8956H12.9498H13.0099H13.07H13.1305H13.1845H13.2447L13.2689 23.1946L13.2931 23.2491L13.317 23.3035L13.3411 23.3641L13.3593 23.4184L13.3831 23.4729L13.4073 23.5273L13.4315 23.5818L13.4557 23.6362L13.4795 23.6967L13.5037 23.7512L13.528 23.8056L13.5457 23.86L13.5699 23.9145L13.5941 23.9689L13.6184 24.0294L13.6422 24.0838L13.6663 24.1383L13.6906 24.1927L13.7144 24.2471L13.7325 24.3015L13.7567 24.362L13.7806 24.4165L13.8048 24.4709L13.8289 24.5254L13.8532 24.5798L13.877 24.6342L13.9011 24.6947L13.9193 24.7492L13.9432 24.8035L13.9673 24.858L13.9915 24.9125L14.0157 24.9669L14.0396 25.0274L14.0638 25.0814L14.0879 25.136L14.1057 25.1903L14.1299 25.2448L14.1541 25.2992L14.178 25.3537L14.2022 25.4142L14.2264 25.4686L14.2506 25.523L14.2744 25.5775L14.2926 25.6319L14.3167 25.6864L14.3406 25.7468L14.3648 25.8013L14.389 25.8557L14.4131 25.9102L14.437 25.9646L14.4612 26.019L14.4793 26.0795L14.5032 26.1339L14.5274 26.1884L14.5516 26.2428L14.5754 26.2973L14.5996 26.3517L14.6238 26.4122L14.6481 26.4666L14.6658 26.5211L14.69 26.5755L14.7142 26.63L14.7381 26.6844L14.7622 26.7449L14.7864 26.7993L14.8106 26.8538L14.8344 26.9082L14.8526 26.9626L14.8768 27.017L14.9007 27.0775L14.9248 27.132L14.949 27.1864L14.9728 27.2409L14.997 27.2953L15.0212 27.3494L15.0394 27.4098L15.0632 27.4643L15.0874 27.5187L15.1116 27.5732H15.0515ZM9.77601 27.011L9.72764 27.0473L9.68561 27.0775L9.63723 27.1138L9.58919 27.1441L9.54116 27.1804L9.49278 27.2106L9.44475 27.2409L9.3903 27.271L9.33619 27.3013L9.28208 27.3316L9.2277 27.3554L9.17359 27.3857L9.11348 27.4098L9.05944 27.434L8.99892 27.4582L8.94488 27.4824L8.8907 27.5006L8.83632 27.5187L8.78221 27.5369L8.7221 27.555L8.66806 27.5732L8.60754 27.5853L8.55343 27.5974L8.49332 27.6095L8.43287 27.6215L8.37269 27.6276L8.3065 27.6337L8.24639 27.6398L8.1802 27.6458L8.11968 27.6518L8.05356 27.6578H7.98738H7.92112H7.85501H7.79449L7.73437 27.6518L7.66819 27.6458L7.60807 27.6398L7.54796 27.6337L7.48744 27.6276L7.42733 27.6155L7.36715 27.6034L7.3131 27.5913L7.25265 27.5792L7.19854 27.5611L7.13843 27.549L7.08398 27.5308L7.02988 27.5066L6.97577 27.4885L6.91572 27.4643L6.86127 27.4401L6.80717 27.416L6.75312 27.3917L6.69861 27.3615L6.65064 27.3316L6.59653 27.3013L6.54816 27.271L6.50012 27.2409L6.45175 27.2045L6.40371 27.1683L6.3556 27.132L6.3133 27.0957L6.27134 27.0594L6.22897 27.017L6.187 26.9808L6.14463 26.9384L6.10267 26.8961L6.06637 26.8538L6.03041 26.8054L5.99411 26.763L5.96389 26.7146L5.92793 26.6662L5.89777 26.6179L5.86781 26.5694L5.83759 26.515L5.80736 26.4666L5.78355 26.4122L5.75932 26.3577L5.73517 26.3033L5.71129 26.2489L5.69314 26.2005L5.66892 26.146L5.65684 26.0916L5.63903 26.0372L5.62695 25.9767L5.60881 25.9222L5.59673 25.8618L5.59066 25.8073L5.57851 25.7468L5.57257 25.6924L5.56643 25.6319L5.56077 25.5714L5.55476 25.5109V25.4444V25.3839V25.3718V25.3113L5.56077 25.2448V25.1843L5.56643 25.1238L5.57257 25.0573L5.58465 24.9972L5.59066 24.9367L5.60273 24.8822L5.62088 24.8218L5.63302 24.7612L5.65077 24.7068L5.66892 24.6463L5.68707 24.5919L5.71129 24.5314L5.73517 24.477L5.75932 24.4226L5.78355 24.3681L5.80736 24.3137L5.83759 24.2592L5.86781 24.2108L5.89777 24.1624L5.92793 24.114L5.95822 24.0657L5.99411 24.0173L6.03041 23.9689L6.06637 23.9205L6.10267 23.8781L6.14463 23.8358L6.18093 23.7934L6.22296 23.7512L6.26526 23.7088L6.30723 23.6725L6.3556 23.6302L6.39764 23.5939L6.44567 23.5576L6.49405 23.5273L6.54208 23.491L6.59053 23.4608L6.6385 23.4306L6.69261 23.4003L6.74705 23.3701L6.80109 23.3398L6.8552 23.3156L6.90958 23.2915L6.96976 23.2612L7.0178 23.2431L7.07791 23.2249L7.13243 23.2007L7.18647 23.1886L7.24051 23.1704L7.30096 23.1584L7.35507 23.1402L7.41518 23.1281L7.47536 23.1221L7.53582 23.11L7.596 23.1039L7.65604 23.0979L7.71622 23.0918L7.77674 23.0858H7.84293H7.90304H7.96916H8.03535L8.10194 23.0918L8.16812 23.0979H8.22824L8.28835 23.1039L8.35454 23.116L8.40898 23.1221L8.4691 23.1342L8.52928 23.1463L8.58366 23.1584L8.6377 23.1704L8.69187 23.1826L8.74632 23.2007L8.80036 23.2128L8.8484 23.2309L8.90285 23.2491L8.95695 23.2732L9.011 23.2975L9.06544 23.3217L9.11955 23.3519L9.17359 23.3761L9.22204 23.4064L9.27608 23.4366L9.32411 23.4668L9.37856 23.4971L9.4266 23.5333L9.47463 23.5636L9.52301 23.5999L9.57105 23.6362L9.61942 23.6785L9.66746 23.7148L9.63116 23.7633L9.58919 23.8056L9.5529 23.8539L9.51093 23.9023L9.47463 23.9508L9.43867 23.9931L9.3963 24.0414L9.36041 24.0898L9.32411 24.1322L9.28208 24.1806L9.24585 24.229L9.20382 24.2774L9.16752 24.3197L9.13163 24.3681L9.08933 24.4165L9.0533 24.4649L9.011 24.5072L8.97504 24.5556L8.92666 24.5193L8.87862 24.477L8.83025 24.4467L8.78221 24.4104L8.73418 24.3802L8.6858 24.3499L8.6377 24.3197L8.58366 24.2894L8.53528 24.2653L8.48725 24.2411L8.43887 24.2229L8.38476 24.2048L8.33072 24.1866L8.27627 24.1745L8.21616 24.1624L8.15605 24.1503L8.09586 24.1443L8.02968 24.1383L7.96316 24.1322H7.89697H7.83686L7.77674 24.1383L7.7223 24.1443L7.66218 24.1564L7.60807 24.1685L7.55363 24.1866L7.49959 24.2048L7.44548 24.229L7.39137 24.2531L7.34299 24.2834L7.29502 24.3137L7.24658 24.344L7.20462 24.3802L7.16225 24.4165L7.12028 24.4528L7.08398 24.4951L7.04202 24.5375L7.00572 24.5858L6.97577 24.6282L6.94554 24.6766L6.91572 24.731L6.88543 24.7794L6.86127 24.8338L6.84312 24.8883L6.81924 24.9427L6.80109 25.0032L6.78902 25.0634L6.77694 25.1177L6.7648 25.1843L6.75879 25.2448L6.75312 25.3052V25.3718V25.3839V25.4444L6.75879 25.5049L6.7648 25.5593L6.77087 25.6198L6.78294 25.6742L6.79509 25.7287L6.80717 25.7831L6.82531 25.8376L6.84312 25.8859L6.86735 25.9464L6.8915 26.0009L6.92139 26.0553L6.95161 26.1037L6.98184 26.1521L7.0178 26.2005L7.0541 26.2428L7.09606 26.2852L7.13243 26.3275L7.17432 26.3638L7.22277 26.4001L7.2708 26.4364L7.31877 26.4666L7.36715 26.4969L7.42132 26.5211L7.47536 26.5453L7.52974 26.5694L7.58992 26.5876L7.65004 26.6057L7.71056 26.6179L7.77067 26.63L7.83078 26.636L7.89697 26.642H7.96316H8.03535L8.10194 26.636L8.16812 26.63L8.22824 26.6239L8.28835 26.6118L8.34887 26.5997L8.40898 26.5816L8.46302 26.5694L8.5172 26.5453L8.56557 26.5211L8.61962 26.4969L8.66192 26.4727L8.71002 26.4424V26.382V26.3215V26.261V26.2005V26.1339V26.0735V26.013V25.9525V25.892H8.64984H8.59546H8.53528H8.47517H8.41505H8.36061H8.30043H8.24031H8.1802H8.12582H8.06564H8.00553H7.94534H7.89097H7.83078V25.8316V25.7771V25.7166V25.6561V25.5956V25.5412V25.4807V25.4202V25.3598V25.3052V25.2448V25.1843V25.1238V25.0694V25.0093H7.89097H7.95142H8.0116H8.07164H8.13183H8.19194H8.25246H8.31257H8.37269H8.43287H8.49332H8.55343H8.61354H8.67366H8.73418H8.79436H8.85447H8.91458H8.97504H9.03522H9.09533H9.15544H9.2159H9.27608H9.33619H9.3963H9.45682H9.51694H9.57712H9.63723H9.69768H9.7578H9.81798V25.0694V25.1298V25.1903V25.2448V25.3052V25.3658V25.4262V25.4867V25.5472V25.6016V25.6621V25.7227V25.7831V25.8436V25.9041V25.9646V26.019V26.0795V26.14V26.2005V26.261V26.3215V26.382V26.4364V26.4969V26.5574V26.6179V26.6783V26.7388V26.7933V26.8538V26.9142V26.9747L9.77601 27.011Z" fill="white"/>
</g>
<g id="g30">
<path id="path32" d="M7.83932 13.2087H10.4492V11.1899H7.83932V7.06856H10.5531V5.0498H5.62308V19.6195H10.5944V17.6007H7.83932V13.2087Z" fill="white"/>
</g>
<g id="g34">
<path id="path36" d="M26.533 13.6461V16.9347C26.533 17.5176 26.2636 17.788 25.7046 17.788H25.2901C24.7102 17.788 24.4408 17.5176 24.4408 16.9347V7.73472C24.4408 7.15194 24.7102 6.88153 25.2901 6.88153H25.663C26.2223 6.88153 26.4917 7.15194 26.4917 7.73472V10.5865H28.6664V7.60984C28.6664 5.79921 27.7964 4.92496 25.9946 4.92496H24.9172C23.1155 4.92496 22.2245 5.81985 22.2245 7.63082V17.0386C22.2245 18.8497 23.1155 19.7445 24.9172 19.7445H26.0152C27.8174 19.7445 28.7079 18.8497 28.7079 17.0386V13.6461H26.533Z" fill="white"/>
</g>
<path id="path38" d="M18.8366 19.6195H21.0532V5.04973H18.8366V19.6195Z" fill="white"/>
<g id="g40">
<path id="path42" d="M15.6204 11.5228C15.6204 12.1057 15.3515 12.3764 14.7921 12.3764H13.8806V7.00629H14.7921C15.3515 7.00629 15.6204 7.27677 15.6204 7.85949V11.5228ZM15.1441 5.04973H11.6643V19.6195H13.8806V14.3326H15.1441C16.9462 14.3326 17.8368 13.4378 17.8368 11.6272V7.75559C17.8368 5.94462 16.9462 5.04973 15.1441 5.04973Z" fill="white"/>
</g>
<g id="g44">
<path id="path46" fill-rule="evenodd" clip-rule="evenodd" d="M10.8516 32.7935H23.5392L17.0632 34.9291L10.8516 32.7935Z" fill="white"/>
</g>
</g>
</g>
</g>
</g>
</g>
</g>
<defs>
<clipPath id="clip0_48_1310">
<rect width="32.7471" height="38" fill="white" transform="translate(0.791992)"/>
</clipPath>
</defs>
</svg>
