<svg width="170" height="38" viewBox="0 0 170 38" fill="none" xmlns="http://www.w3.org/2000/svg">
<g clip-path="url(#clip0_48_2054)">
<path d="M120.417 2.98889C121.061 5.65254 121.207 7.23317 121.412 14.9314C121.5 19.7904 121.646 23.859 121.676 23.859C121.676 23.8883 122.056 24.0346 122.525 24.1224C123.666 24.4152 123.578 25.2933 122.203 26.6105L121.061 27.7228V31.967C121.061 35.743 121.003 36.182 120.534 36.0064C120.095 35.8308 120.037 35.9771 120.154 36.5918C120.241 37.0602 120.183 37.6163 120.066 37.8505C119.861 38.1139 119.773 37.8505 119.773 37.0602C119.773 36.4162 119.949 35.743 120.095 35.6552C120.359 35.4795 120.329 35.3039 120.066 34.9527C119.861 34.6892 119.773 34.3965 119.89 34.2502C119.978 34.1623 120.095 34.2502 120.095 34.4843C120.095 34.7185 120.154 34.8356 120.271 34.7478C120.505 34.5429 119.48 32.5232 119.129 32.5232C119.012 32.5232 118.69 32.9622 118.485 33.5184C118.251 34.0453 117.9 34.5136 117.695 34.5136C117.49 34.5136 117.578 34.6892 117.812 34.8648C118.193 35.1283 118.134 35.1576 117.578 34.9819C117.11 34.8648 116.817 34.9234 116.817 35.1576C116.817 35.3624 116.7 35.421 116.495 35.3332C116.29 35.2161 116.173 35.5673 116.173 36.1235C116.173 36.7089 115.997 37.148 115.792 37.148C115.5 37.148 115.324 36.2406 115.265 33.8111C115.207 31.4402 115.295 30.5913 115.558 30.7377C115.822 30.9133 115.822 30.7669 115.558 30.2693C115.353 29.9181 115.207 29.0985 115.207 28.4838C115.207 27.6642 114.943 27.1081 114.212 26.4056C112.982 25.264 112.895 24.2688 113.978 24.2688C114.973 24.2688 116.524 22.6589 116.524 21.6344C116.524 20.9026 116.495 20.8734 115.88 21.4588C114.885 22.3369 114.768 21.8393 115.705 20.9612C116.173 20.5221 116.524 19.8196 116.524 19.3806C116.524 18.5903 116.495 18.5903 115.939 19.0879C114.943 19.9953 114.68 19.7025 115.617 18.7366C116.612 17.6829 117.168 15.7217 116.231 16.4535C115.148 17.4194 114.739 17.4194 115.646 16.4535C116.173 15.8681 116.524 15.1363 116.524 14.5509V13.6435L115.646 14.4338L114.739 15.2241L115.646 14.1996C116.173 13.6142 116.524 12.8239 116.524 12.2678C116.524 11.3896 116.495 11.3896 115.939 11.8872C115.09 12.6483 115.031 12.619 115.031 11.1847C114.943 7.20389 115.822 4.07191 117.666 1.93514C118.046 1.49608 118.163 1.23264 117.9 1.40827C117.607 1.58389 117.519 1.52535 117.666 1.32045C117.783 1.08629 118.134 0.939933 118.397 0.939933C118.661 0.939933 118.836 0.82285 118.719 0.647225C118.544 0.383787 118.954 0.061808 119.539 0.00326627C119.568 -0.0260046 119.978 1.34973 120.417 2.98889Z" fill="#E77817"/>
<path d="M80.7552 4.54018C81.0186 4.56945 81.1064 5.76956 81.0771 8.22831L81.0479 11.8872L76.3645 11.8579L71.6519 11.7994V17.4194H80.5503V24.6493H71.6519V29.918L74.2278 29.9473C75.6035 29.9473 77.7403 29.9473 78.9989 29.918L81.1942 29.8887V31.7913C81.165 33.6354 81.165 33.6647 80.6088 33.05C79.5843 31.9084 78.033 32.0548 77.8573 33.3134C77.7988 33.6939 77.5354 34.0745 77.2719 34.0745C77.0085 34.1037 76.5694 34.133 76.3938 34.1623C76.1596 34.1623 75.9547 34.4843 75.9547 34.8648C75.9547 35.3917 75.7498 35.4795 74.7254 35.4502C74.0521 35.4209 73.4375 35.5966 73.3789 35.7722C73.1447 36.4747 72.7642 36.2112 72.5593 35.216C72.3544 34.3672 72.2666 34.3086 70.9494 34.3672C70.1591 34.3964 69.1932 34.6013 68.7834 34.8355C68.1394 35.1868 67.9345 35.1575 67.6418 34.7477C67.3784 34.4257 66.9979 34.2794 66.5295 34.4257C65.9441 34.6013 65.7685 34.8941 65.7685 35.7429C65.7685 36.3283 65.6514 36.9137 65.4465 37.0308C65.2709 37.1186 65.1245 37.0016 65.1245 36.7088C65.1245 36.3576 64.9489 36.2112 64.6562 36.3283C63.9537 36.5918 63.8952 35.1575 63.8952 19.0585L63.8366 4.59872L68.0809 4.62799C70.4226 4.62799 72.2373 4.74508 72.1495 4.9207C72.0617 5.03779 72.1203 5.24268 72.3252 5.38904C72.5008 5.47685 72.6471 5.38904 72.6471 5.15487C72.6471 4.80362 73.3496 4.68654 75.4864 4.65726C77.0378 4.62799 78.355 4.56945 78.4135 4.48164C78.472 4.4231 78.9696 4.39383 79.4672 4.4231C79.9648 4.48164 80.5503 4.54018 80.7552 4.54018ZM98.6104 4.68654C102.855 4.71581 103.85 4.80362 104.201 5.21341C104.552 5.68174 104.582 5.68174 104.435 5.21341C104.26 4.77435 104.552 4.68654 106.074 4.62799C107.07 4.59872 107.889 4.68654 107.919 4.83289C108.006 6.00372 108.036 10.8334 107.948 11.2432C107.831 11.7408 107.245 11.8286 103.147 11.8872L98.4933 11.975V17.2437L102.708 17.3315L106.894 17.4194V24.6493L103.704 24.62C101.918 24.5907 100.015 24.5907 99.4885 24.5907L98.4933 24.62L98.5518 29.4204C98.6104 33.3427 98.5518 34.2794 98.1713 34.7184C97.9079 34.9819 97.7323 35.3331 97.8493 35.5087C98.0542 35.7722 97.5859 35.9478 96.9712 35.8307C96.7956 35.8307 96.7078 35.9478 96.7078 36.1234C96.7078 36.3283 96.4151 36.4454 96.0638 36.4454C95.5369 36.4454 95.4199 36.2112 95.3613 35.1868C95.332 34.5428 95.332 33.8696 95.3613 33.6939C95.3906 33.5769 94.9808 33.372 94.3954 33.2256C93.8392 33.1378 93.4002 32.8744 93.4294 32.6695C93.5465 31.5864 93.3416 30.8254 92.9026 30.8254C92.6099 30.8254 92.3171 30.5912 92.2001 30.3278C92.083 30.0644 91.7317 29.8302 91.4098 29.8302C91.0878 29.8302 90.7658 29.5375 90.6487 29.1277C90.5609 28.7764 90.4731 23.0979 90.5316 16.5412L90.5902 4.62799L91.7317 4.4231C92.3464 4.33529 93.0196 4.33529 93.1367 4.39383C93.3124 4.56945 95.7711 4.65726 98.6104 4.68654ZM1.89951 4.77435C1.89951 4.86216 1.72388 5.24268 1.57753 5.59393C1.31409 6.03299 1.34336 6.20862 1.57753 6.20862C2.13367 6.20862 2.95326 7.17456 2.71909 7.52581C2.63128 7.70143 2.36784 7.84779 2.19221 7.84779C1.98732 7.84779 1.95805 7.67216 2.1044 7.46727C2.25076 7.2331 2.19221 7.20383 1.92878 7.35018C1.72388 7.46727 1.63607 7.7307 1.72388 7.90633C1.84096 8.08195 1.75315 8.19904 1.54826 8.19904C1.34336 8.19904 1.28482 8.37466 1.43117 8.55029C1.54826 8.81373 1.72388 8.78445 1.92878 8.49175C2.19221 8.05268 2.36784 8.31612 2.25076 8.96008C2.22148 9.1357 2.33857 9.16498 2.54346 9.01862C2.74836 8.93081 2.8069 8.69664 2.74836 8.55029C2.66055 8.4332 2.74836 8.11122 2.92399 7.84779C3.18742 7.40872 3.27524 7.46727 3.59721 7.90633C3.77284 8.22831 4.09482 8.49175 4.29972 8.49175C4.53388 8.49175 4.2119 7.96487 3.56794 7.35018C2.66055 6.38424 2.54346 6.12081 2.92399 5.71102C3.18742 5.38904 3.21669 5.21341 2.95326 5.21341C2.74836 5.21341 2.60201 5.38904 2.60201 5.56466C2.60201 5.74029 2.42638 5.79883 2.28003 5.68174C2.07513 5.56466 2.1044 5.33049 2.36784 5.03779C2.68982 4.71581 4.59242 4.59872 10.5929 4.56945L18.4083 4.54018V11.7701H8.80743V17.3608H17.3545V24.6493L13.1688 24.5907H8.98305L8.95378 29.3619C8.92451 31.9962 8.77815 34.3086 8.69034 34.4843C8.57326 34.6892 8.10492 34.777 7.63659 34.7184C6.90482 34.6013 6.87555 34.6599 7.05117 35.4209C7.2268 36.0063 7.13899 36.2112 6.87555 36.0356C6.67065 35.8893 6.5243 35.9771 6.5243 36.1234C6.5243 36.8845 5.93888 36.4454 5.76326 35.5966C5.55836 34.5135 5.79253 33.7818 6.3194 34.0745C6.5243 34.1623 6.37795 33.9867 6.02669 33.6061C5.64617 33.2256 5.06076 33.0207 4.65097 33.1085C4.00701 33.2256 3.88992 33.1085 3.88992 32.0841C3.88992 31.2937 3.7143 30.8547 3.33378 30.7376C2.8069 30.5327 2.3093 30.2693 1.81169 30.0058L0.904297 29.5668V17.2437C0.933568 10.4822 1.02138 4.86216 1.13846 4.77435C1.4019 4.51091 1.89951 4.51091 1.89951 4.77435ZM23.4721 5.1256C23.3843 5.35977 23.4428 5.56466 23.5892 5.56466C23.7648 5.56466 23.9405 5.35977 24.0575 5.09633C24.2332 4.71581 25.2284 4.62799 29.6775 4.74508C36.1757 4.86216 37.8441 5.30122 39.8931 7.35018C42.0298 9.45768 42.8201 11.4774 42.8201 14.6679C42.8494 16.951 42.7031 17.6243 41.8249 19.4683C40.7712 21.6929 39.3955 23.0686 37.5221 23.7126C36.7025 24.0053 36.5269 24.1809 36.7611 24.5907C37.0831 25.1761 39.8931 29.1277 41.0932 30.7083C41.8249 31.6157 41.8249 31.6743 41.181 32.0841C40.859 32.3182 40.3614 32.6695 40.1565 32.8744C39.8345 33.1378 39.7174 33.1085 39.7174 32.7573C39.7174 32.4646 39.4833 32.3768 39.0735 32.4646C38.6051 32.5817 38.4003 32.4646 38.4003 32.1426C38.4003 31.5572 37.8148 31.2937 36.9953 31.5279C36.4976 31.645 36.4098 31.9084 36.4976 32.7866C36.5562 33.4012 36.4976 33.8988 36.3806 33.8988C36.2635 33.8988 36.1171 33.6647 36.1171 33.4012C36.1171 33.1378 35.9122 32.9036 35.7366 32.9036C35.239 32.9036 34.478 31.4108 34.478 30.5327C34.478 29.8009 33.8633 29.7424 33.7755 30.4449C33.6876 31.4401 33.6584 31.5572 33.2779 31.9377C33.0144 32.2011 32.429 31.4401 31.0825 29.1862C30.0288 27.4885 29.2092 25.9372 29.2092 25.7323C29.2092 25.5567 29.0336 25.2932 28.858 25.2054C28.6238 25.0298 28.536 26.347 28.5945 29.5375C28.6238 32.0841 28.5652 34.3086 28.4189 34.5135C28.2433 34.777 27.9798 34.8062 27.6286 34.6013C27.3359 34.4843 26.8968 34.3964 26.7212 34.4843C26.5456 34.5721 26.2529 34.2794 26.165 33.8696C26.048 33.4891 25.8723 33.2549 25.7845 33.3427C25.6382 33.4598 25.2869 33.2842 24.9357 32.9036C24.2332 32.2011 23.5892 32.1133 22.6233 32.6402C22.272 32.8158 21.7159 32.8744 21.3353 32.7866C20.7499 32.5817 20.7207 32.0841 20.7207 18.8829C20.7207 11.331 20.7792 5.09633 20.8377 4.94997C20.8963 4.83289 21.5695 4.74508 22.3306 4.74508C23.2672 4.71581 23.5892 4.83289 23.4721 5.1256ZM61.7877 8.19904V11.8286H52.421L52.4795 13.2044C52.5088 13.9947 52.5381 15.2533 52.5381 16.0144L52.5673 17.4194H61.4657V24.6493H52.5673V30.1229L57.1336 30.0351L61.6706 29.9473L61.8755 31.5279C61.9633 32.3768 61.9047 33.1963 61.7584 33.4012C61.5535 33.5769 61.4657 33.4598 61.4657 33.1378C61.4657 32.4646 60.3241 31.967 59.4167 32.1719C59.0655 32.2304 58.8313 32.6402 58.8313 33.0793C58.8313 33.9867 58.2166 34.455 57.8068 33.8403C57.6019 33.5183 57.5141 33.4891 57.5141 33.7818C57.5141 34.0159 57.3092 34.2208 57.0458 34.2208C56.7531 34.2208 56.6653 34.455 56.7531 34.9233C56.9287 35.5087 56.8409 35.5966 56.2262 35.3917C55.7579 35.2746 55.2017 35.3624 54.6748 35.7136C53.6211 36.4161 53.3869 36.2405 53.2698 34.6892C53.2406 34.3379 53.0357 34.2501 52.5673 34.3964C52.1283 34.5135 51.8356 34.4257 51.7185 34.0745C51.5429 33.6354 51.455 33.6354 51.1331 34.0159C50.9282 34.2794 50.3135 34.6306 49.7281 34.8355C48.9085 35.0989 48.645 35.0989 48.4987 34.6892C48.3816 34.3672 48.0596 34.2501 47.6206 34.3964C47.1815 34.5428 46.7132 34.3964 46.2448 34.0159C45.5131 33.4305 45.5131 33.4305 46.1278 34.1037C46.6839 34.8062 46.9181 36.7088 46.4205 37.0016C46.3034 37.0601 45.8936 36.943 45.5423 36.6796C44.9276 36.2112 44.8984 35.7136 44.7813 20.4635L44.6935 4.68654L53.2698 4.65726L61.8169 4.62799L61.7877 8.19904ZM28.5652 15.4289V19.3805L29.6483 19.3512C32.6339 19.2927 34.6536 17.7706 34.595 15.5753C34.5365 12.7653 33.1608 11.5066 30.2044 11.5066H28.5652V15.4289ZM145.063 5.47685C148.166 6.85258 150.01 9.22352 150.625 12.5311C150.976 14.6094 150.683 17.595 149.893 19.439C149.278 20.9904 147.259 22.9515 145.649 23.654L144.361 24.1809L147.024 27.9569L149.717 31.7035L148.751 32.4646C147.668 33.3427 147.259 33.4305 147.581 32.6987C147.756 32.2304 147.668 32.2011 147.054 32.5231C146.673 32.7573 146.439 33.05 146.527 33.2549C146.644 33.4305 146.585 33.5476 146.41 33.5476C146.205 33.5476 146.146 33.1671 146.293 32.5524C146.468 31.645 146.41 31.5572 145.473 31.5572C144.536 31.5572 144.449 31.6157 144.566 32.6987C144.653 34.0745 144.273 34.0452 143.512 32.6987C143.219 32.1426 142.839 31.645 142.722 31.6157C142.546 31.5572 142.458 31.1181 142.458 30.6498C142.458 29.6253 141.697 29.8009 141.639 30.8254C141.521 32.6987 140.877 32.2011 138.741 28.513L136.545 24.7956V29.8595C136.545 34.5428 136.516 34.8941 135.989 34.6599C135.667 34.5428 135.14 34.4257 134.848 34.4257C134.526 34.4257 134.262 34.2208 134.262 33.9574C134.262 33.6939 134.028 33.4891 133.765 33.4891C133.53 33.4891 133.179 33.2549 133.004 32.9914C132.887 32.6987 132.243 32.4353 131.628 32.3475C130.106 32.1426 129.316 32.9036 129.316 34.5428C129.316 35.2453 129.198 35.8014 128.994 35.8014C128.642 35.8014 128.496 5.1256 128.876 4.77435C128.994 4.68654 132.36 4.59872 136.37 4.68654C142.809 4.77435 143.746 4.86216 145.063 5.47685ZM154.547 4.97924C154.84 5.27195 154.927 5.27195 154.927 4.97924C154.927 4.71581 155.571 4.59872 156.889 4.59872C158.499 4.59872 158.791 4.68654 158.674 5.09633C158.557 5.41831 158.674 5.59393 158.996 5.59393C159.289 5.59393 159.611 5.35977 159.728 5.09633C159.991 4.45237 160.518 4.48164 160.518 5.15487C160.518 5.65247 160.547 5.65247 161.104 5.15487C161.835 4.51091 163.182 4.4231 163.738 4.97924C163.972 5.21341 164.119 5.24268 164.119 5.03779C164.119 4.83289 165.26 4.71581 166.929 4.71581H169.739V12.0042L165.143 11.9164L160.547 11.8286V17.4486H169.446V24.6785H160.547V30.1229L165.114 30.0351L169.651 29.9473L169.856 31.5279C170.061 33.3134 169.885 33.6939 169.299 32.8451C168.509 31.7913 166.811 32.2597 166.811 33.5183C166.811 34.2501 166.724 34.3086 165.963 34.133C165.26 33.9281 165.084 34.0452 164.938 34.6013C164.821 35.0989 164.558 35.2453 164.031 35.1868C163.65 35.1575 162.948 35.3624 162.45 35.6844C161.952 36.0063 161.543 36.1527 161.484 36.0063C161.484 35.8307 161.426 35.5673 161.396 35.4209C161.338 35.216 161.309 34.8941 161.279 34.6599C161.25 34.3672 160.752 34.2794 159.611 34.3086C158.733 34.3672 157.972 34.5135 157.972 34.6306C157.972 35.0989 156.83 35.1282 156.45 34.6599C156.215 34.3672 155.864 34.2794 155.396 34.3964C154.84 34.6013 154.664 34.8941 154.664 35.7722C154.664 36.8845 154.342 37.1186 153.259 36.6796C152.82 36.5039 152.761 34.455 152.732 21.8685C152.703 11.6237 152.761 7.26237 153.025 7.26237C153.259 7.26237 153.288 7.05747 153.025 6.64768C152.439 5.50612 152.644 4.62799 153.464 4.62799C153.815 4.56945 154.313 4.74508 154.547 4.97924ZM136.516 15.4875V19.4976L138.419 19.2634C141.639 18.9122 143.19 16.951 142.429 14.1703C141.931 12.3555 140.614 11.5066 138.243 11.5066H136.487V15.4875H136.516Z" fill="black"/>
</g>
<defs>
<clipPath id="clip0_48_2054">
<rect width="169.039" height="38" fill="white" transform="translate(0.904297)"/>
</clipPath>
</defs>
</svg>
