<svg width="94" height="38" viewBox="0 0 94 38" fill="none" xmlns="http://www.w3.org/2000/svg">
<g id="Logos" clip-path="url(#clip0_48_1308)">
<g id="hbo-logo-blk">
<path id="Fill-15" fill-rule="evenodd" clip-rule="evenodd" d="M27.9919 37.779H17.8966V23.3344H11.3433V37.779H0.936981V0.550293H11.3433V14.399H17.8966V0.550293H27.9919V37.779Z" fill="black"/>
<path id="Fill-16" fill-rule="evenodd" clip-rule="evenodd" d="M74.2422 26.3404C78.3387 26.3404 81.6597 23.0118 81.6597 18.9047C81.6597 14.7986 78.3387 11.4695 74.2422 11.4695C70.1452 11.4695 66.8246 14.7986 66.8246 18.9047C66.8246 23.0118 70.1452 26.3404 74.2422 26.3404ZM64.8065 18.9047C64.8065 13.6813 69.0308 9.44648 74.2422 9.44648C79.4535 9.44648 83.6785 13.6813 83.6785 18.9047C83.6785 24.1289 79.4535 28.3636 74.2422 28.3636C69.0308 28.3636 64.8065 24.1289 64.8065 18.9047ZM51.6678 18.9047C52.8353 18.7564 54.7816 17.4183 55.4672 16.5642C55.2263 17.6233 55.2078 20.6885 55.4895 21.7476C54.7069 20.5399 52.8541 19.0534 51.6678 18.9047ZM44.8843 8.89132C46.3671 8.89132 47.5348 10.3586 47.5348 12.0309C47.5348 13.7031 46.3671 15.1713 44.8843 15.1713H39.7876V8.89132H44.8843ZM44.8656 22.8435C46.3483 22.8435 47.5162 24.3115 47.5162 25.9832C47.5162 27.6556 46.3483 29.1231 44.8656 29.1231H39.769V22.8435H44.8656ZM74.236 37.9623C84.6211 37.9583 93.0723 29.3088 93.07 18.8973C93.0679 8.26627 84.6211 0.00787911 74.236 5.5029e-06C63.863 -0.00749112 58.5628 7.64652 57.2532 10.7359C57.2655 6.09815 52.7053 0.623969 47.3712 0.618114H30.1855V37.7773L46.2084 37.7804C52.6685 37.7804 57.2653 32.1694 57.2731 27.3579C58.7477 30.386 63.863 37.9659 74.236 37.9623Z" fill="black"/>
</g>
</g>
<defs>
<clipPath id="clip0_48_1308">
<rect width="92.2085" height="38" fill="white" transform="translate(0.937012)"/>
</clipPath>
</defs>
</svg>
