<svg width="67" height="38" viewBox="0 0 67 38" fill="none" xmlns="http://www.w3.org/2000/svg">
<g id="Logos" clip-path="url(#clip0_48_2057)">
<g id="Group">
<path id="Vector" fill-rule="evenodd" clip-rule="evenodd" d="M4.67308 22.1412C4.97345 22.3577 5.30611 22.5254 5.65878 22.6382C6.35669 22.8585 7.10553 22.8584 7.80336 22.6378C8.15798 22.5255 8.49263 22.3579 8.79495 22.1412C9.09977 21.9217 9.36773 21.6552 9.58878 21.3515C10.0216 20.7534 10.2542 20.0336 10.2531 19.2952C10.2531 18.9326 10.1983 18.5683 10.0868 18.2178C9.85911 17.5002 9.40668 16.8748 8.79634 16.4341C8.4944 16.2166 8.15981 16.0485 7.80509 15.936C7.10611 15.7146 6.35576 15.7144 5.6567 15.9357C4.94164 16.1647 4.31927 16.6178 3.88168 17.2279C3.66481 17.5301 3.49718 17.8648 3.38502 18.2195C3.27419 18.57 3.21946 18.9337 3.21946 19.2952C3.21946 19.6568 3.27384 20.0167 3.38467 20.3641C3.61253 21.0792 4.06421 21.7022 4.67308 22.1412ZM12.2937 2.06763H1.16528L6.74112 14.7003L12.2937 2.06763Z" fill="black"/>
<path id="Vector_2" fill-rule="evenodd" clip-rule="evenodd" d="M15.8251 32.5159C15.8247 32.8588 15.7571 33.1983 15.6263 33.5152C15.3607 34.1544 14.8527 34.6624 14.2135 34.9279C13.8966 35.0587 13.5571 35.1261 13.2143 35.1264H12.6851C12.3436 35.1264 12.0017 35.0585 11.6859 34.9279C11.0465 34.6625 10.5385 34.1545 10.2731 33.5152C10.1423 33.1983 10.0749 32.8588 10.0747 32.5159L10.0702 26.5948L4.04755 26.5865V31.0568C4.04755 31.9659 4.22903 32.8755 4.57607 33.7153C4.92563 34.5581 5.43742 35.324 6.08233 35.9694C6.72765 36.6141 7.49339 37.1258 8.33601 37.4753C9.17912 37.8236 10.0823 38.0033 10.9946 38.0042H14.7181C15.6273 38.0042 16.5365 37.8227 17.3767 37.4753C18.2193 37.1258 18.9851 36.6142 19.6304 35.9694C20.2754 35.324 20.7871 34.5582 21.1366 33.7153C21.4848 32.8722 21.6644 31.969 21.6652 31.0568V2.09426L15.8223 2.10257L15.8251 32.5159ZM60.3379 26.5948L60.333 31.852C60.333 32.1935 60.2648 32.5357 60.1349 32.8512C60.0034 33.1678 59.811 33.4555 59.5686 33.698C59.3264 33.9406 59.0386 34.1329 58.7218 34.264C58.4049 34.3949 58.0655 34.4624 57.7226 34.4628H57.1937C56.8509 34.4624 56.5114 34.3948 56.1945 34.264C55.8777 34.1329 55.59 33.9406 55.3477 33.698C55.1063 33.4566 54.912 33.1667 54.7814 32.8512C54.6508 32.5357 54.5826 32.1938 54.5826 31.852L54.5854 2.10257L48.7429 2.09426L48.7449 37.2588H65.958L65.9629 26.5865L60.3379 26.5948ZM43.8739 21.3265C43.5854 20.6435 43.1661 20.0234 42.6396 19.5013C42.1477 19.0135 41.5573 18.6366 40.9078 18.3957C41.4482 18.1364 41.9442 17.7935 42.3777 17.3796C42.8193 16.9601 43.2089 16.4631 43.4715 15.9027C43.7351 15.3375 43.8717 14.7213 43.8719 14.0976L43.8753 7.69745C43.8753 6.95765 43.7278 6.21751 43.4458 5.53486C43.1639 4.85221 42.7459 4.2274 42.2236 3.70546C41.702 3.18352 41.0775 2.76513 40.3952 2.48251C39.7129 2.19989 38.9735 2.052 38.2333 2.052H26.6141V37.2605H38.6756C39.7915 37.2605 40.8822 36.9295 41.8101 36.3096C42.7379 35.6897 43.461 34.8086 43.8881 33.7777C44.171 33.0919 44.3169 32.3573 44.3176 31.6154C44.3176 28.9171 44.3107 26.219 44.3176 23.521C44.3176 22.7672 44.1667 22.0211 43.8739 21.3265ZM32.2834 5.0853L35.3413 5.07491C35.6842 5.07465 36.0238 5.14206 36.3406 5.27329C36.6574 5.40452 36.9451 5.59698 37.1874 5.83965C37.4295 6.0814 37.6231 6.37094 37.7536 6.68646C37.8842 7.00199 37.9511 7.34383 37.9524 7.68567L37.9687 14.7446C37.9689 15.1735 37.8418 15.5928 37.6035 15.9494C37.3652 16.306 37.0264 16.5839 36.6301 16.7478C36.3669 16.8559 36.0852 16.912 35.8006 16.913L32.2834 16.9265V5.0853ZM38.0248 32.6988C37.916 32.9619 37.7563 33.2009 37.5549 33.4022C37.3536 33.6035 37.1145 33.7631 36.8514 33.8719C36.5883 33.9803 36.3065 34.0364 36.0219 34.0371L32.2838 34.0506V20.0901L35.5627 20.0797C35.9056 20.0792 36.2452 20.1466 36.562 20.2778C36.8788 20.4091 37.1665 20.6016 37.4087 20.8444C37.6501 21.0858 37.8444 21.3757 37.975 21.6912C38.1055 22.0068 38.1731 22.3486 38.1738 22.6904L38.19 31.8693C38.1897 32.154 38.1336 32.4358 38.0248 32.6988Z" fill="black"/>
</g>
</g>
<defs>
<clipPath id="clip0_48_2057">
<rect width="66.7604" height="38" fill="white" transform="translate(0.183594)"/>
</clipPath>
</defs>
</svg>
