<svg width="137" height="38" viewBox="0 0 137 38" fill="none" xmlns="http://www.w3.org/2000/svg">
<g clip-path="url(#clip0_48_1311)">
<path d="M47.5067 21.8413C48.0251 18.7649 50.1978 16.3721 53.2097 16.3721C54.7651 16.3721 55.728 17.3244 55.728 18.8626C55.728 20.8402 52.6913 22.2076 47.951 22.2809C47.6054 22.2809 47.4326 22.1099 47.5067 21.8413ZM39.9025 23.7213C39.9025 30.8995 44.6674 35.1724 52.6172 35.1724C58.8388 35.1724 63.2581 32.3401 63.2581 28.2383C63.2581 27.3837 62.9124 26.871 62.394 26.871C61.7768 26.871 60.3202 29.9474 54.5182 29.9474C51.5803 29.9474 49.3337 28.9219 48.1979 26.9443C48.0251 26.6024 48.1979 26.4315 48.5436 26.4315C57.2834 26.163 63.0605 23.6969 63.0605 18.3987C63.0605 14.1259 59.5053 11.3913 53.5554 11.3913C44.9143 11.4158 39.9025 15.9571 39.9025 23.7213ZM123.4 29.0196C126.782 23.7946 130.239 21.3285 135.596 17.7394C136.46 17.129 136.633 16.6163 136.633 13.8085C136.633 12.4412 136.189 11.6599 135.423 11.6599H119.252C118.388 11.6599 117.771 12.0994 117.598 12.6121C116.907 14.4189 116.462 15.8594 116.462 16.2013C116.462 16.714 116.907 17.0559 117.598 17.0559H125.375C125.721 17.0559 125.819 17.3244 125.474 17.5686C116.734 25.0154 115.87 27.9942 115.87 32.7796C115.87 34.1469 116.314 34.9282 117.08 34.9282H133.843C134.707 34.9282 135.226 34.4888 135.497 33.9759C135.67 33.6342 135.769 33.2923 135.843 33.0237C136.534 30.9728 136.633 30.8019 136.633 30.3624C136.633 29.8496 136.287 29.5079 135.497 29.5079H123.647C123.326 29.5323 123.227 29.2882 123.4 29.0196ZM90.7366 27.579C90.7366 33.4876 94.119 35.1968 97.4026 35.1968C101.205 35.1968 103.205 32.8773 104.241 31.2658C104.414 30.9972 104.587 30.924 104.76 30.924C105.032 30.924 105.204 31.095 105.204 31.4367V33.5853C105.204 34.6108 106.587 35.2212 108.759 35.2212C110.932 35.2212 112.216 34.6108 112.216 33.5853V12.8807C112.216 11.9285 111.771 11.4158 111.006 11.4158C110.734 11.4158 110.488 11.5134 110.216 11.5867L106.241 12.8807C105.451 13.1493 104.933 13.9062 104.933 15.2002V23.1597C104.933 27.0174 102.933 28.7266 100.958 28.7266C99.4764 28.7266 98.0198 27.6034 98.0198 24.8689V12.9051C98.0198 11.9529 97.5755 11.4402 96.8101 11.4402C96.5385 11.4402 96.2916 11.5378 96.0201 11.6111L92.0204 12.8807C91.2305 13.1493 90.712 13.9062 90.712 15.2002V27.579H90.7366ZM0.918983 33.5609C0.918983 34.5863 2.30156 35.1968 4.47417 35.1968C6.64678 35.1968 8.20217 34.5863 8.20217 33.5609V23.4772C8.20217 19.6195 9.93038 17.9103 11.8314 17.9103C13.3127 17.9103 14.7694 19.0335 14.7694 21.7681V33.5609C14.7694 34.5863 16.152 35.1968 18.3246 35.1968C20.4971 35.1968 22.0525 34.5863 22.0525 33.5609V23.4772C22.0525 19.4485 23.8795 17.9103 25.6818 17.9103C27.1631 17.9103 28.6198 19.0335 28.6198 21.7681V29.0439C28.6198 34.6108 31.5577 37.9313 36.4955 37.9313C39.0878 37.9313 40.816 37.0768 40.816 35.8804C40.816 35.7095 40.816 35.4409 40.5444 35.2701C37.6806 33.9027 35.8783 32.3646 35.8783 27.8232V19.0335C35.8783 13.1249 32.6687 11.4158 29.4839 11.4158C25.7559 11.4158 23.7807 13.7352 22.7439 15.3467C22.3982 15.9571 21.4353 15.9571 21.2626 15.3467C20.2256 12.3436 17.806 11.4158 15.3865 11.4158C11.6586 11.4158 9.93038 13.7352 8.89345 15.3467C8.54781 15.9571 7.93059 15.6885 7.93059 15.1758V12.8563C7.93059 11.9041 7.4862 11.3913 6.72084 11.3913C6.44926 11.3913 6.20238 11.489 5.9308 11.5623L2.22749 12.8807C1.43745 13.1249 0.918983 13.9062 0.918983 15.1758V33.5609ZM84.0707 11.5867L80.0958 12.8807C79.3058 13.1493 78.7874 13.9062 78.7874 15.2002V33.5609C78.7874 34.5863 80.1699 35.1968 82.3425 35.1968C84.515 35.1968 86.0705 34.5863 86.0705 33.5609V12.8807C86.0705 11.9285 85.6261 11.4158 84.8607 11.4158C84.5891 11.4158 84.3423 11.5134 84.0707 11.5867ZM78.8121 5.09207C78.8121 3.79804 79.3305 3.04114 80.1205 2.77256L84.0954 1.47853C84.367 1.38087 84.6138 1.30762 84.8854 1.30762C85.6755 1.30762 86.0952 1.82035 86.0952 2.77256V5.43389C86.0952 6.72793 85.5767 7.48481 84.7867 7.75339L80.8118 9.04742C80.5402 9.1451 80.2934 9.21834 80.0217 9.21834C79.2317 9.21834 78.8121 8.7056 78.8121 7.75339V5.09207ZM47.5067 7.41156V9.12067C47.5067 9.80431 48.1239 10.2438 48.8151 10.0729L57.2093 7.50924C58.1722 7.24066 58.8634 6.65467 58.8634 5.62921V2.45516C58.8634 1.6006 57.9993 1.16112 57.3081 1.50294L48.5683 5.94662C47.951 6.28845 47.5067 6.63026 47.5067 7.41156ZM72.146 1.50294L68.1711 2.79698C67.3811 3.06556 66.8627 3.82245 66.8627 5.11649V33.5609C66.8627 34.5863 68.2452 35.1968 70.4179 35.1968C72.5904 35.1968 74.1458 34.5863 74.1458 33.5609V2.79698C74.1458 1.84477 73.7015 1.33203 72.936 1.33203C72.6645 1.33203 72.3929 1.4297 72.146 1.50294Z" fill="#FD9CBF"/>
</g>
<defs>
<clipPath id="clip0_48_1311">
<rect width="135.714" height="38" fill="white" transform="translate(0.918945)"/>
</clipPath>
</defs>
</svg>
