<svg width="149" height="38" viewBox="0 0 149 38" fill="none" xmlns="http://www.w3.org/2000/svg">
<path fill-rule="evenodd" clip-rule="evenodd" d="M121.366 14.2772C121.209 14.5218 120.974 14.4876 120.974 14.4876L117.323 14.4914C117.323 14.4914 117.103 14.4914 116.957 14.2857C116.832 14.1112 116.912 13.8894 116.912 13.8894L118.659 8.85354C118.659 8.85354 118.752 8.53482 119.09 8.54033C119.379 8.54413 119.486 8.81457 119.486 8.81457L121.405 13.8894C121.405 13.8894 121.484 14.0907 121.366 14.276L121.366 14.2772ZM131.32 20.5555L123.686 1.21157C123.686 1.21157 123.508 0.713025 123.227 0.484971C122.9 0.220178 122.615 0.21448 122.615 0.21448H119.712C119.712 0.21448 119.416 0.210678 119.127 0.499801C118.926 0.700289 118.777 1.09605 118.742 1.19582C118.74 1.20152 118.736 1.20339 118.732 1.21099C118.725 1.23154 118.717 1.25168 118.709 1.27239C116.104 8.10656 111.37 18.8798 110.52 20.8064C110.52 20.8064 110.446 21.0052 110.554 21.2027C110.662 21.3987 110.906 21.4133 110.906 21.4133L114.107 21.4114C114.107 21.4114 114.2 21.4 114.298 21.3211C114.377 21.2574 114.406 21.1481 114.406 21.1481L115.651 17.5369C115.651 17.5369 115.703 17.3882 115.835 17.2708C115.974 17.1465 116.285 17.179 116.285 17.179L122.309 17.1752C122.309 17.1752 122.471 17.1618 122.608 17.2447C122.705 17.304 122.769 17.4253 122.779 17.4696C123.102 18.3605 124.139 21.0177 124.184 21.1451C124.184 21.1451 124.203 21.2329 124.33 21.3407C124.423 21.419 124.648 21.4091 124.648 21.4091L130.492 21.3996C130.492 21.3996 130.947 21.4247 131.154 21.1812C131.447 20.8376 131.319 20.5564 131.319 20.5564" fill="black"/>
<path fill-rule="evenodd" clip-rule="evenodd" d="M88.0067 18.7499V18.7594C87.1953 18.9448 86.6589 19.0109 85.4278 18.9511C85.3519 18.9473 85.0883 18.8933 84.9041 18.6751C84.7123 18.4476 84.7113 18.2647 84.7087 18.1858C84.5462 13.0361 84.5759 8.76058 84.7101 3.49092C84.712 3.41242 84.7559 3.16497 84.9519 2.9754C85.1473 2.78628 85.4151 2.74446 85.4932 2.74072C86.7211 2.67989 87.1963 2.75782 88.0063 2.92813V2.93576C90.3901 3.45696 91.1788 5.35072 91.4625 10.9374C91.4312 15.7677 90.7847 18.0711 88.0063 18.75L88.0067 18.7499ZM88.0494 0.285867V0.284488H78.945C78.947 0.28256 78.4844 0.280716 78.1758 0.576843C77.7844 0.939678 77.7909 1.28373 77.7909 1.28373V20.4535C77.7909 20.4535 77.7649 20.8692 78.1144 21.1602C78.4231 21.4174 78.7654 21.449 78.7945 21.4482C81.298 21.4444 87.6447 21.433 88.0494 21.433V21.4325C92.929 21.4496 98.0468 18.8232 98.5809 11.3948C98.9746 2.46062 92.1577 0.36236 88.0494 0.285585" fill="black"/>
<path fill-rule="evenodd" clip-rule="evenodd" d="M40.8476 19.2082C38.1168 19.2082 35.9076 17.3142 35.9076 10.7957C35.9076 4.29321 38.1168 2.39894 40.8476 2.39894C43.5936 2.39894 45.8028 4.24594 45.8028 10.7957C45.8028 17.3613 43.5936 19.2082 40.8476 19.2082ZM40.8786 0H40.8476C32.7506 0 28.8365 4.95625 28.8365 10.7957C28.8365 16.6348 32.8294 21.607 40.8476 21.6386H40.8786C48.9437 21.6693 52.9531 16.6667 52.9531 10.7957C52.9531 4.92447 49.0229 0 40.8786 0Z" fill="black"/>
<path fill-rule="evenodd" clip-rule="evenodd" d="M101.399 0.442104C101.101 0.735727 101.044 1.12539 101.044 1.12539V20.3618C101.044 20.3618 101.042 20.7039 101.349 21.0312C101.648 21.3484 102.044 21.3563 102.044 21.3563H107.206C107.206 21.3563 107.617 21.3658 107.91 21.038C108.211 20.7014 108.209 20.3509 108.209 20.3509V1.12519C108.209 1.12519 108.208 0.685379 107.873 0.424596C107.526 0.154311 107.205 0.129028 107.205 0.129028H102.201C102.201 0.129028 101.715 0.130956 101.399 0.442104Z" fill="black"/>
<path fill-rule="evenodd" clip-rule="evenodd" d="M148.061 20.5447V18.4146C148.061 18.4146 148.07 18.1857 147.796 17.9163C147.546 17.6706 147.224 17.6909 147.224 17.6909L141.852 17.6947C141.852 17.6947 141.848 17.6909 141.842 17.6871C141.47 17.6681 141.173 17.3677 141.163 16.9935C141.159 16.9897 141.157 16.984 141.157 16.984L141.194 1.20316C141.194 1.20316 141.193 0.777428 140.867 0.504118C140.511 0.205851 140.187 0.205322 140.187 0.205322H134.797C134.797 0.205322 134.378 0.211024 134.11 0.52805C133.803 0.892953 133.809 1.20087 133.809 1.20087V20.5698C133.809 20.5698 133.832 20.8775 134.053 21.1329C134.304 21.4228 134.646 21.4017 134.646 21.4017H147.211C147.211 21.4017 147.542 21.3776 147.8 21.1362C148.084 20.871 148.061 20.5445 148.061 20.5445" fill="black"/>
<path fill-rule="evenodd" clip-rule="evenodd" d="M27.753 20.7168L25.1225 1.51618C25.1225 1.51618 25.085 1.19706 24.7036 0.829284C24.382 0.520221 23.9781 0.518476 23.9781 0.518476H20.1074C20.1074 0.518476 19.7295 0.554969 19.5626 0.827003C19.4415 1.02394 19.3725 1.19178 19.3725 1.19178L15.1289 11.4957C15.036 11.7846 14.7685 11.9947 14.4489 11.9947C14.1428 11.9947 13.8837 11.8029 13.7801 11.5333L9.36204 1.18889C9.36204 1.18889 9.2594 0.924701 9.07103 0.724536C8.86973 0.510171 8.51604 0.518476 8.51604 0.518476H4.57557C4.57557 0.518476 4.12357 0.542991 3.81565 0.795416C3.4712 1.07792 3.42063 1.54053 3.42063 1.54053L0.324329 20.9759C0.324329 20.9759 0.310997 21.2431 0.57787 21.5104C0.780164 21.7127 1.07382 21.7149 1.07382 21.7149H3.33816C3.33816 21.7149 3.64118 21.6954 3.87265 21.4566C4.0724 21.2509 4.07508 21.0439 4.07508 21.0439L5.1967 11.6544C5.1967 11.6544 5.19862 11.6549 5.2005 11.6549C5.22501 11.281 5.53309 10.9844 5.91343 10.9844C6.19117 10.9844 6.42933 11.1441 6.5487 11.3746C6.56198 11.3784 6.56977 11.3822 6.56977 11.3822L10.782 21.3287C10.782 21.3287 10.7472 21.2517 10.8877 21.4475C11.0785 21.7121 11.4235 21.715 11.4235 21.715H13.3638C13.3638 21.715 13.6441 21.6813 13.8139 21.5333C14.0021 21.369 14.0988 21.1035 14.0988 21.1035L18.1643 11.3906H18.1657C18.2642 11.1099 18.5308 10.9071 18.8479 10.9071C19.2486 10.9071 19.573 11.2283 19.573 11.625C19.573 11.6288 19.5716 11.6326 19.5716 11.6364L20.6114 20.7293C20.6114 20.7293 20.6418 21.0991 20.9598 21.43C21.1983 21.678 21.6201 21.7144 21.6201 21.7144H26.7673C26.7673 21.7144 27.2149 21.722 27.4607 21.4015C27.7854 20.9782 27.7535 20.7163 27.7535 20.7163" fill="black"/>
<path fill-rule="evenodd" clip-rule="evenodd" d="M74.7696 0.435165C74.5259 0.206105 74.1784 0.205575 74.1784 0.205575H72.5307C72.5307 0.205575 72.1277 0.207503 71.9107 0.475673C71.6833 0.733224 71.6719 0.943026 71.6719 0.943026L71.6796 10.9778C71.6796 10.9798 71.6801 10.9835 71.6801 10.9854C71.6801 10.9874 71.6796 10.9892 71.6796 10.9931V10.9945H71.679C71.6752 11.3867 71.3559 11.7033 70.9624 11.7033C70.7592 11.7033 70.5762 11.6179 70.4456 11.4821C70.4442 11.4823 70.4418 11.4841 70.4418 11.4841L60.9894 0.729859C60.9894 0.729859 60.7718 0.476258 60.6585 0.382571C60.4405 0.203519 60.1421 0.205606 60.1421 0.205606H56.5424C56.5424 0.205606 56.0935 0.182249 55.7618 0.489904C55.3908 0.834702 55.4018 1.20592 55.4018 1.20592L55.4151 20.6721C55.4151 20.6721 55.4303 20.9042 55.6487 21.1715C55.8401 21.4043 56.1703 21.402 56.1703 21.402H58.4137C58.4137 21.402 58.6707 21.4005 58.9376 21.1462C59.1531 20.9401 59.1586 20.7949 59.1586 20.7949L59.17 11.3472C59.1697 11.3339 59.1662 11.3206 59.1662 11.3071C59.1662 10.9106 59.4876 10.5891 59.8841 10.5891C60.0863 10.5891 60.2688 10.6737 60.3992 10.8087C60.4011 10.8067 60.403 10.803 60.403 10.803L69.5837 20.8986C69.5837 20.8986 69.7367 21.0621 69.9319 21.2459C70.0942 21.3978 70.3527 21.4014 70.3527 21.4014H74.0196C74.0196 21.4014 74.4503 21.409 74.7094 21.0821C75.0181 20.6935 75.0173 20.3987 75.0173 20.3987V0.934679C75.0173 0.934679 75.0097 0.661372 74.7698 0.434593" fill="black"/>
<path d="M74.2007 27.8207C108.677 27.8207 136.792 27.4661 136.792 27.0043C136.792 26.5577 108.677 26.1882 74.2007 26.1882C39.7253 26.1882 11.5939 26.5577 11.5939 27.0043C11.5939 27.4661 39.7253 27.8207 74.2007 27.8207Z" fill="black"/>
<path d="M15.4792 38H18.9411V37.0916H16.8907V35.5881H18.3214V34.7336H16.9022V33.464H18.882V32.5757H15.5213L15.4792 38Z" fill="black"/>
<path d="M108.972 32.5604H107.564V38H108.972V32.5604Z" fill="black"/>
<path fill-rule="evenodd" clip-rule="evenodd" d="M53.1834 32.4616C52.4335 32.6084 51.9052 33.1182 51.9052 33.8263V36.711C51.9052 37.4191 52.5402 38 53.2483 38H54.6527C55.3608 38 55.8659 37.4191 55.8659 36.711V33.8263C55.8659 33.1182 55.2958 32.4616 54.5877 32.4616C54.5877 32.4616 53.7706 32.3467 53.1834 32.4616ZM53.7297 33.3406H54.0415C54.273 33.3406 54.4594 33.527 54.4594 33.7585V36.7788C54.4594 37.0103 54.273 37.1965 54.0415 37.1965H53.7297C53.4982 37.1965 53.3118 37.0103 53.3118 36.7788V33.7585C53.3118 33.527 53.4982 33.3406 53.7297 33.3406Z" fill="black"/>
<path d="M62.2558 32.5859C62.2154 32.5849 62.1745 32.5849 62.1331 32.5872L59.9951 32.5898V38H62.4842C62.4842 38 63.536 37.8991 63.7655 37.2602C63.7655 37.2602 63.9838 37.0007 63.957 36.5455V33.9747C63.9531 33.5615 63.7679 33.122 63.3433 32.9116C63.3433 32.9116 62.8613 32.5997 62.2558 32.5859ZM61.5736 33.507C61.6746 33.5061 61.8162 33.5086 61.9793 33.5231C62.1821 33.5413 62.3785 33.7171 62.5279 33.8973C62.5469 33.9879 62.594 36.6985 62.5395 36.7501C62.5395 36.7501 62.404 37.0059 62.2911 37.0385C62.0846 37.0844 61.3896 37.0783 61.3896 37.0783L61.4125 33.5129C61.4125 33.5129 61.4727 33.5081 61.5736 33.507Z" fill="black"/>
<path fill-rule="evenodd" clip-rule="evenodd" d="M36.5565 32.5901V33.4773H37.8149V38H39.2582V33.4773H40.5099V32.5901H36.5565Z" fill="black"/>
<path fill-rule="evenodd" clip-rule="evenodd" d="M99.9583 32.5901V33.4773H101.217V38H102.66V33.4773H103.912V32.5901H99.9583Z" fill="black"/>
<path d="M85.6594 38H89.1213V37.1019H87.0709V35.6153H88.5016V34.7705H87.0824V33.5152H89.0622V32.6369H85.7014L85.6594 38Z" fill="black"/>
<path d="M29.8757 38H33.3376V37.0916H31.2872V35.5881H32.7179V34.7336H31.2987V33.464H33.2785V32.5757H29.9178L29.8757 38Z" fill="black"/>
<path d="M23.038 32.6293H24.461L24.4761 36.836C24.4786 37.0551 24.624 37.0661 24.689 37.1013L26.2819 37.0972L26.1441 38H24.0785C24.0785 38 23.2981 37.9618 23.0686 37.059L23.038 32.6293Z" fill="black"/>
<path d="M115.648 34.4693H117.056V33.4288C117.056 33.4288 116.859 32.9569 116.41 32.708C116.031 32.4591 115.313 32.4232 115.313 32.4232C115.313 32.4232 114.776 32.4069 114.332 32.4989C113.11 32.7115 113.135 33.6692 113.135 33.6692L113.167 37.1672C113.454 37.7082 113.841 37.8407 113.841 37.8407C114.172 38.0434 114.958 37.9949 114.958 37.9949L115.596 37.9895C116.566 38.0124 116.916 37.256 116.916 37.256C117.033 37.0322 117.062 36.6911 117.062 36.6911V35.9662H115.639V36.9021C115.601 37.1584 115.288 37.2337 115.288 37.2337L114.896 37.2327C114.896 37.2327 114.587 37.1915 114.517 36.8778V33.5913C114.595 33.3235 114.934 33.3502 114.934 33.3502H115.337C115.629 33.3881 115.625 33.6384 115.625 33.6384L115.648 34.4693Z" fill="black"/>
<path d="M128.686 36.4273L130.039 36.2758C130.188 36.8534 130.232 37.1147 130.84 37.0497C131.739 37.0306 131.445 36.4706 131.445 36.4706C131.332 36.146 130.288 35.5076 130.104 35.367C130.104 35.367 129.098 34.6907 129.087 34.523C129.087 34.523 128.546 33.982 129 33.1597C129.53 32.4943 130.147 32.4781 130.147 32.4781C130.942 32.2184 131.867 32.5538 131.867 32.5538C132.87 33.0205 132.787 33.8414 132.787 33.8414L131.391 33.9999C131.391 33.9999 131.405 33.6254 131.287 33.4949C131.133 33.3249 130.951 33.3258 130.726 33.3367C130.68 33.3176 129.949 33.4809 130.353 33.982L132.095 35.3237C133.388 36.2647 132.775 37.2024 132.668 37.2712C132.454 37.715 131.792 37.9096 131.792 37.9096C131.463 38.0703 129.715 37.9771 129.887 37.9312C129.887 37.9312 129.145 37.7719 128.881 37.1522L128.686 36.4273Z" fill="black"/>
<path d="M92.6053 36.4273L93.9578 36.2758C94.1069 36.8534 94.1508 37.1147 94.7591 37.0497C95.658 37.0306 95.3643 36.4706 95.3643 36.4706C95.2507 36.146 94.2066 35.5076 94.0227 35.367C94.0227 35.367 93.0164 34.6907 93.0056 34.523C93.0056 34.523 92.4646 33.982 92.9191 33.1597C93.4492 32.4943 94.0659 32.4781 94.0659 32.4781C94.8612 32.2184 95.7863 32.5538 95.7863 32.5538C96.7885 33.0205 96.706 33.8414 96.706 33.8414L95.3102 33.9999C95.3102 33.9999 95.324 33.6253 95.206 33.4949C95.0522 33.3249 94.8697 33.3258 94.6445 33.3367C94.5986 33.3176 93.8679 33.4809 94.2715 33.982L96.0135 35.3237C97.3065 36.2647 96.694 37.2024 96.5869 37.2712C96.3727 37.715 95.7105 37.9096 95.7105 37.9096C95.3816 38.0703 93.6341 37.9771 93.8063 37.9312C93.8063 37.9312 93.064 37.7719 92.8 37.1522L92.6053 36.4273Z" fill="black"/>
<path d="M86.6102 32.4567L87.7138 32.4675L88.8715 31.537L87.2161 31.5262L86.6102 32.4567Z" fill="black"/>
<path d="M76.1369 38H77.4028L77.4136 34.6892L78.39 38H79.0933L80.086 34.7217L80.0752 37.9892H81.3519V32.6335H79.5775L78.7689 35.6512L77.8788 32.6118H76.0936L76.1369 38Z" fill="black"/>
<path d="M46.3978 32.5491L44.1412 32.5627L44.1769 37.9771H45.5386V35.7813L45.967 35.743L46.8087 38H48.1934L47.2982 35.5213C48.7289 34.5267 47.8185 32.9506 47.4761 32.8397C47.4761 32.8397 47.0251 32.5491 46.3978 32.5491ZM45.7832 33.3479C46.0556 33.3523 46.4453 33.4065 46.5861 33.6647C46.5861 33.6647 46.6772 34.1678 46.5841 34.4317C46.32 34.9711 45.4985 34.8028 45.4985 34.8028V33.3607C45.4985 33.3607 45.6197 33.3453 45.7832 33.3479Z" fill="black"/>
<path fill-rule="evenodd" clip-rule="evenodd" d="M69.2458 32.4265C68.4958 32.5733 67.9675 33.0831 67.9675 33.7912V36.6759C67.9675 37.3841 68.5377 38 69.2458 38H69.9652H70.6501C71.3582 38 71.9282 37.3841 71.9282 36.6759V33.7912C71.9282 33.0831 71.3582 32.4265 70.6501 32.4265C70.6501 32.4265 69.833 32.3116 69.2458 32.4265ZM69.7921 33.3055H70.1039C70.3353 33.3055 70.5217 33.4919 70.5217 33.7234V36.7437C70.5217 36.9752 70.3353 37.1615 70.1039 37.1615H69.7921C69.5606 37.1615 69.3742 36.9752 69.3742 36.7437V33.7234C69.3742 33.4919 69.5606 33.3055 69.7921 33.3055Z" fill="black"/>
<path fill-rule="evenodd" clip-rule="evenodd" d="M122.254 32.4265C121.504 32.5733 120.975 33.0831 120.975 33.7912V36.6759C120.975 37.3841 121.546 38 122.254 38H122.973H123.658C124.366 38 124.936 37.3841 124.936 36.6759V33.7912C124.936 33.0831 124.366 32.4265 123.658 32.4265C123.658 32.4265 122.841 32.3116 122.254 32.4265ZM122.8 33.3055H123.112C123.343 33.3055 123.53 33.4919 123.53 33.7234V36.7437C123.53 36.9752 123.343 37.1615 123.112 37.1615H122.8C122.568 37.1615 122.382 36.9752 122.382 36.7437V33.7234C122.382 33.4919 122.568 33.3055 122.8 33.3055Z" fill="black"/>
</svg>
