<svg width="142" height="38" viewBox="0 0 142 38" fill="none" xmlns="http://www.w3.org/2000/svg">
<path d="M133.794 18.1163L141.306 38C139.097 37.6907 136.887 37.293 134.634 36.9395L130.392 25.9372L126.062 36.0116C123.941 35.6581 121.82 35.5256 119.699 35.2605L127.343 17.8512L120.406 0H126.813L130.701 9.98605L134.855 0H141.35L133.794 18.1163ZM115.325 0.0441887H109.492V34.5535C111.392 34.686 113.38 34.7302 115.325 34.9953V0.0441887ZM104.499 34.1116C99.1967 33.7581 93.8944 33.4488 88.4595 33.3163V0H94.3805V27.7046C97.7828 27.793 101.185 28.0581 104.455 28.2349V34.1116H104.499ZM82.1409 13.5209V19.4419H74.0549V32.9186H68.1781V0H84.7921V5.92093H74.0549V13.4767H82.1409V13.5209ZM58.1921 5.96512V33.2721C56.2037 33.2721 54.2154 33.2721 52.2712 33.3605V6.00931H46.1293V0.088364H64.3781V6.00931H58.1921V5.96512ZM39.7223 19.7512C37.1154 19.7512 34.0223 19.7512 31.813 19.8837V28.7209C35.3037 28.5 38.7944 28.1907 42.2851 28.1023V33.8023L25.8479 35.1279V0.088364H42.2851V6.00931H31.813V14.007C34.1107 14.007 37.6456 13.8744 39.7223 13.8744V19.7512ZM6.84792 16.4372V37.1605C4.72699 37.3814 2.82699 37.6907 0.794434 38V0.0441887H6.45024L14.1828 21.607V0.0441887H20.1037V35.5698C18.027 35.9233 15.8619 36.0558 13.6084 36.3651L6.84792 16.4372Z" fill="#E31019"/>
</svg>
