<svg width="92" height="38" viewBox="0 0 92 38" fill="none" xmlns="http://www.w3.org/2000/svg">
<g id="Logos">
<g id="Group">
<g id="Clip path group">
<mask id="mask0_48_2055" style="mask-type:luminance" maskUnits="userSpaceOnUse" x="2" y="3" width="88" height="34">
<g id="SVGID_00000096045242728848121970000007845489929966807201_">
<path id="Vector" d="M89.2153 3.04187H2.44159V36.0932H89.2153V3.04187Z" fill="white"/>
</g>
</mask>
<g mask="url(#mask0_48_2055)">
<g id="Group_2">
<path id="Vector_2" d="M45.7732 11.3875L46.3812 11.4244L46.8049 9.47149L42.936 9.41622L43.9677 4.69986L43.3597 4.95779L42.4386 9.71099H46.1785L45.7732 11.3875ZM41.3885 21.6124L42.2912 21.5203L42.6044 21.2992C42.6044 21.2992 41.1121 21.4466 41.0016 20.636C40.8726 19.549 41.2595 18.2778 41.5174 16.7855C41.6832 15.7907 42.0701 13.801 42.2912 12.5482L41.6832 12.5666C41.3885 14.0036 40.4857 18.3515 40.2462 19.807C40.062 20.8571 40.1909 21.2808 40.3383 21.4282C40.4857 21.594 40.8542 21.6677 41.3885 21.6124ZM37.7591 9.47149H36.3405L36.2852 9.76626H37.6854L37.7591 9.47149ZM52.8662 13.3957H49.9553C49.9553 13.3957 50.1395 12.843 50.5448 12.2718C50.029 12.6034 49.6789 13.1377 49.4394 13.5799H52.8477C52.8662 13.5062 52.8662 13.4509 52.8662 13.3957ZM52.0924 21.7046C52.5898 21.7046 53.032 21.6124 53.2715 21.5387C52.1477 21.5387 50.6369 21.2255 49.9184 19.7517C49.4579 18.7752 49.3657 17.3198 49.3657 16.2328H48.7946C48.7762 17.4119 48.8867 19.4753 49.5684 20.4518C50.1948 21.2808 51.0238 21.7046 52.0924 21.7046ZM57.0482 13.0825C57.1404 13.6536 57.1035 14.2615 57.0482 14.759H57.6009C57.6009 14.759 57.7299 13.8747 57.6378 12.9351C57.5088 11.7744 56.4955 9.36095 53.1425 9.36095C52.6635 9.36095 52.2213 9.3978 51.7976 9.45307C51.9081 9.45307 52.0187 9.43464 52.1108 9.43464C56.4403 9.45307 56.864 11.9955 57.0482 13.0825ZM33.2822 10.7427C34.056 11.8481 33.7796 13.3035 33.6138 14.1694C33.577 14.3352 33.5586 14.4826 33.5401 14.5932C33.4296 15.4222 32.4163 20.2491 32.0478 21.9625L32.7848 21.4835C32.7848 21.4835 33.927 15.9381 34.2771 13.5246C34.6455 11.1112 34.0744 9.67415 32.7295 9.52676C32.1952 9.47149 31.5873 9.43464 30.9425 9.50834C30.9793 9.50834 31.0161 9.50834 31.053 9.52676C32.0663 9.67415 32.8216 10.0979 33.2822 10.7427ZM73.0396 9.54519H68.6181L68.4154 9.76626H72.2106L65.8361 16.7303L68.4891 22.0362L69.1892 21.5019L66.7942 16.5092L73.0396 9.54519ZM59.6459 9.47149L59.7565 9.69257H62.6858L64.2518 12.9166L64.8781 12.2166L63.5332 9.47149H59.6459ZM15.1353 24.5233L9.2214 26.8631C9.2214 26.8631 14.8958 32.998 28.6027 35.4483C51.6871 39.5751 61.9488 22.073 61.9488 22.073C39.9699 43.923 15.1353 24.5233 15.1353 24.5233ZM68.2496 15.6986C77.756 6.74485 88.1283 6.74484 88.1283 6.74484L88.9942 3.55762C76.5217 4.66302 68.2496 15.6986 68.2496 15.6986ZM26.3182 11.2954C26.5393 11.0927 26.7788 10.8901 27.0367 10.7059L27.2762 9.54519H23.8126L23.7942 9.78469H26.5946L26.3182 11.2954ZM23.8495 23.7311L24.3469 23.7495C24.3469 23.7495 25.0654 19.8991 25.7471 17.3751C26.0971 16.0302 26.4656 14.8879 26.9999 13.9852C26.2445 14.8327 25.4339 16.2328 25.0654 18.0752C24.4759 20.9492 23.9784 23.1968 23.8495 23.7311ZM10.2715 21.3177C7.48961 20.5255 7.91335 15.6249 8.77924 12.4008C9.40563 10.0795 10.0689 8.2924 10.9716 7.11331C9.57144 7.90551 8.59501 9.76626 7.637 13.2667C6.99218 15.6433 6.58687 18.9779 7.637 20.5623C7.95019 21.0413 8.39235 21.3177 8.94505 21.4098C9.11086 21.4282 9.29509 21.4466 9.4609 21.4466C9.75568 21.4282 10.0136 21.3914 10.2715 21.3177ZM18.7278 5.58418C20.3675 7.64759 20.6623 11.019 19.6121 15.3301C19.0042 17.7988 18.0462 19.7885 16.7565 21.2992C18.4515 19.8438 19.7227 17.6146 20.4596 14.501C21.915 8.40294 20.8465 3.31812 14.9326 3.31812C14.6747 3.31812 14.4168 3.31811 14.1588 3.33654C16.1486 3.52077 17.6777 4.2577 18.7278 5.58418Z" fill="#1BA2DD"/>
<path id="Vector_3" d="M30.9424 10.1163C27.7921 9.61885 25.3233 13.3035 25.3233 13.3035L25.876 10.3558H22.4862L19.7779 23.7311H23.2231C23.2231 23.7311 23.7758 21.2808 24.4574 17.9646C25.1391 14.6484 27.1104 12.6218 28.1605 12.5113C29.2106 12.3823 29.8923 13.0087 29.4502 14.9616C29.0264 16.9329 27.5894 23.7864 27.5894 23.7864H29.2475L31.2925 22.4415C31.2925 22.4415 32.7663 15.5143 32.8953 14.5194C33.0427 13.543 34.0928 10.6137 30.9424 10.1163ZM13.2561 3.98132C8.92662 3.98132 4.98403 5.8605 3.08644 13.1377C1.09672 20.8018 4.11814 24.1548 9.00031 24.0811C13.8825 24.0074 17.4382 21.2624 18.9305 15.1643C20.4412 9.06615 19.3358 3.98132 13.2561 3.98132ZM15.1537 14.7037C14.1404 19.3095 12.077 22.5336 8.85292 22.0546C5.62885 21.5756 6.05259 16.417 6.97375 13.064C8.26338 8.40291 9.71882 5.95262 12.8692 5.95262C16.0196 5.95262 16.1854 10.0979 15.1537 14.7037ZM70.8288 10.3558H67.3653L64.0859 13.9667L62.2989 10.2821H58.4115L61.5067 16.7302L54.5242 23.7311L58.0984 23.7864L62.5384 19.4385L64.7676 23.86H65.873L67.918 22.3309L65.0808 16.6197L70.8288 10.3558ZM49.1078 20.7834C47.984 19.2174 48.2419 15.6248 48.2419 15.6248H56.2744C56.2744 15.6248 56.6429 14.2799 56.4587 13.1745C56.2744 12.0691 55.906 10.0426 52.1292 10.0426C48.3709 10.0426 45.9021 12.0691 44.9626 15.4959C44.0414 18.9226 43.6729 24.3206 51.0054 24.0259L53.7136 21.9993C53.732 22.0177 50.8212 23.1784 49.1078 20.7834ZM51.6502 11.3506C53.9531 11.3875 53.4188 14.1694 53.4188 14.1694H48.5919C48.5735 14.1694 49.3473 11.3138 51.6502 11.3506ZM39.6567 19.678C39.9698 17.8909 41.2042 11.9402 41.2042 11.9402L45.0362 11.8849L45.4047 10.2821H41.7016L42.6965 5.19726L38.8644 7.27909L38.1828 10.3374H35.7141L35.4009 11.8665H37.9249C37.9249 11.8665 36.93 16.546 36.5615 18.3146C36.0641 20.7097 35.5667 21.9993 36.5063 23.031C37.4274 24.0811 38.7355 24.0074 38.7355 24.0074L41.4437 22.1651C39.7119 22.3862 39.3435 21.465 39.6567 19.678Z" fill="#24305D"/>
</g>
</g>
</g>
</g>
</g>
</svg>
