<svg width="107" height="38" viewBox="0 0 107 38" fill="none" xmlns="http://www.w3.org/2000/svg">
<g id="Logos" clip-path="url(#clip0_48_2061)">
<path id="Vector" d="M106.736 11.1687C105.15 4.69219 98.2768 0 90.4785 0C88.4298 0 86.4472 0.330451 84.5307 0.925234C84.1342 1.05741 83.6716 1.25566 83.2751 1.45392C82.8786 1.65218 82.2177 1.91652 81.9534 1.98261C81.8212 1.91652 81.4908 1.71828 81.2925 1.5861C80.8299 1.25567 80.235 0.925242 79.5742 0.726981C78.715 0.462633 77.6576 0.330435 76.402 0.330435C75.2124 0.330435 73.8907 0.462601 72.635 0.528688C71.7759 0.594775 70.9167 0.660894 70.1237 0.726981C69.5289 0.726981 68.9343 0.793052 68.2734 0.793052C66.0925 0.859139 63.8455 0.925242 61.929 1.38785C61.4003 1.52002 60.9376 1.71828 60.5411 1.91654C60.2107 2.04871 59.8804 2.24697 59.6821 2.24697C59.0873 2.31306 58.4264 2.18089 57.6333 2.04872C56.8403 1.91655 56.0473 1.78436 55.1881 1.78436C51.4212 1.71827 46.9272 2.51132 43.0942 3.23828C42.4333 3.37045 41.7725 3.50262 41.1777 3.56871C40.7151 3.6348 40.3185 3.70088 39.922 3.76696C37.8072 4.0974 35.4281 4.42785 34.0403 6.34437H33.2473C33.049 6.34437 32.8507 6.41046 32.6524 6.34437C32.1237 6.27829 31.5951 6.14609 30.9343 5.94783C30.3395 5.74957 29.6786 5.55131 28.9517 5.41914C27.2995 5.15479 25.6473 5.02263 23.9951 5.02263C19.8977 5.02263 15.8003 5.81566 11.9012 7.40175C8.46467 8.78957 3.7724 11.1026 2.38457 15.5304C-1.18412 19.8922 0.00553817 28.2852 2.64902 32.0522C5.29249 35.8852 10.1168 37.9339 16.4611 37.9339C21.4176 37.9339 26.9028 36.6783 31.1324 34.5635C34.9654 32.6469 37.4767 30.7965 39.0628 28.7478L39.129 28.8139C39.6577 29.2765 40.1863 29.7391 40.9133 29.9374C41.5742 30.1356 42.2351 30.2017 42.9621 30.2017C44.2177 30.2017 45.3412 29.9374 46.3985 29.6731C46.8612 29.5409 47.2577 29.4748 47.7203 29.3426C48.0507 29.2765 48.315 29.2105 48.6454 29.1444C49.9672 28.88 51.223 28.6818 52.0821 28.1531C52.8751 27.7565 53.3377 27.0296 53.7343 26.5009C53.8004 26.3687 53.9325 26.2365 53.9985 26.1043C54.1968 26.1704 54.3951 26.3026 54.5273 26.4348C55.1221 26.8313 55.915 27.36 56.9063 27.4261C57.1046 27.4261 57.3028 27.4922 57.5672 27.4922C58.4924 27.4922 59.4837 27.2939 60.409 27.0957C60.8716 27.0296 61.4002 26.8974 61.8628 26.8313C62.3915 26.7652 62.9864 26.6991 63.5812 26.633C64.6385 26.5009 65.5637 26.4348 66.4889 26.1705C67.0176 26.0383 67.4802 25.7739 67.8107 25.6417L68.0751 25.5096H68.4055C68.736 25.5096 69.0003 25.5757 69.3307 25.5096C71.3794 25.3774 73.4281 25.047 75.4768 24.7165C76.402 24.5844 77.3934 24.3861 78.3186 24.2539C79.1777 24.1217 80.0368 24.0557 80.9621 23.9235C82.2177 23.7913 83.5395 23.6591 84.9273 23.3948C85.456 23.3287 85.8525 23.1304 86.1169 22.9983C86.249 22.9322 86.3812 22.9322 86.3812 22.8661C86.5794 22.8661 86.7116 22.8661 86.9099 22.8C87.3725 22.6678 87.9012 22.3374 88.2316 21.7426C88.4299 21.8087 88.6941 21.8748 88.9585 22.007C89.4211 22.1391 89.8176 22.2713 90.2802 22.4035C91.8663 22.8 93.5847 22.9983 95.1708 22.9983C98.3429 22.9983 101.052 22.2052 102.837 20.8174C103.96 20.487 104.952 19.76 105.745 18.7026C107.132 16.6539 107.265 13.4157 106.736 11.1687Z" fill="#51C4F1"/>
<path id="Vector_2" d="M86.5796 20.2228C86.1169 20.8837 85.1917 21.0158 84.5308 21.148C82.2838 21.5445 80.103 21.6767 77.9221 21.9411C75.0143 22.3376 71.9743 22.9985 69.0665 23.1967C68.5378 23.2628 68.0091 23.0646 67.5465 23.1967C67.0178 23.3289 66.4891 23.7915 65.8943 23.9237C64.7047 24.188 63.0526 24.3202 61.4665 24.5185C59.8804 24.7828 58.2283 25.2454 57.0387 25.1132C55.8492 24.9811 54.7917 23.5271 53.5361 23.6593C52.4787 23.7915 51.95 25.5098 51.0909 26.0385C50.2979 26.5011 48.7117 26.6993 47.2578 26.9637C45.2752 27.3602 43.3586 28.1532 41.376 27.5585C40.2525 27.228 38.8648 24.5185 37.5431 26.8315C35.957 28.8802 32.8508 30.9289 30.1412 32.2506C22.8055 35.9515 9.1917 37.6698 4.103 30.4002C1.92213 27.228 0.732602 19.3637 3.97086 15.9272C4.89608 12.2263 8.79515 10.1115 12.496 8.6576C17.2543 6.74108 22.8717 5.88192 28.5552 6.80714C29.8769 7.0054 31.1326 7.6002 32.3883 7.73237C33.3135 7.79846 34.2386 7.40194 34.9656 8.06281C35.8247 5.35324 38.27 5.41933 41.4421 4.89064C45.5395 4.16368 50.8925 3.04018 55.1221 3.17235C56.6421 3.17235 58.2943 3.76717 59.7482 3.70108C60.6734 3.63499 61.5326 2.97411 62.3257 2.77585C64.5726 2.24715 67.5464 2.31322 70.1238 2.18105C73.2299 2.04888 76.6665 1.38804 78.9796 2.04891C79.9048 2.31326 80.83 3.30456 81.7552 3.37065C82.8126 3.43673 84.1343 2.51151 85.0595 2.24716C93.5847 -0.528491 103.035 3.89931 104.819 11.1028C105.546 13.9445 104.753 18.3063 101.846 18.7028C99.5325 20.8837 94.8403 21.2141 90.6108 20.2228C89.8838 20.0246 89.0248 19.6941 88.2317 19.4958C87.703 19.3637 86.5135 19.0333 86.5796 20.2228Z" fill="#1064AD"/>
<path id="Vector_3" d="M89.8176 3.17218C94.3115 3.04001 98.475 4.69219 100.722 7.26958C102.11 8.92176 103.564 11.3009 102.374 14.1426C100.061 19.8261 89.2889 18.174 85.5219 13.9444C84.068 12.2922 82.2837 9.12002 83.275 6.41046C84.002 4.36176 86.5132 3.23827 89.8176 3.17218ZM89.2229 8.327C88.8263 10.3757 90.6106 12.16 91.8002 12.9531C93.6506 14.1426 97.0872 14.1426 97.4837 11.8957C98.0124 8.92176 94.1133 5.88177 91.2055 6.54264C90.2142 6.7409 89.355 7.33569 89.2229 8.327ZM80.8958 6.67482C79.508 6.807 77.9881 6.87308 76.4681 7.00526C74.9481 7.13743 73.4281 7.00525 72.2386 7.53395C72.3707 8.32699 72.635 8.98785 73.1637 9.38437C75.6089 9.38437 77.7237 8.78959 80.235 9.05394C80.8958 9.84698 81.2924 10.9705 81.5567 12.16C79.7724 13.0192 76.3359 12.3583 74.3533 13.2835C74.4194 14.1426 74.6837 14.7374 75.1463 15.2661C78.1863 15.2661 80.9619 14.407 83.8698 14.6713C84.6628 15.2661 85.1254 16.8522 85.1915 17.8435C84.3324 18.5044 82.8124 18.3722 81.2924 18.5705C77.3272 19.0331 72.7011 19.8922 68.6698 20.0905C67.6785 19.1652 67.5462 17.6452 67.1497 16.3896C65.9602 12.6226 64.4402 8.59134 63.2507 4.69221C65.1672 3.96526 67.6125 4.09741 69.9255 3.96523C73.0977 3.76697 76.402 3.50262 79.5081 3.6348C80.3672 4.16349 80.8958 5.55134 80.8958 6.67482ZM59.9463 13.4157C61.5985 15.1339 63.3828 16.5878 65.1671 18.1739C65.7619 18.6365 66.5551 19.1652 66.6212 20.0244C65.4977 20.6852 63.9115 20.6852 62.3915 20.9496C60.8715 21.2139 59.1532 21.8087 58.0958 21.5444C57.3028 21.4122 56.5098 20.2887 55.849 19.5618C53.8003 17.3809 51.4872 15.134 49.769 12.9531C51.5533 12.3583 54.5272 12.6887 54.7915 10.9044C54.9237 9.97915 54.1967 8.92176 53.1393 8.7235C51.8176 8.52524 48.2489 9.05392 47.9845 9.78088C47.7202 10.5739 48.5794 12.0279 48.7777 12.9531C49.7029 16.3896 50.4298 19.0331 51.0246 22.3374C50.8263 23.1304 49.7689 23.0644 49.042 23.1304C46.9272 23.4609 44.3497 24.1879 42.0367 24.0557C41.2436 21.4122 40.5168 18.5704 39.8559 15.7287C39.1951 12.887 38.5341 9.97916 38.1376 7.20351C38.8646 6.41047 40.3845 6.47654 41.7062 6.27828C45.4071 5.81567 50.2977 5.0887 53.8663 4.82436C58.5585 4.49392 61.995 5.48526 62.7881 8.65743C63.515 11.1687 61.7307 12.6887 59.9463 13.4157Z" fill="white"/>
<path id="Vector_4" d="M91.1395 6.54281C94.0473 5.88194 97.8804 8.92192 97.4177 11.8958C97.0212 14.1428 93.6509 14.0767 91.7344 12.9533C90.5448 12.1602 88.7604 10.3759 89.1569 8.32716C89.3551 7.33586 90.2143 6.74107 91.1395 6.54281Z" fill="#1064AD"/>
<path id="Vector_5" d="M24.3256 8.59149C29.0839 8.45932 33.4455 9.71499 35.7585 12.1602C36.8159 13.2837 38.0717 15.5306 38.2039 18.3063C38.3361 20.4211 37.7413 22.4698 36.8822 23.8576C33.8422 28.8141 25.5152 31.9202 18.3778 32.1845C12.5622 32.4489 7.53951 30.7967 5.62299 26.8315C3.37604 22.1393 5.68902 16.7863 8.20032 14.275C9.85249 12.6228 12.3639 11.3011 15.0735 10.2437C17.783 9.31845 20.9552 8.72367 24.3256 8.59149ZM15.7343 17.2489C15.0735 18.2402 14.4125 20.1567 14.9412 22.0071C16.6594 27.955 27.6299 26.1706 28.423 20.1567C28.9517 16.1915 25.7794 13.7463 21.5499 14.2089C19.1046 14.4071 16.7917 15.5967 15.7343 17.2489Z" fill="white"/>
<path id="Vector_6" d="M21.4837 14.1426C25.7133 13.68 28.8854 16.1252 28.3567 20.0904C27.5637 26.1043 16.5933 27.8887 14.875 21.9408C14.3463 20.0904 15.0733 18.1739 15.6681 17.1826C16.7915 15.5965 19.1046 14.4069 21.4837 14.1426Z" fill="#1064AD"/>
</g>
<defs>
<clipPath id="clip0_48_2061">
<rect width="106.863" height="38" fill="white" transform="translate(0.137695)"/>
</clipPath>
</defs>
</svg>
