<svg width="49" height="38" viewBox="0 0 49 38" fill="none" xmlns="http://www.w3.org/2000/svg">
<g id="Logos" clip-path="url(#clip0_48_2056)">
<g id="g151">
<path id="path2" d="M1.74911 27.1248L2.41541 26.1188L3.57078 26.4349L2.81694 25.5166L3.46399 24.5235L2.34496 24.9613L1.56758 24.0451L1.63379 25.2346L0.548828 25.6447L1.68079 25.9415L1.74911 27.1248ZM1.59103 22.6932L2.43462 21.8241L3.51311 22.3537L2.94718 21.3136L3.76939 20.4593L2.59048 20.6772L2.00322 19.6265L1.84731 20.8075L0.694123 21.0061L1.74911 21.5143L1.59103 22.6932ZM2.28725 18.3045L3.27821 17.6211L4.23925 18.3387L3.87618 17.2068L4.85642 16.5298L3.65189 16.5149L3.27821 15.3744L2.89376 16.5106L1.72552 16.4828L2.66528 17.1769L2.28725 18.3045ZM7.25902 10.093L7.87837 11.1203L7.96383 9.94572L9.12344 9.67018L8.01932 9.21104L8.09836 8.01722L7.3232 8.92272L6.24678 8.4572L6.85542 9.45666L6.08233 10.3558L7.25902 10.093ZM21.5721 3.06673L22.4604 2.28085L23.4791 2.89373L22.9986 1.7875L23.8871 0.984491L22.7018 1.0934L22.2533 0.0170339L21.9906 1.15536L20.8118 1.27281L21.8411 1.89211L21.5721 3.06673ZM4.58311 35.4921L4.82226 34.309L6.01178 34.1659L4.97175 33.5978L5.19599 32.4382L4.32244 33.2582L3.26108 32.7029L3.77364 33.7795L2.91721 34.5717L4.07475 34.4221L4.58311 35.4921ZM10.234 7.03693L10.6483 8.16454L10.9601 7.0198L12.1475 6.97921L11.148 6.31716L11.4577 5.15321L10.5244 5.89006L9.55478 5.23867L9.95631 6.33641L9.03156 7.06897L10.234 7.03693ZM13.745 4.5895L13.9308 5.77478L14.4626 4.71125L15.6351 4.8992L14.7765 4.05561L15.3019 2.97495L14.2362 3.52172L13.4161 2.69739L13.6083 3.84638L12.5555 4.39735L13.745 4.5895ZM17.6126 4.05556L18.3302 3.1116L19.4513 3.51738L18.7701 2.52642L19.4898 1.56968L18.343 1.89641L17.6959 0.933245L17.6617 2.10144L16.5212 2.43242L17.6531 2.85315L17.6126 4.05556ZM2.46878 30.3069L2.75928 31.4558L3.22059 30.3347L4.42295 30.4222L3.50467 29.6682L3.94885 28.5706L2.93656 29.2112L1.99898 28.4595L2.29367 29.617L1.30064 30.2278L2.46878 30.3069ZM3.80997 14.1507L4.91414 13.6617L5.71497 14.5565L5.57831 13.3776L6.66105 12.8971L5.48861 12.6579L5.33912 11.4641L4.74322 12.4999L3.60494 12.2521L4.39086 13.1192L3.80997 14.1507ZM38.2065 6.88743L38.5141 8.03208L38.9433 6.91306L40.1392 6.94515L39.2103 6.1998L39.6331 5.11277L38.653 5.75562L37.7303 5.0124L38.0335 6.17843L37.0233 6.83411L38.2065 6.88743ZM40.0794 9.50144L41.2348 9.77267L41.3138 10.958L41.9418 9.935L43.1142 10.2019L42.3432 9.29216L42.9647 8.30549L41.884 8.74755L41.113 7.84635L41.192 9.04871L40.0794 9.50144ZM34.6913 4.61083L35.2102 5.67229L35.4111 4.49555L36.5962 4.30547L35.5433 3.74803L35.7463 2.60121L34.9113 3.42125L33.8584 2.87028L34.3774 3.95732L33.5209 4.79236L34.6913 4.61083ZM43.6567 13.1918L43.5136 14.3642L44.3294 13.4823L45.4249 13.967L44.8377 12.927L45.6385 12.0792L44.4917 12.3119L43.9066 11.2697L43.757 12.4657L42.5823 12.6942L43.6567 13.1918ZM29.681 3.44688L30.8043 3.04757L31.5156 4.00219L31.4836 2.79563L32.6154 2.38769L31.4728 2.0417L31.4515 0.873554L30.7874 1.83667L29.6532 1.49285L30.3729 2.46456L29.681 3.44688ZM47.7187 25.0168L47.8019 23.8294L47.014 24.7542L45.9013 24.2993L46.5397 25.2945L45.7773 26.2085L46.9391 25.9095L47.5947 26.9154L47.6716 25.7259L48.8035 25.4462L47.7187 25.0168ZM46.9221 30.091L48.0903 30.0355L47.11 29.4013L47.4068 28.2566L46.4629 29.0104L45.457 28.3526L45.8969 29.4611L44.9679 30.2043L46.1703 30.1338L46.623 31.2443L46.9221 30.091ZM44.6113 34.1125L44.8377 35.2956L45.3588 34.2214L46.5141 34.388L45.6662 33.5828L46.1852 32.515L45.1131 33.0724L44.2439 32.2353L44.4639 33.395L43.4217 33.9544L44.6113 34.1125ZM15.2592 26.6463C15.1673 26.5716 14.0397 27.7185 13.3029 28.5192C13.0424 28.7969 12.8736 29.0596 12.7733 29.1834C12.7733 29.1834 12.4486 29.7195 12.2756 29.9459C12.1005 30.1723 11.667 30.8108 11.4748 31.0885C11.4085 31.1803 11.2377 31.5839 10.9024 32.0025C10.7359 32.2118 10.5672 32.4852 10.2404 32.9038C9.80474 33.4633 9.47579 33.9224 9.55059 33.9844C9.59329 34.0142 10.234 33.2391 10.9216 32.4062C11.2078 32.0581 11.5175 31.7014 11.7802 31.3618C11.9083 31.1974 12.203 30.9219 12.2992 30.7809C12.4678 30.531 12.6516 30.341 12.7241 30.2811C13.1064 29.9694 13.3221 29.946 13.446 29.7687C13.5037 29.6812 14.2617 28.5407 14.5373 28.0773C14.7892 27.6394 15.4107 26.783 15.2592 26.6463ZM47.3214 19.4193L46.7277 20.4679L45.5509 20.2373L46.3688 21.1022L45.7988 22.1337L46.8794 21.6211L47.7121 22.4817L47.5649 21.2943L48.6242 20.8074L47.4708 20.5938L47.3214 19.4193ZM44.4276 16.3162L45.395 17.0018L45.0277 18.1336L45.9889 17.4182L46.9819 18.108L46.6017 16.9718L47.5478 16.2885L46.3839 16.2991L46.0057 15.1715L45.6279 16.3141L44.4276 16.3162ZM25.6448 2.86604L26.6698 2.26165L27.5497 3.04969L27.2914 1.87933L28.3142 1.26644L27.129 1.14257L26.8897 0L26.42 1.06995L25.2412 0.956745L26.1337 1.76404L25.6448 2.86604ZM25.7985 23.6862C25.9096 24.0131 26.3218 25.9394 26.4413 26.3387C26.5651 26.736 26.689 26.7574 26.7575 26.9132C26.9965 27.5134 27.3403 27.5368 27.5177 27.5859C28.0132 27.7376 28.0536 28.4017 28.3697 28.9954C28.6645 29.5508 28.9422 30.0504 29.2027 30.6569C29.4632 31.2635 30.7959 34.5482 31.0244 35.0478C31.1012 35.2293 31.7355 35.2293 31.6671 35.0478C31.5071 34.6869 31.1418 33.7794 30.9154 32.8738C30.7724 32.2866 31.3213 32.7029 30.9709 31.7611C30.8086 31.3297 30.5012 30.9005 30.3283 30.7253C30.1509 30.5524 29.98 29.807 29.8455 29.4737C29.7025 29.1491 29.7749 29.1321 29.4804 28.3483C29.2602 27.776 29.8776 27.9681 29.5316 27.0861C29.3074 26.5117 28.1669 24.4359 28.0345 24.2223C27.9704 24.1048 27.7505 23.746 27.4792 23.321C27.223 22.9174 27.0116 22.486 26.8898 22.298C26.6528 21.918 26.2171 21.085 25.9715 20.7391C25.7281 20.3909 25.4247 19.6264 25.2988 19.7546C25.175 19.8677 25.666 21.0146 25.8668 21.7449C26.0783 22.4732 25.9245 22.7701 25.7986 22.9772C25.681 23.1823 25.681 23.319 25.7985 23.6862ZM33.5358 29.6318C33.8713 30.1893 33.9609 30.0782 34.0998 30.0847C34.4158 30.0933 35.1227 30.8536 35.2637 31.0607C35.3982 31.27 36.5364 32.404 36.829 32.6817C36.9571 32.8033 37.8584 34.2598 37.9737 34.1553C38.0955 34.0506 37.6278 33.3438 37.5573 33.1856C37.4933 33.0318 37.2327 32.8033 37.1066 32.4724C36.9892 32.1477 36.4532 31.3298 36.2782 31.0715C36.105 30.8108 35.8231 30.2341 35.5155 29.869C35.2316 29.5486 35.458 29.4611 35.1655 29.1793C34.9881 29.0127 34.4372 28.5235 34.3133 28.421C34.1959 28.3142 33.7452 27.9149 33.4868 27.6907C33.2304 27.4729 32.6154 27.0457 32.6368 26.7724C32.6453 26.4925 32.5107 25.9609 32.3036 25.7836C32.154 25.6554 31.7142 24.9464 31.2103 24.5363C30.9561 24.3228 30.4136 23.759 29.9951 23.2699C29.6042 22.8043 29.3095 22.3793 29.2198 22.4391C29.0874 22.5246 29.6748 23.3446 29.7344 23.443C29.7964 23.5368 30.4755 24.7114 30.5396 25.019C30.6102 25.3308 31.8766 27.4622 32.1478 28.1242C32.3036 28.5107 33.1707 29.0275 33.5358 29.6318ZM39.0671 31.6929C39.1098 31.6416 38.9881 31.4835 38.922 31.364C38.8493 31.2444 38.4179 30.766 38.3367 30.6314C38.2663 30.5055 37.7068 29.7088 37.5101 29.4483C37.1601 28.9997 37.4804 28.8353 37.2966 28.5578C37.2219 28.436 36.7734 27.8956 36.2523 27.3618C35.9832 27.0947 35.6842 26.8363 35.4302 26.6078C35.0179 26.2405 34.7062 25.9672 34.655 26.0121C34.5823 26.0846 34.8257 26.3772 34.9304 26.5117C35.035 26.6398 35.1995 26.8768 35.4173 27.1353C35.7697 27.5562 35.4429 27.8742 35.7803 28.2095C35.8358 28.2651 36.767 29.3072 36.9956 29.4995C37.3351 29.8027 38.5482 31.2421 38.6336 31.3211C38.7767 31.4557 39.0265 31.7441 39.0671 31.6929ZM19.8678 24.8609C19.9361 24.7156 20.1475 24.2672 20.1369 24.0878C20.1369 24.0558 20.0578 24.0003 19.9916 24.0664C19.6798 24.374 19.0456 25.4716 18.8043 25.5956C18.2618 25.8582 18.0247 26.4947 17.8624 26.7466C17.7471 26.9325 17.5976 27.2336 17.3392 27.6117C17.1128 27.9384 16.8544 28.4274 16.7583 28.5961C16.6643 28.7733 16.6301 28.9357 16.8052 28.9357C16.9804 28.9357 16.8437 29.2219 16.6301 29.5358C16.5084 29.7195 16.2073 30.5994 16.1197 30.8385C16.0044 31.1332 16.0215 31.5091 15.9809 31.6351C15.9403 31.7526 15.3659 32.9764 15.2164 33.2475C15.1224 33.4185 15.1502 33.4867 15.1138 33.5807C15.0604 33.6981 15.1267 33.7324 15.2164 33.6469C15.3253 33.5379 15.9403 32.6046 16.1282 32.4937C16.3119 32.3783 16.4806 32.2076 16.5084 31.806C16.5361 31.4045 16.7967 31.2956 16.9911 31.0607C17.194 30.8279 17.4609 30.5161 17.6039 30.1893C17.7385 29.852 17.9115 30.1081 18.2233 29.6063C18.5351 29.1003 19.2356 27.853 19.3958 27.6117C19.5495 27.3702 19.4364 27.0222 19.4171 26.7339C19.4086 26.5823 19.4299 26.2085 19.5197 25.8113C19.6094 25.4568 19.7738 25.0958 19.8678 24.8609ZM22.5502 15.3318C22.8085 15.3318 23.1866 14.8597 23.3916 14.4498C23.6031 14.0055 23.7099 13.7557 23.9746 13.1876C23.9853 13.1576 23.9597 13.1576 23.9319 13.1576C23.6308 13.1576 23.2997 13.4652 23.0884 13.7129C22.8385 14.0205 22.4284 14.5992 22.3665 15.0157C22.3217 15.2399 22.4199 15.3318 22.5502 15.3318ZM29.2219 15.7311C29.5167 15.8806 29.8819 15.2313 30.2001 14.6398C30.5161 14.0439 30.7681 13.305 30.5012 13.2131C30.2001 13.0914 29.8177 13.6723 29.4995 14.266C29.1855 14.8597 28.9465 15.5987 29.2219 15.7311ZM17.824 15.3318C18.0888 15.3318 18.4583 14.8597 18.6718 14.4498C18.8812 14.0055 18.9922 13.7557 19.2485 13.1876C19.2613 13.1576 19.2356 13.1576 19.2121 13.1576C18.9089 13.1576 18.5778 13.4652 18.3686 13.7129C18.1187 14.0205 17.7044 14.5992 17.6425 15.0157C17.5977 15.2399 17.7044 15.3318 17.824 15.3318ZM14.9281 9.96483C16.9783 10.0609 18.1849 11.0668 18.1849 12.1454C18.1828 14.0739 15.1246 14.4027 15.1246 14.4027C14.5928 17.0744 12.4742 18.0931 11.0071 18.0782C9.03798 18.0632 9.06785 16.4679 9.13415 16.2629C9.21739 16.0258 9.33909 15.8101 9.58687 15.8101C9.83249 15.8101 10.0375 16.0108 10.0375 16.2629C10.0375 16.4145 9.96273 16.5576 9.83249 16.6323C9.57409 16.7925 9.62316 16.9933 9.62316 16.9933C9.62316 17.8411 10.7187 17.9072 11.0071 17.9072C13.9393 17.9072 13.6019 13.0764 16.1881 11.4342C16.3056 11.3552 16.3974 11.4342 16.3248 11.5153C15.5176 12.5276 15.2143 14.1593 15.2143 14.1593C16.4615 14.1593 17.2859 12.9719 17.2859 12.1454C17.2859 10.7295 16.0109 10.1421 14.9281 10.1421C11.9083 10.1421 10.597 12.2521 10.597 13.4011C10.597 14.5522 11.3232 14.9686 11.8486 14.9686C12.5811 14.9686 12.8096 14.4796 12.7199 14.2404C12.5747 13.8646 12.7754 13.5506 13.0019 13.5506C13.0915 13.5506 13.3927 13.5357 13.3927 14.0654C13.3927 14.5757 12.6687 15.0904 11.8678 15.0904C11.0776 15.0904 9.92224 14.6633 9.92224 13.4011C9.92215 10.8426 13.0701 9.87087 14.9281 9.96483ZM20.013 13.0914C19.6863 13.8304 19.445 14.36 19.1438 15.0584C19.1182 15.1246 19.0947 15.2399 19.1567 15.2826C19.2121 15.3082 19.2763 15.3082 19.3125 15.2826C19.6991 15.0968 20.0386 14.6462 20.3056 14.1336L20.7818 13.0829H21.4524L21.2687 13.4801C21.2537 13.5015 21.2537 13.5142 21.2687 13.5015C21.478 13.3434 21.698 13.1063 21.9671 12.959C22.0717 12.9099 22.3216 12.9099 22.2959 13.0828C22.2831 13.2366 22.1657 13.3541 22.0995 13.5015C22.061 13.5954 22.0205 13.7129 22.0333 13.7769C22.061 13.8473 22.1379 13.8858 22.2426 13.8068C22.3472 13.7406 22.4284 13.6872 22.5245 13.6082C22.691 13.4459 22.9025 13.2943 23.1395 13.1683C23.6158 12.9483 24.2629 12.8052 24.737 13.1063C24.4059 13.8474 24.1561 14.3984 23.84 15.0968C23.7823 15.2163 23.8293 15.2548 23.8677 15.2825C23.9083 15.3082 23.9852 15.3209 24.092 15.2634C24.3525 15.1545 24.8138 14.6398 24.9975 14.2404C25.1726 13.8688 25.3307 13.5015 25.5165 13.0829H26.2064L26.014 13.4887L26.0418 13.5015C26.2256 13.3328 26.706 12.9484 27.0605 13.0295C27.257 13.0701 27.3531 13.305 27.3382 13.4801C27.5624 13.3157 27.7931 13.1192 28.1263 13.0381C28.6024 12.9206 28.7883 13.2516 28.6409 13.5699C28.4552 14.0056 28.0878 14.8598 27.8763 15.2998C27.8507 15.3446 27.8507 15.4428 27.8763 15.4642C27.9297 15.5069 28.0238 15.4642 28.0643 15.4428C28.3013 15.2399 28.4317 15.1097 28.6152 14.8491C28.6665 14.3878 28.9163 13.9629 29.2624 13.6083C29.6297 13.2004 30.2105 12.8823 30.768 13.0702C30.9623 13.1342 31.0947 13.3328 31.1482 13.5293C31.1738 13.634 31.1994 13.6873 31.1994 13.807C31.492 14.0206 31.8742 13.6724 32.0303 13.4119C32.073 13.3051 32.1263 13.1876 32.1519 13.1064C32.3185 13.1192 32.6452 13.1064 32.8395 13.1064L31.9789 15.0734C31.9235 15.1887 31.9106 15.2549 31.9106 15.3446C31.9106 15.4172 31.9896 15.43 32.0729 15.4172C32.3099 15.3745 32.6964 14.9089 32.8907 14.5181C33.1086 14.0291 33.3244 13.6212 33.538 13.1342H34.2341C33.9565 13.792 33.6424 14.4925 33.4162 15.0051C33.3628 15.1097 33.3009 15.2165 33.335 15.3617C33.3628 15.43 33.4546 15.4172 33.5122 15.3916C33.8134 15.2165 34.3323 14.6399 34.5118 14.2832C34.6997 13.8603 34.8385 13.5443 35.035 13.1342H35.7504L35.5796 13.5443C35.8465 13.3328 36.1326 13.1064 36.4766 13.0509C36.6346 13.0296 36.8311 13.0381 36.923 13.2004C37.0298 13.3841 36.9656 13.5784 36.8866 13.7557C36.6901 14.2041 36.4615 14.6911 36.2651 15.1246C36.2288 15.2314 36.2182 15.3318 36.2886 15.3745C36.3975 15.4428 36.8972 15.1374 37.1514 14.5822C37.3714 14.0952 37.521 13.8069 37.7174 13.3328H37.3501L37.4526 13.1192H37.822L38.3494 11.9724H39.0609L38.5482 13.1192H39.0843L38.9838 13.3328H38.4563C38.1531 13.9757 37.8989 14.5181 37.6341 15.1246C37.5317 15.3318 37.4249 15.6799 37.4804 15.8913C37.5211 16.0088 37.6662 16.0387 37.7986 15.9939C38.2043 15.8529 38.482 15.507 38.719 15.1374C38.7319 15.0969 38.9475 15.1246 38.9304 15.1545C38.6506 15.7055 38.0464 16.2629 37.4675 16.248C37.2946 16.248 37.1066 16.1412 37.0041 15.9938C36.9551 15.9169 36.9231 15.8529 36.8973 15.761C36.861 15.6115 36.8718 15.4428 36.8973 15.2826C36.5834 15.5219 36.2823 15.8102 35.8851 15.8913C35.712 15.9169 35.49 15.8529 35.4494 15.6671C35.4238 15.5219 35.4366 15.3616 35.4901 15.2314C35.7399 14.6911 35.9619 14.2041 36.199 13.6339C36.2183 13.6083 36.199 13.5143 36.1712 13.5016C36.1327 13.4653 36.0154 13.4653 35.9107 13.5443C35.4238 13.9116 35.1739 14.3878 34.9647 14.8747C34.8151 15.2015 34.6551 15.5325 34.4991 15.8529H33.7986C33.8798 15.6564 33.9973 15.3915 34.089 15.178C34.089 15.1652 34.0763 15.1652 34.0763 15.178C33.788 15.4642 33.4163 15.7931 33.0512 15.8913C32.9038 15.9297 32.7564 15.8807 32.6817 15.7418C32.5984 15.6116 32.5749 15.4172 32.6453 15.24C32.6453 15.2314 32.639 15.2314 32.6241 15.24C32.3635 15.507 32.1094 15.7418 31.7591 15.8636C31.3598 15.9853 31.001 15.7055 31.253 15.1246C31.3214 14.9687 31.5199 14.5309 31.7378 14.0056C31.5562 14.0803 31.3341 14.0803 31.2146 14.044C31.1996 14.044 31.1996 14.044 31.1996 14.0568C31.0457 14.7936 30.608 15.4642 29.9353 15.7845C29.6064 15.9447 29.2326 15.9853 28.9059 15.761C28.7479 15.6564 28.6539 15.4001 28.6411 15.178C28.3015 15.5218 27.9149 15.9553 27.3896 15.8806C27.3106 15.8635 27.2445 15.793 27.2038 15.7204C27.0842 15.5219 27.1546 15.3083 27.2294 15.1374C27.4815 14.612 27.6886 14.1208 27.9406 13.5293C27.9811 13.4459 27.8679 13.3861 27.7868 13.4246C27.537 13.5443 27.3831 13.6638 27.2445 13.8774C27.1696 13.9927 27.0949 14.1251 27.0351 14.251C26.8022 14.7572 26.5589 15.2826 26.3474 15.793H25.632C25.9523 15.0733 26.2535 14.3728 26.5695 13.6617C26.5994 13.5955 26.5824 13.5015 26.5439 13.4801C26.4819 13.446 26.3688 13.5015 26.2961 13.5443C26.1252 13.6617 25.9736 13.8176 25.8605 14.0205C25.7409 14.217 25.632 14.4134 25.5487 14.627L25.0148 15.7931H24.3164C24.3848 15.6393 24.515 15.3318 24.594 15.178C24.594 15.1652 24.5812 15.1546 24.5812 15.1652C24.199 15.4813 23.7099 15.8913 23.3532 15.823C23.2336 15.8102 23.1311 15.7055 23.1034 15.5988C23.0778 15.4643 23.0884 15.3446 23.1162 15.2314C23.1162 15.2165 23.1034 15.2165 23.0885 15.2314C22.783 15.5219 22.5097 15.7611 22.1253 15.8529C21.9053 15.902 21.6982 15.7611 21.6277 15.5988C21.5294 15.4172 21.506 15.1247 21.6639 14.7936C21.7579 14.5822 21.8604 14.3601 21.9907 14.1764C21.9138 14.217 21.7579 14.2298 21.6511 14.217C21.5615 14.2042 21.4653 14.1337 21.4183 14.0654C21.3628 14.0056 21.35 13.886 21.35 13.807C21.3628 13.792 21.3223 13.792 21.2945 13.807C21.0852 13.9757 20.9913 14.1765 20.8866 14.3986L20.2801 15.7718H19.5668L19.8295 15.1887C19.8423 15.1781 19.8295 15.1653 19.8167 15.1781C19.4451 15.507 19.0009 15.8807 18.6421 15.8102C18.5395 15.7931 18.4306 15.6906 18.405 15.5881C18.3794 15.4643 18.39 15.3319 18.405 15.2165H18.3794C18.0889 15.507 17.8113 15.7418 17.4333 15.823C17.2176 15.8913 17.0233 15.7611 16.9399 15.5774C16.8353 15.3083 16.8738 15.035 16.9677 14.7808C17.2411 14.0654 17.7472 13.555 18.4306 13.1685C18.8641 12.9206 19.5389 12.8458 20.013 13.0914ZM4.67918 24.1411C4.67918 27.1588 5.48007 30.5587 6.90879 33.3479C9.49075 30.9389 16.265 23.2934 17.0424 22.405C18.2234 21.0531 18.7338 21.9137 19.3681 21.1577C19.7077 20.7434 19.9062 20.5854 20.0557 20.5021C20.2992 20.3569 20.5769 20.011 20.7156 19.9084C20.8545 19.8038 21.1684 19.3873 21.4119 19.178C21.6575 18.9709 22.138 18.6569 22.6271 18.2426C23.114 17.824 23.9427 16.8544 24.846 16.8544C25.9202 16.8544 26.3688 17.5827 26.4648 17.6703C26.5417 17.7536 27.2038 18.3387 27.3105 18.4498C27.4279 18.5822 28.137 19.1417 28.5214 19.1417C28.9016 19.1417 29.1836 19.5581 29.3885 19.7653C29.8434 20.1796 31.7227 22.1551 32.34 22.5737C32.6155 22.7637 32.876 22.7296 33.081 22.8898C33.2925 23.0456 33.3971 23.1461 33.5166 23.1824C33.632 23.2144 34.0356 23.1118 34.5055 23.6992C34.7233 23.8486 34.781 23.8744 34.781 23.8744C34.781 23.8744 35.4195 24.453 35.6481 24.8609C35.8552 25.2133 40.6155 31.537 42.3197 33.7987C43.9001 30.9326 44.8035 27.6395 44.8035 24.137C44.8035 13.0509 35.8167 4.07482 24.7371 4.07482C13.6573 4.08118 4.67918 13.0615 4.67918 24.1411Z" fill="#016BB1"/>
<path id="path6" d="M41.1537 36.4766V36.7009H41.5872V37.8883H41.8627V36.7009H42.2941V36.4766H41.1537ZM43.7549 36.4766L43.3726 37.4782L42.9796 36.4766H42.5845V37.8884H42.8409V36.7841H42.8472L43.2743 37.8884H43.4644L43.883 36.7841H43.8938V37.8884H44.148V36.4766H43.7549Z" fill="#016BB1"/>
</g>
</g>
<defs>
<clipPath id="clip0_48_2056">
<rect width="48.2547" height="38" fill="white" transform="translate(0.548828)"/>
</clipPath>
</defs>
</svg>
