<svg width="119" height="38" viewBox="0 0 119 38" fill="none" xmlns="http://www.w3.org/2000/svg">
<g id="Logos" clip-path="url(#clip0_48_1307)">
<path id="Vector" d="M24.9824 30.6851H30.4951V14.6299H24.9824V30.6851ZM32.3916 3.71048H28.6811V7.42095H32.3916V3.71048ZM11.5894 5.51271H6.27693V10.1655H11.2125C14.3457 10.1655 16.148 11.6851 16.148 14.5356C16.148 17.3862 14.3457 19 11.2125 19H6.27693V10.2598H0.764221V30.6851H6.27693V23.6528H11.5069C17.8678 23.6528 21.5782 20.2368 21.5782 14.3472C21.5664 8.83447 17.962 5.51271 11.5894 5.51271ZM36.1021 0H24.9824V11.1197H36.1021V0ZM34.2999 9.21141H26.8907V1.80223H34.2999V9.21141ZM66.5987 5.51271H61.5689V10.1655H66.316C69.4493 10.1655 71.2515 11.6851 71.2515 14.5356C71.2515 17.3862 69.4493 19 66.316 19H61.5689V10.2598H56.0562V30.6851H61.5689V23.6528H66.5987C72.9595 23.6528 76.67 20.2368 76.67 14.3472C76.67 8.83447 72.9595 5.51271 66.5987 5.51271ZM112.856 11.4024L108.109 23.3701L103.362 11.4024H97.6607L105.258 30.6851L102.313 38H108.109L118.557 11.4024H112.856ZM88.1548 11.3081C84.833 11.3081 82.2651 12.0738 79.4145 13.4873L81.1225 17.292C83.1132 16.1494 85.1157 15.584 86.918 15.584C89.5801 15.584 90.9111 16.7266 90.9111 18.8115V19.1885H85.5869C80.8398 19.1885 78.2719 21.3676 78.2719 24.9839C78.2719 28.4941 80.7456 30.9678 84.9273 30.9678C87.5894 30.9678 89.4858 30.0136 91.0054 28.3999V30.4848H96.4238V17.9516C96.2354 13.8642 93.2906 11.3081 88.1548 11.3081ZM91.3941 24.2182C90.8287 25.832 89.2149 27.163 86.9297 27.163C85.0333 27.163 83.8907 26.2089 83.8907 24.6894C83.8907 23.1699 84.939 22.5102 87.024 22.5102H91.3941V24.2182ZM44.5596 26.5034C41.8975 26.5034 40.001 24.4185 40.001 21.2734C40.001 18.2343 41.8975 16.1494 44.5596 16.1494C46.4561 16.1494 47.8814 16.9151 48.9297 18.2343L52.6402 15.5722C50.9322 13.0043 47.9874 11.4848 44.2769 11.4848C38.4815 11.3906 34.4883 15.3838 34.4883 21.2734C34.4883 27.163 38.4815 31.062 44.2769 31.062C48.2701 31.062 51.2149 29.4482 52.8287 26.7861L49.024 24.2182C48.0699 25.7378 46.5503 26.5034 44.5596 26.5034Z" fill="#21C25E"/>
</g>
<defs>
<clipPath id="clip0_48_1307">
<rect width="117.793" height="38" fill="white" transform="translate(0.76416)"/>
</clipPath>
</defs>
</svg>
