<svg width="211" height="38" viewBox="0 0 211 38" fill="none" xmlns="http://www.w3.org/2000/svg">
<g clip-path="url(#clip0_48_1306)">
<path d="M17.9814 -6.48499e-05V33.2363L25.507 35.6205V7.75228C25.507 6.43908 26.0925 5.56718 27.0316 5.86703C28.2594 6.20757 28.498 7.41726 28.498 8.71584V19.846C33.1823 22.1132 36.8702 19.8448 36.8702 13.8627C36.8702 7.7499 34.7081 5.02673 28.3459 2.83728C25.8365 2.00172 21.1858 0.59174 17.9814 -6.48499e-05Z" fill="black"/>
<path d="M26.9384 30.7618L39.025 26.4599C40.3923 25.953 40.6013 25.2644 39.4947 24.9026C38.3708 24.534 36.3646 24.6394 34.9827 25.1356L26.9384 27.9734V23.4456L27.3991 23.2935C27.3991 23.2935 29.7276 22.4686 33.0026 22.1134C36.2714 21.7551 40.2801 22.16 43.4308 23.3476C46.98 24.4751 47.3778 26.1197 46.4799 27.2642C45.5688 28.3969 43.36 29.2163 43.36 29.2163L26.9384 35.1154" fill="black"/>
<path d="M4.19297 30.304C0.554039 29.2903 -0.0527792 27.1482 1.60728 25.9109C3.13855 24.781 5.74637 23.9304 5.74637 23.9304L16.5265 20.0869V24.4614L8.77611 27.2395C7.40326 27.7306 7.19744 28.4215 8.30322 28.783C9.42876 29.1591 11.4262 29.058 12.7998 28.5511L16.5265 27.2075V31.1127C16.2863 31.153 16.0192 31.1937 15.7755 31.2352C12.0599 31.8519 8.10134 31.5986 4.19297 30.304Z" fill="black"/>
<path d="M44.5598 33.3542C44.5598 33.4648 44.5333 33.5371 44.4768 33.5735C44.4117 33.6177 44.3263 33.6399 44.2189 33.6399H43.6784V33.0883H44.2505C44.3315 33.0883 44.3919 33.1022 44.4405 33.1211C44.5195 33.1598 44.5598 33.2377 44.5598 33.3542ZM44.9505 34.6188C44.9233 34.6109 44.9043 34.5841 44.8885 34.5386C44.8814 34.5035 44.8763 34.4537 44.8747 34.3897L44.866 34.1396C44.862 34.0239 44.8399 33.9338 44.7913 33.8801C44.7672 33.8378 44.7242 33.8109 44.6831 33.7817C44.7368 33.7327 44.7862 33.6825 44.8281 33.6276C44.8763 33.5498 44.9043 33.4443 44.9043 33.3317C44.9043 33.1022 44.8055 32.939 44.6131 32.8485C44.5171 32.8078 44.3919 32.7814 44.243 32.7814H43.3304V34.7445H43.6784V33.9452H44.209C44.3078 33.9452 44.3741 33.9579 44.4227 33.9741C44.4883 34.016 44.5239 34.0792 44.5282 34.1878L44.5452 34.494C44.5503 34.5722 44.5555 34.6188 44.5598 34.6544L44.5859 34.7219L44.593 34.7445H44.975V34.6326M42.6153 33.8074C42.6153 33.4064 42.7654 33.0386 43.0396 32.766C43.3205 32.4875 43.6954 32.3373 44.0849 32.3373C44.4749 32.3373 44.8403 32.4875 45.1145 32.766C45.391 33.0386 45.5403 33.4064 45.5403 33.8074C45.5403 34.6109 44.8869 35.2632 44.0849 35.2632C43.6954 35.2632 43.3205 35.1146 43.0396 34.8397C42.7654 34.5623 42.6153 34.1985 42.6153 33.8074ZM44.0849 35.5642C44.5555 35.5642 44.9924 35.3785 45.3254 35.0498C45.6545 34.7152 45.8402 34.2783 45.8402 33.8074C45.8402 33.3321 45.6545 32.8877 45.3254 32.5594C44.9924 32.2235 44.5555 32.0438 44.0849 32.0438C43.1083 32.0438 42.3186 32.8319 42.3186 33.8074C42.3186 34.2783 42.5007 34.7152 42.8298 35.0498C43.1633 35.3785 43.6144 35.5642 44.0849 35.5642Z" fill="black"/>
<path d="M71.3965 8.72226L62.3085 8.71831C62.2709 8.71831 62.2409 8.74794 62.2409 8.78231V30.0375C62.2409 30.0715 62.2709 30.1035 62.3085 30.1035H65.9916L66.0564 30.0375L66.0608 11.0895L66.0825 11.0579L70.2998 11.05C71.8354 11.05 72.6789 12.5974 72.6789 15.4016C72.6789 18.2073 71.8354 19.7584 70.2998 19.7584L67.7615 19.7556C67.7236 19.7556 67.6979 19.7844 67.6979 19.8208V22.026C67.6979 22.0691 67.7236 22.0952 67.7615 22.0952H71.3965C72.6789 22.0952 73.9348 21.501 74.8411 20.4798C75.9149 19.2677 76.4802 17.518 76.4802 15.421C76.4802 11.3573 74.4954 8.72226 71.3965 8.72226Z" fill="black"/>
<path d="M82.5042 8.71831H78.8186C78.7767 8.71831 78.7467 8.74794 78.7467 8.78231V30.0375C78.7467 30.0719 78.7767 30.1035 78.8186 30.1035H82.5042L82.5717 30.0375V8.78231L82.5042 8.71831Z" fill="black"/>
<path d="M98.5778 13.8922C98.5778 13.8547 98.5446 13.8262 98.5082 13.8262H91.945C86.0598 13.8262 85.3076 18.1463 85.3076 21.9428L85.3119 25.2262C85.3119 28.0517 87.0691 30.1033 89.485 30.1033H93.0658L93.1306 30.0377V27.8348C93.1306 27.7989 93.1002 27.7669 93.0658 27.7669L90.5082 27.7712C89.9187 27.759 89.1255 27.5097 89.1255 25.4838V21.9389C89.1227 19.5831 89.3419 18.0771 89.831 17.2202C90.3608 16.2745 91.1948 16.1476 91.945 16.1476H94.7425L94.7662 16.1808L94.7626 30.0377C94.7626 30.0713 94.7911 30.1033 94.8302 30.1033H98.509C98.5454 30.1033 98.5778 30.0713 98.5778 30.0377" fill="black"/>
<path d="M125.089 17.6133L123.274 17.4751C121.913 17.3577 120.901 16.6039 120.901 14.3738C120.901 11.7699 122.069 11.0576 123.628 11.0576H128.651L128.718 10.9928V8.78246L128.651 8.71885H128.546L123.104 8.72004C119.676 8.72004 117.238 10.7337 117.238 14.7467V14.9214C117.238 18.0878 119.186 20.3732 122.09 20.5953L123.896 20.7292C125.274 20.8335 126.132 22.0657 126.132 23.9355V24.4614C126.132 25.6304 125.84 27.7692 123.333 27.7692H118.114C118.078 27.7692 118.048 27.7997 118.048 27.8372V30.0373L118.114 30.1033H124.593C126.59 30.1033 129.934 29.2954 129.934 23.8609C129.934 21.8919 129.486 20.3401 128.58 19.2185C127.807 18.2553 126.662 17.7342 125.089 17.6133Z" fill="black"/>
<path d="M155.273 13.8922C155.273 13.8547 155.241 13.8262 155.207 13.8262H148.629C142.756 13.8262 141.996 18.1463 141.996 21.9428L142.001 25.2262C142.001 28.0517 143.756 30.1033 146.185 30.1033H149.756L149.822 30.0377V27.8348C149.822 27.7989 149.791 27.7669 149.756 27.7669L147.197 27.7712C146.61 27.759 145.823 27.5097 145.821 25.4838V21.9389C145.821 19.5831 146.043 18.0771 146.52 17.2202C147.05 16.2745 147.89 16.1476 148.628 16.1476H151.438L151.465 16.1808L151.459 30.0377C151.459 30.0713 151.489 30.1033 151.526 30.1033H155.21C155.246 30.1033 155.273 30.0713 155.273 30.0377" fill="black"/>
<path d="M140.466 13.8265H136.468L136.447 13.802V11.1235C136.447 11.0879 136.42 11.0579 136.383 11.0579H132.701C132.663 11.0579 132.63 11.0879 132.63 11.1235V25.228C132.63 28.0531 134.391 30.1035 136.816 30.1035H139.453C139.491 30.1035 139.52 30.0715 139.52 30.0375V27.837C139.52 27.8011 139.491 27.7671 139.453 27.7671H137.834C137.42 27.7608 136.447 27.7398 136.443 25.6583V16.1629L136.465 16.1416C137.69 16.1479 140.466 16.1416 140.466 16.1416L140.531 16.0811V13.8925C140.531 13.8553 140.5 13.8265 140.466 13.8265Z" fill="black"/>
<path d="M166.179 13.8265H162.204L162.177 13.802V11.1235L162.116 11.0579H158.427C158.39 11.0579 158.359 11.0879 158.359 11.1235V25.228C158.359 28.0531 160.117 30.1035 162.54 30.1035H165.176C165.216 30.1035 165.242 30.0715 165.242 30.0375V27.837C165.242 27.8011 165.216 27.7671 165.176 27.7671H163.558C163.142 27.7608 162.177 27.7398 162.177 25.6583V16.1629L162.199 16.1416C163.414 16.1479 166.179 16.1416 166.179 16.1416L166.245 16.0811V13.8925C166.245 13.8553 166.212 13.8265 166.179 13.8265Z" fill="black"/>
<path d="M172.268 13.8265H168.586C168.552 13.8265 168.519 13.8553 168.519 13.8925V30.0375L168.586 30.1035H172.268C172.308 30.1035 172.336 30.0715 172.336 30.0375V13.8925C172.336 13.8553 172.308 13.8265 172.268 13.8265Z" fill="black"/>
<path d="M172.268 8.71838H168.586L168.519 8.78238V11.869C168.519 11.9065 168.552 11.9342 168.586 11.9342H172.268C172.308 11.9342 172.336 11.9065 172.336 11.869V8.78238C172.336 8.74801 172.308 8.71838 172.268 8.71838Z" fill="black"/>
<path d="M197.742 13.8265H191.171C191.136 13.8265 191.106 13.8553 191.106 13.8925L191.104 30.0375L191.166 30.1035H194.854L194.916 30.0375L194.911 16.1767L194.937 16.1499L197.739 16.1479C198.496 16.1479 199.328 16.27 199.859 17.1462C200.346 17.9379 200.566 19.3297 200.566 21.514C200.569 21.6085 200.563 30.0375 200.563 30.0375C200.563 30.0715 200.593 30.1035 200.629 30.1035H204.302C204.341 30.1035 204.371 30.0715 204.371 30.0375V21.9407C204.371 18.1461 203.613 13.8265 197.742 13.8265Z" fill="black"/>
<path d="M184.06 26.6981C183.481 27.6525 182.561 27.7801 181.726 27.7801C180.9 27.7801 179.977 27.6525 179.391 26.6981C178.863 25.8392 178.618 24.3344 178.618 21.9616V21.9427C178.618 19.1425 178.963 17.5515 179.733 16.7938C180.194 16.3339 180.792 16.1475 181.726 16.1475C182.673 16.1475 183.265 16.3339 183.726 16.7938C184.49 17.5515 184.835 19.1492 184.835 21.9616C184.835 24.3375 184.59 25.8435 184.06 26.6981ZM181.726 13.8265C175.576 13.8265 174.789 18.1666 174.789 21.9616C174.789 25.761 175.576 30.1154 181.726 30.1154C187.877 30.1154 188.661 25.761 188.661 21.9616C188.661 18.1666 187.877 13.8265 181.726 13.8265Z" fill="black"/>
<path d="M100.656 13.8265L100.613 13.8905L106.076 29.8879C106.085 29.9238 106.085 29.9791 106.074 30.0143L102.998 37.9349C102.985 37.9725 103.002 38.0001 103.038 38.0001H106.241C106.281 38.0001 106.322 37.9725 106.335 37.9349L115.925 13.8905C115.938 13.8522 115.921 13.8265 115.884 13.8265H112.389C112.351 13.8265 112.311 13.8554 112.299 13.8905L108.239 24.4028H108.194L104.61 13.8905C104.601 13.8522 104.56 13.8265 104.523 13.8265" fill="black"/>
<path d="M209.106 27.8975C209.106 28.0041 209.077 28.0737 209.02 28.1152C208.957 28.1602 208.871 28.1792 208.766 28.1792H208.226V27.6296H208.796C208.878 27.6296 208.939 27.6423 208.985 27.6636C209.063 27.7019 209.106 27.7786 209.106 27.8975ZM209.494 29.1613C209.469 29.1514 209.449 29.1246 209.433 29.0799C209.428 29.0467 209.422 28.9922 209.421 28.931L209.413 28.6841C209.407 28.5632 209.386 28.4727 209.335 28.4233C209.311 28.3799 209.269 28.3502 209.23 28.3198C209.281 28.2724 209.332 28.2238 209.373 28.1677C209.422 28.0899 209.449 27.9887 209.449 27.8761C209.449 27.6423 209.35 27.4803 209.159 27.3906C209.06 27.3503 208.939 27.3235 208.788 27.3235H207.878V29.2857H208.226V28.4853H208.755C208.852 28.4853 208.922 28.4992 208.966 28.515C209.032 28.5568 209.068 28.6212 209.074 28.7287L209.091 29.0365C209.096 29.1123 209.1 29.1613 209.106 29.1921L209.13 29.262L209.137 29.2857H209.52V29.172M207.161 28.3486C207.161 27.9465 207.311 27.5814 207.587 27.3049C207.868 27.0295 208.242 26.8786 208.628 26.8786C209.019 26.8786 209.384 27.0295 209.659 27.3049C209.936 27.5814 210.087 27.9465 210.087 28.3486C210.087 29.1522 209.431 29.8048 208.628 29.8048C208.242 29.8048 207.868 29.6559 207.587 29.3809C207.311 29.1056 207.161 28.739 207.161 28.3486ZM208.628 30.1035C209.1 30.1035 209.539 29.9178 209.873 29.5915C210.199 29.2585 210.384 28.8176 210.384 28.3486C210.384 27.8734 210.199 27.4281 209.873 27.0998C209.539 26.766 209.1 26.5851 208.628 26.5851C207.657 26.5851 206.866 27.372 206.866 28.3486C206.866 28.8176 207.047 29.2585 207.377 29.5915C207.71 29.9178 208.16 30.1035 208.628 30.1035Z" fill="black"/>
</g>
<defs>
<clipPath id="clip0_48_1306">
<rect width="209.654" height="38" fill="white" transform="translate(0.72998)"/>
</clipPath>
</defs>
</svg>
