<svg width="131" height="38" viewBox="0 0 131 38" fill="none" xmlns="http://www.w3.org/2000/svg">
<g clip-path="url(#clip0_48_1304)">
<path d="M24.9224 13.7173C27.376 15.4703 30.3818 16.5018 33.6282 16.5018V10.2579C33.0139 10.258 32.401 10.194 31.8 10.0667V14.9815C28.5538 14.9815 25.5484 13.9501 23.0941 12.1972V24.939C23.0941 31.3132 17.9243 36.4801 11.5473 36.4801C9.16785 36.4801 6.95629 35.7611 5.11914 34.528C7.21594 36.6709 10.1401 38.0002 13.3751 38.0002C19.7525 38.0002 24.9227 32.8333 24.9227 26.4589V13.7173H24.9224ZM27.1778 7.41801C25.9239 6.04879 25.1006 4.27933 24.9224 2.32311V1.52002H23.1899C23.626 4.00637 25.1135 6.13056 27.1778 7.41801ZM9.15259 29.6367C8.45201 28.7186 8.07342 27.5955 8.07511 26.4406C8.07511 23.5254 10.4398 21.1616 13.3572 21.1616C13.9008 21.1615 14.4413 21.2447 14.9594 21.409V15.0256C14.3539 14.9427 13.7428 14.9074 13.1319 14.9204V19.8889C12.6134 19.7246 12.0727 19.6411 11.5289 19.6416C8.61151 19.6416 6.24696 22.0051 6.24696 24.9208C6.24696 26.9824 7.42891 28.7672 9.15259 29.6367Z" fill="#FF004F"/>
<path d="M23.0941 12.197C25.5484 13.9499 28.5538 14.9814 31.7999 14.9814V10.0666C29.988 9.68083 28.3839 8.73441 27.1778 7.41801C25.1133 6.13043 23.626 4.00624 23.1899 1.52002H18.6389V26.4586C18.6286 29.366 16.268 31.7201 13.3569 31.7201C11.6414 31.7201 10.1174 30.9028 9.15219 29.6367C7.42864 28.7672 6.24669 26.9822 6.24669 24.9209C6.24669 22.0055 8.61124 19.6417 11.5286 19.6417C12.0876 19.6417 12.6263 19.7287 13.1317 19.889V14.9205C6.86668 15.0499 1.82812 20.1663 1.82812 26.4588C1.82812 29.5999 3.08284 32.4475 5.11926 34.5281C6.95641 35.7611 9.16797 36.4802 11.5474 36.4802C17.9245 36.4802 23.0943 31.313 23.0943 24.939V12.197H23.0941Z" fill="black"/>
<path d="M31.8 10.0669V8.738C30.166 8.74047 28.5641 8.28311 27.1778 7.4182C28.405 8.76108 30.021 9.68702 31.8 10.0669ZM23.1899 1.52035C23.1483 1.28273 23.1163 1.04355 23.0942 0.803458V0.000366211H16.8105V24.9392C16.8005 27.8462 14.44 30.2003 11.5286 30.2003C10.6739 30.2003 9.86689 29.9975 9.15222 29.6372C10.1174 30.9031 11.6414 31.7203 13.3569 31.7203C16.2678 31.7203 18.6288 29.3664 18.6389 26.4591V1.52035H23.1899ZM13.1319 14.9208V13.5061C12.6069 13.4343 12.0775 13.3984 11.5475 13.3986C5.16988 13.3985 0 18.5656 0 24.9392C0 28.9351 2.03186 32.4567 5.11941 34.5282C3.08299 32.4477 1.82828 29.6 1.82828 26.459C1.82828 20.1666 6.86671 15.0502 13.1319 14.9208Z" fill="#00F2EA"/>
<path d="M104.609 31.2551C109.172 31.2551 112.871 27.5858 112.871 23.0599C112.871 18.5341 109.172 14.8641 104.609 14.8641H103.364C107.927 14.8641 111.626 18.534 111.626 23.0599C111.626 27.5858 107.927 31.2551 103.364 31.2551H104.609Z" fill="#FF004F"/>
<path d="M103.251 14.8641H102.007C97.4436 14.8641 93.7438 18.534 93.7438 23.0599C93.7438 27.5858 97.4436 31.2551 102.007 31.2551H103.251C98.6876 31.2551 94.9884 27.5858 94.9884 23.0599C94.9883 18.5341 98.6876 14.8641 103.251 14.8641Z" fill="#00F2EA"/>
<path d="M40.4365 11.1599V15.314H45.3024V31.1429H50.1703V15.4262H54.1312L55.4893 11.16L40.4365 11.1599ZM80.2758 11.1599V15.314H85.1416V31.1429H90.0095V15.4262H93.9703L95.3283 11.16L80.2758 11.1599ZM56.3956 13.5173C56.3956 12.2156 57.4579 11.1599 58.7704 11.1599C60.0841 11.1599 61.1476 12.2156 61.1476 13.5173C61.1476 14.8191 60.0847 15.8748 58.7704 15.8748C57.4579 15.8741 56.3956 14.8191 56.3956 13.5173ZM56.3956 17.5592H61.1476V31.1429H56.3956V17.5592ZM63.1852 11.1599V31.1428H67.9391V25.9792L69.4105 24.6308L74.0503 31.2549H79.143L72.4648 21.6004L78.4635 15.762H72.6916L67.9391 20.4768V11.1599H63.1852ZM114.455 11.1599V31.1428H119.209V25.9792L120.68 24.6308L125.321 31.2549H130.414L123.736 21.6004L129.735 15.762H123.963L119.209 20.4768V11.1599H114.455Z" fill="black"/>
<path d="M103.363 31.2551C107.926 31.2551 111.626 27.5858 111.626 23.0599C111.626 18.5341 107.926 14.8641 103.363 14.8641H103.251C98.6875 14.8641 94.9883 18.534 94.9883 23.0599C94.9883 27.5858 98.6875 31.2551 103.251 31.2551H103.363ZM99.2891 23.0599C99.2891 20.8584 101.089 19.0751 103.308 19.0751C105.526 19.0751 107.325 20.8584 107.325 23.0599C107.325 25.2614 105.526 27.0457 103.308 27.0457C101.089 27.0454 99.2891 25.2614 99.2891 23.0599Z" fill="black"/>
</g>
<defs>
<clipPath id="clip0_48_1304">
<rect width="130.414" height="38" fill="white"/>
</clipPath>
</defs>
</svg>
