<svg width="73" height="38" viewBox="0 0 73 38" fill="none" xmlns="http://www.w3.org/2000/svg">
<g id="Logos" clip-path="url(#clip0_48_1309)">
<g id="g8">
<g id="g12424">
<path id="path1072" d="M36.0441 38.0001C27.5077 38.0001 20.2896 32.3743 17.888 24.6289C17.8805 24.5915 17.8955 24.5541 17.9328 24.5474C17.9702 24.5399 18.0075 24.5549 18.0143 24.5923C20.5267 31.6312 27.6472 36.706 36.0412 36.706C44.4351 36.706 51.5557 31.6312 54.0681 24.5923C54.0756 24.5549 54.1129 24.5399 54.1525 24.5474C54.1899 24.5549 54.2049 24.5923 54.1974 24.6289C51.7958 32.3743 44.5803 38.0001 36.0441 38.0001Z" fill="black"/>
<path id="path1102" d="M27.5131 9.00365C27.5056 8.9902 27.4608 8.94535 27.4458 8.93489C27.3935 8.89827 27.3696 8.90048 27.327 8.91095C27.2822 8.92141 27.2747 8.93486 27.2426 8.94532C27.2052 8.95579 27.1664 8.9558 27.129 8.9427C27.0528 8.91879 27.0027 8.82144 26.9444 8.75553C26.9294 8.77421 26.8996 8.81083 26.8996 8.81083C26.6941 8.72123 26.4856 8.6816 26.2614 8.75028C26.2389 8.75555 26.2016 8.72937 26.1769 8.72115C26.0955 8.88458 25.9236 8.91092 25.7712 8.94253C25.7039 8.95598 25.6367 8.98737 25.5679 9.02429C25.5305 9.05044 25.4931 9.13236 25.4543 9.16135C25.4169 9.19573 25.3751 9.18004 25.3407 9.21665C25.2271 9.34056 25.1479 9.4829 25.1457 9.61473C25.143 9.71755 25.1083 9.79926 25.0007 9.84672C24.9558 9.86764 24.9058 9.91245 24.8849 9.95744C24.769 10.1842 24.6502 10.4161 24.5553 10.6561C24.518 10.7536 24.503 10.8882 24.4522 10.9778C24.3707 11.128 24.4074 11.2624 24.4373 11.4101C24.4672 11.563 24.5531 11.911 24.5531 11.911C24.0755 11.9215 23.3193 11.9477 22.7182 11.9768C22.7129 11.9004 22.5628 11.6578 22.5337 11.613C22.5038 11.5712 22.4283 11.3414 22.5785 11.1833C22.6308 11.1228 22.7974 10.8828 22.7974 10.7272C22.8027 10.3423 22.6442 9.92051 22.6076 9.6068C22.7974 9.33262 22.6002 9.05584 22.6151 8.77639C22.6151 8.76817 22.5778 8.73453 22.5628 8.71584C22.7579 8.46804 22.8289 8.05683 22.6943 7.98031C22.2512 8.52606 22.5097 9.25362 22.2385 9.8547C22.216 9.93645 22.1787 10.0129 22.2609 10.1025C22.3371 10.1815 22.2011 10.5006 22.1503 10.4505C22.225 10.3002 22.0158 10.1684 21.9157 10.0314C21.8858 9.99178 21.9157 9.94436 21.9157 9.90213C22.0868 9.72816 22.169 9.54629 22.0053 9.31956C21.9605 9.25604 21.9754 9.15346 21.9605 9.07178C22.1555 8.99533 22.2639 8.85555 22.219 8.68158C22.1742 8.5023 22.2265 8.34414 22.2938 8.18601C22.3752 7.9909 22.4627 7.79581 22.5471 7.59546C22.5994 7.46626 22.6368 7.3424 22.5445 7.22903C22.5296 7.21035 22.5221 7.17594 22.5296 7.16324C22.6327 6.88114 22.7717 6.6175 22.9383 6.35917C23.0437 6.16144 23.1648 5.97955 23.2993 5.80289C21.4354 7.34775 19.9063 9.2169 18.8123 11.318C18.7973 11.3419 18.7749 11.3546 18.7525 11.3546C18.7152 11.3546 18.6852 11.3232 18.6852 11.2859L18.6905 11.2597C20.1721 7.95116 22.5553 5.14351 25.5844 3.13994C28.6899 1.08627 32.3096 0.00012207 36.0479 0.00012207C39.7861 0.00012207 43.4057 1.08627 46.5112 3.13994C49.5403 5.14351 51.9235 7.95116 53.4051 11.2597L53.4104 11.2859C53.4104 11.3225 53.3805 11.3546 53.3432 11.3546C53.3207 11.3546 53.2983 11.3412 53.2833 11.3202C53.0457 10.8562 52.7827 10.4107 52.5029 9.97574C52.3714 9.87291 52.2421 9.77799 52.1682 9.61455C52.1084 9.47743 51.8648 9.4327 51.7571 9.31141C51.6465 9.18751 51.512 9.0715 51.438 8.92645C51.2878 8.62589 51.0323 8.45722 50.7371 8.30164C50.4419 8.1039 50.2073 7.81918 49.8962 7.61622C49.8663 7.60052 49.8439 7.64237 49.8215 7.67152C49.8663 7.88771 50.0322 8.0696 50.2325 8.20665C50.4223 8.37801 50.5381 8.61265 50.7914 8.73386C51.0261 8.87622 51.2106 9.09241 51.4161 9.27692L51.4087 9.29037L51.3713 9.34043C51.3115 9.29559 51.2472 9.25089 51.1867 9.20605L51.1718 9.21426C51.2017 9.28301 51.2092 9.37244 51.2585 9.40144C51.4087 9.50157 51.4348 9.65975 51.4139 9.77573C51.4113 9.79442 51.4087 9.81015 51.4065 9.82585C51.4012 9.84677 51.399 9.86769 51.399 9.88936V9.89757C51.3964 9.91327 51.3964 9.9237 51.3964 9.94238C51.3964 10.0241 51.4113 10.1006 51.4337 10.1771C51.4412 10.2189 51.4487 10.2614 51.4636 10.3062C51.3217 10.2113 51.1767 10.1244 51.0392 10.0241C51.0093 10.0002 51.0092 9.93716 50.9943 9.8897V9.86838C51.0541 9.77347 51.2103 9.834 51.3396 9.81308C51.2103 9.32539 50.7701 9.1277 50.4037 8.82451C50.2326 8.68477 50.0764 8.52923 49.9262 8.37102C49.8074 8.24182 49.6811 8.09686 49.5048 8.05471C49.4674 8.10179 49.43 8.13908 49.4046 8.19445C49.3747 8.25274 49.3896 8.40533 49.3284 8.39218C49.1886 8.36303 48.9831 8.25242 48.8591 8.34508C48.8292 8.41383 48.8565 8.54548 48.9263 8.59554C49.1005 8.74052 48.9936 8.88024 48.8591 8.99099C48.7619 9.08328 48.7672 9.24139 48.7672 9.36529C48.7672 9.41536 48.7597 9.49181 48.7821 9.51296C48.9824 9.64216 48.874 9.83983 48.9084 10.006C48.9057 10.143 48.8934 10.3566 48.729 10.3751C48.2941 10.4117 48.1252 10.8021 48.049 10.6914C47.928 10.5833 47.8906 10.549 47.8114 10.4726C47.7135 10.375 47.6298 10.3276 47.49 10.4307C47.4228 10.4808 47.3032 10.4703 47.2001 10.486C47.1702 10.3911 47.1552 10.3094 47.1253 10.2409C47.088 10.1486 47.0805 10.0484 46.9355 10.0247C46.8907 10.0194 46.8219 10.006 46.8324 9.87437C46.8698 9.44198 46.6874 9.11251 46.4341 8.7777C46.4117 8.74333 46.3153 8.70892 46.3078 8.66693C46.2854 8.56148 46.3893 8.62735 46.461 8.57736C46.5283 8.53028 46.4558 8.44288 46.7009 8.46133C47.0805 8.49048 47.4654 8.41425 47.8951 8.37958C47.6605 8.03687 47.6238 7.77588 47.5416 7.68366C47.4744 7.60191 47.2255 7.44378 47.0193 7.33565C46.967 7.30949 46.893 7.29903 46.8295 7.30127C46.674 7.30655 46.5425 7.27211 46.4529 7.13513C46.5874 6.92948 46.8168 7.10899 47.0014 7.01386C46.9341 6.94287 46.8033 6.8478 46.8011 6.79242C46.8878 6.75281 47.041 6.83429 47.1306 6.85297C47.1829 6.76599 47.2308 6.70266 47.2809 6.62098C47.2584 6.57913 47.1703 6.48395 47.189 6.44965C47.3922 6.24138 47.4131 6.32571 47.3152 6.04622C47.3526 6.01708 47.4019 6.12798 47.455 6.18859C47.4699 6.11759 47.5813 6.04623 47.3496 5.91441C47.3347 5.90096 47.4019 5.87479 47.4415 5.84565C47.4714 5.82472 47.4389 5.7904 47.4714 5.77695C47.5461 5.7478 47.6403 5.76125 47.6642 5.7351C47.4662 5.5769 47.3137 5.41085 47.1209 5.26587C46.9812 5.17097 46.9125 5.06288 47.0074 4.95475C47.1157 5.01528 47.2263 5.07075 47.3317 5.13143C47.3989 5.20542 47.3466 5.28694 47.4714 5.33178C47.5013 5.31086 47.6582 5.3004 47.6665 5.26827C47.6814 5.23165 47.5611 5.15751 47.5476 5.13121C47.4879 5.02838 47.2181 4.82277 47.1262 4.82008C47.0104 4.81481 46.8101 4.67771 46.7226 4.59596C46.7525 4.62211 46.6703 4.65651 46.6703 4.68296C46.603 4.95184 46.2825 4.84901 46.1801 4.66951C46.1577 4.63513 46.0822 4.66127 46.056 4.62988C45.8744 4.42423 45.882 4.47168 45.6608 4.34778C45.6458 4.33433 45.6554 4.29774 45.6458 4.23706C45.6308 4.07885 45.4194 3.98924 45.4194 3.94971C45.4194 3.90786 45.5957 3.93106 45.6174 3.65979C44.5444 3.08505 43.4161 2.61053 42.2508 2.24145C42.0976 2.26238 41.9474 2.29673 41.8212 2.3548C41.6052 2.46816 41.3436 2.45763 41.0985 2.4101C40.9797 2.38918 40.9296 2.43924 40.8773 2.53662C40.8325 2.61837 40.7114 2.62362 40.6374 2.69215L40.6898 2.80287C40.63 2.91362 40.5552 2.97957 40.476 3.12454C40.2496 3.03756 40.0568 2.92678 39.8221 2.88725C39.5636 2.8454 39.3611 2.73435 39.1922 2.54192C39.0106 2.34157 38.7468 2.19394 38.5861 1.97252C38.5413 1.91199 38.5338 1.8143 38.5487 1.74578C38.5637 1.69272 38.6362 1.66138 38.7072 1.64292C38.752 1.63765 38.8073 1.65862 38.8522 1.65638C38.897 1.6511 39.0128 1.52716 39.0607 1.50609C38.483 1.42433 37.9007 1.36375 37.3154 1.32684C37.4656 1.36345 37.574 1.4428 37.6427 1.58254C37.5635 1.57991 37.4925 1.57432 37.4238 1.56909L37.4185 1.6005C37.7981 1.76655 38.3728 1.96955 38.502 2.09607C38.5094 2.13044 38.3757 2.16484 38.0723 2.2516C37.9975 2.2673 37.8877 2.11715 37.4371 1.95633C37.4221 1.95106 37.3608 1.99075 37.3623 1.99299C37.3773 2.04081 37.3997 2.09581 37.4386 2.1248C37.5835 2.21971 37.739 2.30939 37.9101 2.40953C37.8152 2.48052 37.6284 2.42523 37.7173 2.62573C37.5013 2.50706 37.3115 2.40426 37.1217 2.30143L37.1068 2.32236C37.2122 2.40934 37.3153 2.49113 37.4206 2.5755C37.4132 2.59119 37.4057 2.6046 37.3907 2.62254C37.0612 2.55677 36.7503 2.42483 36.4311 2.31677C36.3937 2.30108 36.307 2.19024 36.2779 2.15856C36.2779 2.15856 35.9775 1.99243 35.8347 1.95028C35.6928 1.90844 35.5156 1.88157 35.3363 1.88979C35.1569 1.89801 35.1173 1.82924 35.1173 1.82924C35.1173 1.82924 35.1771 1.7185 35.2653 1.71065C35.352 1.71065 35.5814 1.77119 35.7189 1.77941C35.8586 1.79511 36.0642 1.81379 36.0642 1.81379C36.0492 1.75326 36.0417 1.72938 36.0342 1.68984C36.1844 1.67116 36.3347 1.65028 36.4983 1.62935C36.461 1.5476 36.4909 1.41052 36.322 1.5265C36.2921 1.54742 36.2136 1.50559 36.1239 1.4899C36.1762 1.45552 36.2001 1.44278 36.224 1.4241C36.1717 1.41588 36.1082 1.4107 36.0634 1.38978C36.0111 1.36362 35.9708 1.32922 35.9319 1.28693C35.3311 1.2922 34.7323 1.32133 34.1365 1.37655C34.2128 1.57429 34.4608 1.58216 34.5871 1.78774C34.3868 1.75859 34.1866 1.70339 33.9915 1.68232C33.8809 1.68495 33.7382 1.75105 33.6328 1.74059C33.5581 1.73237 33.5088 1.56395 33.5013 1.56926C33.588 1.48489 33.7494 1.44533 33.9175 1.39788C33.5297 1.43748 33.1451 1.49017 32.7629 1.54816C31.624 1.78012 31.2892 2.11759 31.1284 2.28102C31.1284 2.28102 31.3317 2.39179 31.3975 2.43393C31.3452 2.52092 31.3026 2.59737 31.2659 2.65806C31.4423 2.71335 31.9094 2.86635 32.0437 2.95333C32.2753 3.31711 32.7237 3.29079 33.0928 3.41469C33.0114 3.53067 32.9927 3.65457 32.9217 3.7627C32.9067 3.78661 32.9067 3.83371 32.9217 3.86293C32.9665 3.95784 32.974 4.02635 33.0323 4.12126C33.0472 4.14219 33.0846 4.17658 33.1085 4.17434C33.6331 4.16089 33.5988 4.00295 33.678 3.58379C33.9335 3.54942 34.5664 3.57037 34.6323 3.2648C34.6398 3.09344 34.4582 2.93521 34.3267 2.89307C34.3341 2.87737 34.3491 2.85645 34.3566 2.83776C34.4538 2.83249 34.7019 2.73493 34.7332 2.7007C34.6884 2.64017 34.7482 2.63199 34.666 2.53462C34.7556 2.51594 34.8005 2.51592 34.8214 2.45554C34.8266 2.43985 34.8214 2.39724 34.8139 2.37116C34.8086 2.35547 34.8112 2.33677 34.8192 2.32407C34.8341 2.30837 34.8491 2.29794 34.879 2.30018C35.1428 2.32932 35.417 2.37117 35.6777 2.43462C35.7966 2.46899 35.9415 2.52688 36.0073 2.61917C36.1418 2.8116 36.3286 2.80371 36.4975 2.87231C36.3368 3.04367 36.4377 3.21761 36.6029 3.32575C36.9638 3.58678 37.3464 3.39975 37.6706 3.22033C37.7842 3.38907 38.1033 3.6817 38.2296 3.83459C38.2296 3.83459 38.1922 3.93744 38.3432 4.19048C38.5016 4.45151 38.9365 4.56746 39.2368 4.69659C39.1442 4.79411 39.192 4.83101 39.6247 5.03405C39.6172 5.10505 39.6221 5.17907 39.5724 5.22129C39.4977 5.29004 39.3848 5.3188 39.3116 5.33725C39.198 5.37163 39.0904 5.34545 39.0007 5.33195C38.8692 5.31103 38.7399 5.30281 38.6106 5.35288C38.3521 5.45309 38.11 5.42388 37.8514 5.35025C37.4635 5.2395 37.0737 5.14464 36.6808 5.05504C36.5202 5.01543 36.3543 5.00792 36.2063 5.12898C36.1615 5.1656 36.0561 5.14991 35.9769 5.16336C35.7736 5.19475 35.2595 5.37958 35.0832 5.46918C35.5473 5.35582 36.0217 5.2424 36.6017 5.26348C36.6996 5.26875 36.7915 5.28966 36.923 5.36633C36.9604 5.38726 37.0022 5.43507 36.9902 5.47437C36.9849 5.50352 36.9155 5.53789 36.8796 5.53789C36.7504 5.54835 36.6211 5.54319 36.4918 5.54319C36.4891 5.55888 36.4844 5.57233 36.4844 5.58504C36.6032 5.59849 36.719 5.61416 36.867 5.62985C36.7825 5.67469 36.7115 5.70895 36.6376 5.75118C36.6973 6.02536 36.9193 6.136 37.1987 6.18876C37.2854 6.20445 37.4177 6.25754 37.5074 6.28893C37.6606 6.20987 37.8056 6.13339 37.9505 6.05164C37.9879 6.03071 38.0372 6.04638 37.9953 6.09873C37.9079 6.18572 37.9804 6.18048 37.958 6.22262C37.9954 6.257 38.0424 6.29658 38.0843 6.33334C38.0992 6.3468 38.0992 6.35952 38.0768 6.37297C37.89 6.34383 37.8953 6.42302 37.6681 6.38865C37.6531 6.41256 37.7278 6.45742 37.6083 6.4492C37.1868 6.44656 36.762 6.38045 36.3534 6.52565C36.2667 6.55704 36.1718 6.57872 36.1135 6.47559C36.0911 6.44122 36.0537 6.3938 36.0612 6.3675C36.0762 6.32565 36.1285 6.28317 36.1696 6.27525C36.3093 6.24386 36.4543 6.22813 36.6023 6.16715C36.5948 6.08016 36.2966 6.12754 36.0299 6.1253C35.9215 6.20967 35.5479 6.19634 35.3102 6.17542C35.0203 6.1388 34.6593 6.24935 34.514 6.46801C34.4916 6.50463 34.5215 6.56552 34.5589 6.5919C34.5963 6.62628 34.73 6.63676 34.7225 6.68421C34.103 6.68949 33.937 6.5498 33.5995 6.58141C33.5995 6.59188 33.6443 6.60531 33.6294 6.63968C33.6742 6.6479 33.7213 6.6554 33.7639 6.6711C33.8013 6.68455 33.8932 6.68974 33.9567 6.69721C33.9717 6.70543 33.9717 6.7159 33.9567 6.72338C33.8618 6.72338 33.7168 6.7316 33.6802 6.72338C33.5957 6.69423 33.5143 6.72338 33.4538 6.72338C33.3865 6.81298 33.2744 6.81299 33.2191 6.86836C33.1593 6.91544 33.1033 7.10301 33.0002 7.08194C32.9976 6.98965 32.903 6.96595 32.8687 6.92372C32.8537 6.93419 32.8313 6.94242 32.8163 6.94989C32.9217 7.27945 32.5787 7.26101 32.4868 7.45082C32.4494 7.47697 32.4569 7.42466 32.442 7.41644C32.4793 7.36936 32.4793 7.33203 32.5017 7.30834C32.4494 7.24482 32.5017 7.10272 32.5017 7.0105C32.4868 6.98434 32.4345 6.99182 32.4203 7.04488C32.3755 7.19778 32.3149 7.32164 32.3456 7.47984C32.43 7.65119 32.3483 7.82259 32.1558 7.87004C32.1034 7.88574 32.0025 7.87002 32.0294 7.97808C32.0294 7.98072 31.9547 8.01469 31.9106 8.01469C31.6602 8.01205 31.5392 8.0543 31.4122 8.16498C31.0587 8.1306 30.8218 8.39961 30.5079 8.47336C30.339 8.51297 30.1732 8.64474 30.0678 8.77656C29.8518 9.10612 30.0155 9.56743 29.9467 9.93651C29.9169 10.1026 29.7383 10.2871 29.7226 10.4163C29.7226 10.4163 29.6926 10.419 29.6702 10.4216C29.6179 10.4243 29.4775 10.4717 29.4304 10.4082C29.4902 10.2922 29.3384 10.0865 29.2936 9.90989C29.2488 9.74384 29.2487 9.52235 29.3235 9.36415C29.3683 9.27186 29.3683 9.25079 29.2787 9.17173C29.2562 9.15304 29.2413 9.12686 29.2338 9.10593C29.174 8.93981 29.1128 8.89241 28.9304 8.96893C28.8437 9.01078 28.7697 8.99508 28.7092 8.89247C28.6644 8.81849 28.5403 8.77116 28.4454 8.72901C28.337 8.68717 28.2003 8.79477 28.092 8.65256C28.0546 8.60548 27.7437 8.69443 27.6331 8.70564C27.6182 8.71386 27.6705 8.80846 27.6032 8.84538C27.5883 8.85883 27.5584 8.86628 27.5658 8.89019C27.5658 8.89841 27.6032 8.9612 27.5883 8.9772C27.5584 9.00335 27.5434 9.00337 27.5434 9.00337L27.5131 9.00365ZM48.316 5.63185C48.4191 5.4315 48.1867 5.32344 48.0418 5.23115C47.9969 5.205 47.9259 5.22067 47.8415 5.21245C47.8863 5.27597 47.9013 5.30998 47.9334 5.34951C47.896 5.36521 47.8587 5.37866 47.8251 5.39136C47.84 5.43844 47.8475 5.48097 47.8699 5.54957C47.7697 5.52342 47.701 5.50244 47.63 5.486L47.6151 5.51519C47.7152 5.56302 47.8154 5.61267 47.9289 5.66543C47.9738 5.54414 48.0395 5.50991 48.1501 5.63105C48.1725 5.66019 48.3055 5.65277 48.316 5.63185Z" fill="black"/>
<path id="path1148" fill-rule="evenodd" clip-rule="evenodd" d="M35.9887 1.40851C36.0335 1.62209 35.6801 1.50604 35.5403 1.49289C35.6905 1.32677 35.8489 1.41643 35.9887 1.40851Z" fill="black"/>
<path id="path1154" d="M39.4923 5.51578C39.1657 5.56061 39.1785 5.68449 39.1418 5.76886C39.2554 5.78455 39.437 5.74795 39.5401 5.76065L39.5551 5.79725C39.5327 5.80772 39.5177 5.81819 39.4624 5.84435C39.7158 5.9261 39.9422 5.99464 40.1768 6.06317C40.1544 6.13192 40.061 6.22137 40.04 6.27674C40.1693 6.35072 40.2747 6.30815 40.2822 6.32982C40.2971 6.35075 40.1342 6.42211 40.0737 6.46426L40.0886 6.49037C40.1559 6.46945 40.3046 6.40867 40.3262 6.42167C40.386 6.46651 40.2515 6.4822 40.2209 6.56934C40.2956 6.55888 40.3659 6.53269 40.4025 6.52447C40.4174 6.54539 40.3876 6.56408 40.4249 6.59323C40.3039 6.81734 40.3166 6.81994 40.1746 6.70919C40.1596 6.69574 40.2269 6.64869 40.1693 6.6117C40.1469 6.59825 40.132 6.6483 40.0797 6.66997C40.0423 6.65427 40.005 6.64605 39.9586 6.63559C39.9736 6.59075 40.0744 6.54859 40.0109 6.48268C39.8106 6.51406 39.6022 6.53274 39.4206 6.52452C39.3757 6.51406 39.3907 6.48269 39.418 6.47447C39.5263 6.4771 39.684 6.44831 39.6765 6.43262C39.4314 6.35864 39.2259 6.31135 39.0017 6.24282C38.791 6.17407 38.4323 6.22711 38.3508 6.0846C38.2761 5.95278 38.6116 5.70502 38.9673 5.50728C39.0435 5.4602 39.2543 5.42027 39.4605 5.41235C39.483 5.42282 39.44 5.4947 39.4923 5.51578Z" fill="black"/>
<path id="path1200" fill-rule="evenodd" clip-rule="evenodd" d="M49.8081 8.41565C49.8828 8.616 50.0032 8.73469 50.0009 8.85067C49.835 8.76891 49.7476 8.67669 49.7506 8.56594C49.7532 8.51886 49.8081 8.52109 49.8081 8.41565Z" fill="black"/>
<path id="path1206" d="M36.7585 5.87704C36.7884 5.86658 36.8332 5.81126 36.8586 5.79004C36.9618 6.03784 37.2301 5.94293 37.4124 6.06422C37.3205 6.08514 37.2382 6.10606 37.1538 6.12773C36.9296 6.03021 36.9087 6.0141 36.7585 5.87704Z" fill="black"/>
<path id="path1236" d="M36.9719 5.22586C37.1909 5.18626 37.4599 5.30762 37.6602 5.50267L37.6378 5.5497C37.3344 5.46795 37.1139 5.32339 36.9719 5.22586Z" fill="black"/>
<path id="path1266" d="M44.4591 6.34624C44.489 6.25664 44.474 6.16177 44.4441 6.11955C44.344 6.05902 44.3545 6.05599 44.2543 5.9956C44.2597 5.97991 44.2394 5.91127 44.2394 5.89281C44.3261 5.85096 44.3478 5.82182 44.4053 5.77422C44.495 5.66086 44.3679 5.6503 44.3903 5.61869C44.4987 5.48163 44.6459 5.3999 44.7857 5.3656C44.8529 5.42613 44.9202 5.48688 45.0069 5.56332C45.0043 5.5686 44.9844 5.62387 44.9695 5.65033C45.0591 5.7347 45.1989 5.83218 45.246 6.07206C45.0218 6.26979 44.8268 6.45433 44.6952 6.52555C44.628 6.5674 44.5316 6.56513 44.4845 6.53079C44.4546 6.50464 44.4292 6.45684 44.4591 6.34624Z" fill="black"/>
<path id="path1296" d="M45.0603 5.43409C45.0453 5.39224 45.0378 5.35497 45.0229 5.31544C44.978 5.32889 44.9631 5.30203 44.8779 5.33118C44.9227 5.25211 44.9302 5.24943 44.9571 5.20729L44.9123 5.23117C44.8749 5.17812 44.8525 5.11517 44.8092 5.07564C44.7494 5.02034 44.6694 4.98605 44.6223 4.95967C44.6747 4.86477 44.7277 4.7804 44.783 4.69342C44.8622 4.69342 44.9706 4.69343 45.1073 4.6908C44.9885 4.8753 45.0475 4.92014 45.2314 4.89114C45.3898 4.86723 45.4869 4.92551 45.4765 5.09679C45.4712 5.14985 45.4839 5.20484 45.4839 5.22068C45.8426 5.48171 46.2775 5.61082 46.5069 5.99573C46.6676 5.84545 46.9231 5.96958 46.8499 6.35167C46.8947 6.36736 46.9395 6.38832 46.9844 6.40999C46.9818 6.42868 46.9818 6.44657 46.9818 6.44956C46.9145 6.57085 46.3652 6.54975 46.1381 6.64734C46.0171 6.69741 46.0933 6.49971 45.7346 6.67346C45.8931 6.32544 45.9663 6.4283 46.0507 6.35446C45.9319 6.33055 45.7952 6.29913 45.6158 6.25691C45.7451 6.18592 45.8557 6.01705 45.6681 6.00383C45.6382 6.0012 45.6382 5.93509 45.6158 5.88786H45.816C45.831 5.87441 45.8385 5.85873 45.8534 5.85126C45.7638 5.70098 45.7055 5.65348 45.5687 5.53489C45.4394 5.52961 45.1996 5.68779 45.2339 5.35039C45.1592 5.38477 45.1126 5.40502 45.0603 5.43409L45.0527 5.43477L45.0603 5.43409Z" fill="black"/>
<path id="path1326" d="M50.2194 9.60201C50.1746 9.34628 50.0214 9.26451 49.9399 9.09054C49.925 9.05915 49.9922 8.99566 50.0296 8.93506C50.2007 9.11695 50.333 9.35422 50.3509 9.49134C50.3584 9.5731 50.3061 9.50478 50.2643 9.62054C50.2493 9.61527 50.2194 9.61542 50.2194 9.60201Z" fill="black"/>
<path id="path1356" d="M35.182 30.6211C35.182 30.5538 35.0422 30.5912 34.9473 30.6061C34.9174 30.6088 35.0265 30.6659 34.6678 30.8939C34.7201 30.8939 34.9712 30.8991 34.8868 30.9387C34.5991 31.1703 34.3143 31.3235 34.0036 31.5133C33.9737 31.5283 33.9274 31.5358 33.9035 31.5283C33.7503 31.4282 33.5553 31.5283 33.4028 31.3228C33.343 31.2361 33.2444 31.2481 33.2055 31.2227C33.1906 31.2174 33.1241 31.0642 33.1002 31.0777C33.0927 31.0852 33.021 31.1225 33.0254 31.145C33.0329 31.1749 33.0778 31.2294 33.0778 31.2294C33.1525 31.3109 33.2706 31.4005 33.3311 31.4797C33.3386 31.4947 33.3258 31.5612 33.2862 31.6247C33.2713 31.6546 33.2713 31.73 33.3087 31.7988C33.3236 31.8362 33.3983 31.8212 33.3879 31.8885C33.3655 32.0252 33.1009 32.218 32.9447 32.2098C32.7467 32.2072 32.5494 32.1874 32.3544 32.165C32.1885 32.1426 32.0457 32.2651 32.0906 32.431C32.1205 32.5259 32.0853 32.5551 32.0158 32.5498C31.8365 32.5349 31.6728 32.4975 31.5122 32.4019C31.4898 32.6761 31.5148 32.7053 31.7416 32.7471C31.779 32.7546 31.8089 32.8316 31.8574 32.8891C31.6968 32.9414 31.4808 32.9041 31.5256 33.1186C31.5406 33.1709 31.5032 33.2344 31.4883 33.2897C31.3934 33.327 31.2118 33.3271 31.1774 33.3898C31.1325 33.6163 31.3702 33.5848 31.5331 33.6932C31.5406 33.7605 31.5406 33.8247 31.5256 33.8516C31.4733 33.9114 31.341 34.0018 31.2775 34.0497C31.2827 34.1259 31.2925 34.1842 31.2626 34.2156C31.2177 34.223 31.149 34.253 31.1019 34.2604C31.1318 34.4106 31.2312 34.5085 31.2678 34.569C31.2625 34.5989 31.149 34.5391 31.075 34.5316L31.3126 34.6871C31.4494 34.7663 31.3918 34.7925 31.5211 34.9113C31.6422 35.0197 31.7028 35.0406 31.6975 35.054C31.6901 35.0764 31.7199 35.1908 31.3493 35.069C30.9091 34.9263 30.7955 34.8709 30.2789 34.3702C30.2789 34.3702 30.0024 34.1222 29.8149 33.6005C29.7999 33.5631 29.755 33.516 29.7775 33.4846C29.7924 33.4622 29.8223 33.4548 29.8806 33.4622C29.8754 33.4099 29.8859 33.3277 29.8582 33.3068C29.8134 33.2694 29.6601 33.3516 29.6527 33.247C29.7124 33.0916 29.7394 33.1259 29.7663 32.9757C29.7738 32.9309 29.7214 32.8779 29.7214 32.6597C29.7214 32.6223 29.7812 32.6073 29.8081 32.6297C29.853 32.7246 29.8896 32.8561 29.9561 32.9167C29.8814 32.4631 29.9411 32.5954 29.8963 32.2628C29.844 32.1956 29.8216 32.2329 29.8044 32.2329V32.5573C29.6729 32.5423 29.6251 32.4975 29.6542 32.2965C29.6595 32.2666 29.7065 32.289 29.6568 32.1933C29.6119 32.1119 29.6269 31.9848 29.6269 31.9168C29.7143 31.6822 29.6344 31.4662 29.5372 31.2659C29.4079 31.0178 29.5399 31.0948 29.5671 30.9917C29.6987 30.559 29.9049 30.1349 29.7831 29.6525C29.7457 29.5157 29.6725 29.3573 29.8055 29.2175C29.8205 29.2026 29.813 29.1577 29.8055 29.1308C29.7263 28.8992 29.8354 28.6959 29.8847 28.48C29.9146 28.335 29.9296 28.1848 29.9445 28.0368C29.9744 27.7939 30.0043 27.5466 29.9819 27.3037C29.9871 27.1326 29.9765 27.0504 29.9968 26.9211C30.0117 26.8075 30.1 26.6999 30.1052 26.5833C30.1105 26.3195 30.0902 26.0557 30.0753 25.7924C30.0726 25.7476 30.0603 25.6893 30.0304 25.6557C29.7061 25.2656 29.3818 24.8806 28.9416 24.6223C28.6255 24.4355 28.4806 24.1134 28.3087 23.7286C28.2788 23.6688 28.2489 23.5836 28.2086 23.4939C30.8738 23.4096 33.5338 23.3621 36.1885 23.3647C38.1842 23.3647 40.5094 23.3782 42.5077 23.4253C42.4928 23.6995 42.4778 24.0157 42.4778 24.0685C42.4479 24.4481 42.3829 24.4691 42.217 24.8172C42.0743 25.0937 41.8374 25.2178 41.6289 25.3762C41.3046 25.6243 40.9249 25.7925 40.6297 26.0802C40.5243 26.1646 40.4294 26.2961 40.3106 26.3305C39.8121 26.4598 39.8861 26.9313 39.7045 27.2901C39.5356 27.6727 39.3167 27.8409 39.088 28.2313C38.9879 28.3681 38.7981 28.4525 38.6553 28.5556C38.5552 28.8007 38.3288 28.8904 38.1307 29.0197C37.9492 29.072 37.7489 28.9525 37.5613 28.9323C37.3849 28.9024 37.166 29.0272 37.1024 29.1565C36.7467 29.0967 36.5278 29.2536 36.2272 29.3911C35.9978 29.4882 35.9425 29.6945 35.9477 29.9C35.953 30.0584 35.8879 30.1481 35.7766 30.2087C35.5419 30.338 35.3731 30.5248 35.1863 30.7176C35.1071 30.799 35.0435 30.8072 35.0331 30.8072C35.0304 30.8098 34.969 30.8154 35.182 30.6211Z" fill="black"/>
<path id="path1386" d="M63.6011 23.0419C63.3799 22.4593 63.1557 21.8819 62.9315 21.3046C61.703 21.2043 60.4719 21.1121 59.2433 21.0251L58.5708 22.6622C57.825 22.6122 57.0787 22.562 56.3326 22.5199C57.606 19.6252 58.8766 16.7332 60.1499 13.8544C60.4608 13.8783 60.7747 13.8992 61.0858 13.9231C61.3996 13.947 61.7105 13.968 62.0243 13.9941C63.295 17.068 64.5657 20.1499 65.8364 23.2343C65.0928 23.1656 64.3472 23.1051 63.6011 23.0419ZM59.9842 19.2193C60.7195 19.2746 61.4552 19.33 62.1908 19.388C61.8216 18.4363 61.4554 17.4873 61.0861 16.5356C60.7199 17.4319 60.3508 18.3256 59.9842 19.2193Z" fill="black"/>
<path id="path1416" d="M25.9445 22.0875C24.7213 19.1507 23.498 16.2271 22.2748 13.3061C23.0551 13.2717 23.8381 13.2404 24.6185 13.2112C25.3246 15.0513 26.0315 16.8915 26.738 18.7316C27.4449 16.8493 28.1511 14.9669 28.8576 13.0873C29.6406 13.0686 30.4209 13.0529 31.2039 13.0394C29.978 16.0316 28.7548 19.0317 27.5316 22.0397C27.2678 22.0479 27.0017 22.0532 26.738 22.0606C26.4742 22.0689 26.2112 22.0801 25.9445 22.0875Z" fill="black"/>
<path id="path1446" d="M2.63716 20.1023C2.63716 21.373 3.1117 21.9688 4.22158 21.8554C5.33408 21.7447 5.80862 21.0592 5.80862 19.7885V14.4343C6.51257 14.3655 7.21898 14.3024 7.92293 14.2418V19.6304C7.92293 22.1085 6.68645 23.5216 4.22158 23.7641C1.75925 24.0092 0.525482 22.8414 0.525482 20.3633V14.9747C1.22943 14.8983 1.93329 14.8218 2.63716 14.7506" fill="black"/>
<path id="path1476" d="M52.8926 16.72C54.2687 17.2868 56.151 17.9775 56.151 19.815C56.151 21.6947 54.8092 22.6859 52.4629 22.5699C51.0789 22.5011 49.6315 21.6762 49.2202 21.4284C49.2053 21.4201 49.1903 21.4127 49.1754 21.4022V19.2932C49.2202 19.3193 49.2598 19.3433 49.3017 19.3749C50.5644 20.1737 51.6084 20.6245 52.4599 20.73C53.4749 20.8592 53.9468 20.556 53.9468 19.947C53.9468 19.6939 53.7361 19.4435 53.2795 19.2194C53.0187 19.0876 52.7048 18.9583 52.3726 18.8213C50.8963 18.2228 49.0615 17.6376 49.0615 15.5945C49.0615 13.7887 50.6537 13.0452 52.2329 13.1217C53.4403 13.177 54.8797 13.786 55.5546 14.1788C55.5696 14.187 55.5845 14.1975 55.5994 14.205V16.314C55.5546 16.2878 55.515 16.2609 55.4731 16.2322C55.0569 15.966 53.5908 15.0854 52.2331 15.0222C51.5501 14.9908 51.2551 15.2383 51.2551 15.5573C51.2551 15.784 51.4741 16.0529 51.9247 16.2876C52.1907 16.4299 52.5337 16.5697 52.8926 16.72Z" fill="black"/>
<path id="path1506" d="M46.178 18.6156C46.879 19.7861 47.5779 20.9566 48.2792 22.1297C47.4883 22.1006 46.6947 22.0744 45.9039 22.0533C45.2844 20.975 44.6648 19.8995 44.0426 18.8291C43.5598 18.8187 43.0778 18.8082 42.5954 18.7999V21.9714C41.9019 21.9579 41.2087 21.9505 40.5153 21.9423V13.0237C42.1077 13.0394 43.6999 13.0738 45.2922 13.116C46.9505 13.1608 47.8942 14.2944 47.8942 16.0001C47.8942 17.6662 46.9821 18.3414 46.178 18.6156ZM42.5848 16.9389C43.2335 16.9546 43.8845 16.968 44.533 16.9807C45.5058 17.0069 45.7009 16.464 45.7009 16.0053C45.7009 15.5466 45.5028 14.9903 44.533 14.9666C43.8843 14.9479 43.2333 14.9352 42.5848 14.9218" fill="black"/>
<path id="path1536" d="M19.2932 22.3696C19.2879 19.3959 19.2857 16.4248 19.2857 13.4511C19.9867 13.4115 20.6908 13.3771 21.3921 13.3483V22.2642C20.6934 22.2985 19.9917 22.3329 19.2932 22.3696Z" fill="black"/>
<path id="path1566" d="M34.1566 18.3334V20.0417C35.7516 20.0283 37.3439 20.0283 38.9388 20.0417V21.924C36.6584 21.9083 34.3781 21.9158 32.1003 21.9449C32.0951 18.9712 32.0928 16.0001 32.0928 13.0264C34.3574 12.9972 36.6246 12.9898 38.8891 13.0055V14.8772C37.3126 14.8668 35.7362 14.8668 34.1597 14.8772V16.4537C35.2301 16.4455 36.3003 16.4432 37.3707 16.4455V18.3305C36.3003 18.3278 35.227 18.3307 34.1566 18.3334Z" fill="black"/>
<path id="path1596" d="M15.4389 13.6725C16.1376 13.6306 16.8361 13.5881 17.5346 13.5486V22.4672C16.963 22.4985 16.3931 22.5329 15.8211 22.57L15.7987 22.5356C14.4542 20.8325 13.1097 19.1375 11.7679 17.4476V22.8519C11.0691 22.905 10.3706 22.96 9.67203 23.0154V14.0968C10.3498 14.0438 11.0271 13.9888 11.7046 13.9386L11.727 13.9678C12.9635 15.5179 14.1998 17.0786 15.4389 18.6419" fill="black"/>
<path id="path1626" d="M66.7224 14.3975C67.4212 14.461 68.1171 14.5293 68.8157 14.5978V21.6472C70.0152 21.7659 71.2147 21.8898 72.4116 22.0243V23.8934C70.5213 23.6849 68.6285 23.49 66.733 23.316C66.7304 20.3449 66.7224 17.3712 66.7224 14.3975Z" fill="black"/>
</g>
</g>
</g>
<defs>
<clipPath id="clip0_48_1309">
<rect width="71.8862" height="38" fill="white" transform="translate(0.525391)"/>
</clipPath>
</defs>
</svg>
